<svg width="188" height="187" viewBox="0 0 188 187" fill="none" xmlns="http://www.w3.org/2000/svg">
<path d="M93.9998 0.28418C42.4798 0.28418 0.666504 42.0975 0.666504 93.6175C0.666504 145.138 42.4798 186.951 93.9998 186.951C145.52 186.951 187.333 145.138 187.333 93.6175C187.333 42.0975 145.52 0.28418 93.9998 0.28418ZM90.3598 120.124C90.3598 130.298 82.4265 138.231 72.2532 138.231H58.4398C48.4532 138.231 40.3332 130.111 40.3332 120.124V95.2042C40.3332 66.4575 46.5865 60.0175 63.2932 50.1242C64.4132 49.4709 65.6265 49.1908 66.8398 49.1908C69.2665 49.1908 71.5998 50.4042 72.9065 52.6442C74.8665 56.0042 73.7465 60.2975 70.4798 62.2575C59.1865 68.7909 55.2665 71.2175 54.5198 88.1108H72.3465C82.5198 88.1108 90.4532 96.0442 90.4532 106.218V120.124H90.3598ZM147.667 120.124C147.667 130.298 139.733 138.231 129.56 138.231H115.653C105.667 138.231 97.5465 130.111 97.5465 120.124V95.2042C97.5465 66.4575 103.8 60.0175 120.507 50.1242C121.627 49.4709 122.84 49.1908 124.053 49.1908C126.48 49.1908 128.813 50.4042 130.12 52.6442C132.08 56.0042 130.96 60.2975 127.693 62.2575C116.4 68.9775 112.48 71.4042 111.733 88.2975H129.56C139.733 88.2975 147.667 96.2309 147.667 106.404V120.124Z" fill="#6587FF"/>
</svg>
