<svg width="97" height="97" viewBox="0 0 97 97" fill="none" xmlns="http://www.w3.org/2000/svg">
<path fill-rule="evenodd" clip-rule="evenodd" d="M93.1459 0L66.1955 0.0337946C64.5417 0.0358685 63.2027 1.38316 63.2048 3.04305C63.2069 4.70294 64.5493 6.04686 66.2031 6.04479L85.9241 6.02006L71.6388 20.3939C64.0382 13.6714 54.0603 9.59335 43.1333 9.59335C19.3114 9.59335 0 28.9758 0 52.8852C0 76.7947 19.3114 96.1771 43.1333 96.1771C66.9551 96.1771 86.2666 76.7947 86.2666 52.8852C86.2666 42.1064 82.3418 32.2476 75.8482 24.67L90.1643 10.2652L90.1891 30.0587C90.1912 31.7186 91.5336 33.0625 93.1874 33.0605C94.8412 33.0584 96.1802 31.7111 96.1781 30.0512L96.1442 3.00174C96.1421 1.34185 94.7997 -0.0020734 93.1459 0ZM75.8482 24.67C74.5449 23.1491 73.1381 21.72 71.6388 20.3939L51.3275 40.8311L55.5677 45.0762L75.8482 24.67Z" fill="#6587FF"/>
</svg>
