<svg width="153" height="154" viewBox="0 0 153 154" fill="none" xmlns="http://www.w3.org/2000/svg">
<path d="M140.29 0.308594H112.595C105.896 0.308594 100.397 5.84114 100.397 12.5808V48.5926H60.304C53.8052 48.5926 48.5061 53.924 48.5061 60.563V100.9H12.4125C5.81371 100.9 0.514648 106.232 0.514648 112.871V141.036C0.514648 147.675 5.81371 153.007 12.4125 153.208H140.39C147.089 153.208 152.588 147.675 152.588 140.936V12.5808C152.488 5.84114 146.989 0.308594 140.29 0.308594Z" fill="url(#paint0_linear_537_530)"/>
<path d="M140.29 0.308594H112.595C105.896 0.308594 100.397 5.84114 100.397 12.5808V48.5926H60.304C53.8052 48.5926 48.5061 53.924 48.5061 60.563V100.9H12.4125C5.81371 100.9 0.514648 106.232 0.514648 112.871V141.036C0.514648 147.675 5.81371 153.007 12.4125 153.208H140.39C147.089 153.208 152.588 147.675 152.588 140.936V12.5808C152.488 5.84114 146.989 0.308594 140.29 0.308594Z" fill="url(#paint1_linear_537_530)"/>
<path d="M140.291 0.306641H112.795C106.097 0.306641 100.598 5.83919 100.598 12.5788V153.206H140.291C146.989 153.206 152.488 147.674 152.488 140.934V12.5788C152.488 5.83919 146.989 0.306641 140.291 0.306641Z" fill="#F57C00"/>
<path d="M48.5071 60.6609V100.898H12.5135C5.91467 100.898 0.515625 106.33 0.515625 112.969V141.134C0.515625 147.773 5.91467 153.205 12.5135 153.205H100.498V48.5898H60.505C53.9061 48.5898 48.5071 54.0218 48.5071 60.6609Z" fill="#FFC107"/>
<path d="M100.498 48.5918V153.207H140.19C146.889 153.207 152.388 147.675 152.388 140.935V100.899L100.498 48.5918Z" fill="url(#paint2_linear_537_530)"/>
<path opacity="0.2" d="M60.5052 49.5977H100.498V48.5918H60.5052C53.9064 48.5918 48.5073 54.0237 48.5073 60.6628V61.6687C48.5073 55.0297 53.9064 49.5977 60.5052 49.5977Z" fill="white"/>
<path opacity="0.2" d="M12.5135 101.906H48.5071V100.9H12.5135C5.91466 100.9 0.515625 106.332 0.515625 112.971V113.977C0.515625 107.338 5.91466 101.906 12.5135 101.906Z" fill="white"/>
<path d="M140.402 0.308594H112.907C106.208 0.308594 100.709 5.84114 100.709 12.5808V48.5926H60.7158C54.117 48.5926 48.7179 54.0246 48.7179 60.6636V100.9H12.6243C6.02551 100.9 0.626465 106.332 0.626465 112.971V141.137C0.626465 147.776 6.02551 153.208 12.6243 153.208H140.402C147.1 153.208 152.599 147.675 152.599 140.936V12.5808C152.599 5.84114 147.1 0.308594 140.402 0.308594Z" fill="url(#paint3_linear_537_530)"/>
<defs>
<linearGradient id="paint0_linear_537_530" x1="0.514648" y1="76.7583" x2="152.588" y2="76.7583" gradientUnits="userSpaceOnUse">
<stop stop-color="white" stop-opacity="0.1"/>
<stop offset="1" stop-color="white" stop-opacity="0"/>
</linearGradient>
<linearGradient id="paint1_linear_537_530" x1="0.514648" y1="76.7583" x2="152.588" y2="76.7583" gradientUnits="userSpaceOnUse">
<stop stop-color="white" stop-opacity="0.1"/>
<stop offset="1" stop-color="white" stop-opacity="0"/>
</linearGradient>
<linearGradient id="paint2_linear_537_530" x1="74.7522" y1="74.9971" x2="149.299" y2="149.092" gradientUnits="userSpaceOnUse">
<stop stop-color="#BF360C" stop-opacity="0.2"/>
<stop offset="1" stop-color="#BF360C" stop-opacity="0.02"/>
</linearGradient>
<linearGradient id="paint3_linear_537_530" x1="51.5864" y1="51.6416" x2="150.492" y2="149.948" gradientUnits="userSpaceOnUse">
<stop stop-color="white" stop-opacity="0.1"/>
<stop offset="1" stop-color="white" stop-opacity="0"/>
</linearGradient>
</defs>
</svg>
