<svg width="281" height="212" viewBox="0 0 281 212" fill="none" xmlns="http://www.w3.org/2000/svg">
<path opacity="0.86" d="M228.6 35.291H52.5483V149.552H228.6V35.291Z" fill="#C9C9C9"/>
<path d="M127.272 136.502L120.585 178.932H165.183L154.926 136.502H127.272Z" fill="#C9C9C9"/>
<path opacity="0.08" d="M138.18 35.6617H147.575C147.575 35.6617 145.517 42.0957 142.863 46.0681C140.21 50.0404 148.87 55.8241 148.87 55.8241L181.51 35.354L191.662 35.291C191.662 35.291 202.884 56.5724 193.951 65.1955C185.017 73.8185 164.273 68.923 163.573 75.2172C162.873 81.5114 175.937 93.869 175.937 93.869L218.287 61.9085C218.287 61.9085 227.081 67.5873 219.379 73.3849C211.678 79.1826 191.438 114.731 177.757 115.025C164.077 115.318 160.338 109.905 163.37 123.452H142.366L137.234 71.7974L130.303 55.8241L134.672 37.501L138.18 35.6617Z" fill="black"/>
<path opacity="0.45" d="M141.652 193.723C182.001 193.723 214.709 189.878 214.709 185.135C214.709 180.392 182.001 176.547 141.652 176.547C101.304 176.547 68.5947 180.392 68.5947 185.135C68.5947 189.878 101.304 193.723 141.652 193.723Z" fill="#E6E6E6"/>
<path opacity="0.58" d="M189.442 176.394C189.442 176.394 183.106 174.666 181.741 168.778C181.741 168.778 191.542 166.798 191.836 176.918L189.442 176.394Z" fill="#68E1FD"/>
<path opacity="0.73" d="M190.219 175.756C190.219 175.756 185.794 168.762 189.687 162.23C189.687 162.23 197.143 166.965 193.832 175.77L190.219 175.756Z" fill="#68E1FD"/>
<path d="M191.354 175.757C191.354 175.757 193.692 168.379 200.763 166.98C200.763 166.98 202.086 171.771 196.184 175.778L191.354 175.757Z" fill="#68E1FD"/>
<path d="M186.761 175.596L188.049 184.366L196.135 184.401L197.326 175.638L186.761 175.596Z" fill="#24285B"/>
<path d="M211.041 62.6708C211.041 62.6708 215.459 57.7753 218.637 58.0481C221.816 58.3208 223.538 64.3423 213.631 67.93L211.041 62.6708Z" fill="#F4A28C"/>
<path d="M251.76 15.8848H210.565V51.1743H251.76V15.8848Z" fill="#C9C9C9"/>
<path d="M162.705 61.3848L177.722 86.4846L210.243 62.9863L216.082 67.3852L183.736 101.996C182.605 103.205 181.233 104.162 179.707 104.807C178.182 105.451 176.538 105.767 174.882 105.736C173.226 105.704 171.596 105.325 170.096 104.623C168.596 103.921 167.261 102.912 166.177 101.661L150.075 83.0158L162.705 61.3848Z" fill="#68E1FD"/>
<path opacity="0.46" d="M162.705 61.3848L177.722 86.4846L210.243 62.9863L216.082 67.3852L183.736 101.996C182.605 103.205 181.233 104.162 179.707 104.807C178.182 105.451 176.538 105.767 174.882 105.736C173.226 105.704 171.596 105.325 170.096 104.623C168.596 103.921 167.261 102.912 166.177 101.661L150.075 83.0158L162.705 61.3848Z" fill="white"/>
<path d="M228.6 123.451H52.5483V149.551H228.6V123.451Z" fill="#E6E6E6"/>
<path d="M141.554 142.006C145.459 142.006 148.625 138.843 148.625 134.942C148.625 131.041 145.459 127.879 141.554 127.879C137.649 127.879 134.483 131.041 134.483 134.942C134.483 138.843 137.649 142.006 141.554 142.006Z" fill="#A5A5A5"/>
<path d="M173.129 171.498H110.406V185.135H173.129V171.498Z" fill="#E6E6E6"/>
<path d="M138.082 34.5283C138.082 34.5283 138.635 39.4238 137.892 42.6688C137.746 43.3069 137.351 43.8605 136.796 44.2081C136.241 44.5556 135.57 44.6686 134.931 44.5221C133.286 44.1235 131.185 43.1234 130.569 40.5428L128.994 36.2977C128.767 35.4154 128.82 34.4843 129.146 33.6335C129.472 32.7827 130.055 32.0543 130.814 31.5491C133.531 29.528 137.892 31.5491 138.082 34.5283Z" fill="#F4A28C"/>
<path d="M129.897 37.5L125.935 53.0607L134.672 54.6342L134.049 42.6822L129.897 37.5Z" fill="#F4A28C"/>
<path d="M128.462 40.11C128.464 40.2136 128.502 40.3134 128.568 40.3933C128.634 40.4732 128.725 40.5286 128.826 40.5506C129.515 40.7271 130.243 40.6729 130.898 40.3962C131.553 40.1195 132.1 39.6357 132.453 39.019C132.875 38.3426 133.089 37.5575 133.069 36.7608C133.049 35.9641 132.796 35.1906 132.341 34.5361C133.836 34.7912 135.357 34.8687 136.871 34.7669C137.38 34.7368 137.882 34.6234 138.355 34.4312L139.524 30.7177C139.524 30.7177 141.449 26.9971 139.265 26.2488C137.081 25.5005 136.107 27.9972 134.315 26.2488C132.523 24.5004 132.11 23.85 130.303 24.8501C128.497 25.8501 130.598 27.2558 127.622 27.2978C124.646 27.3398 124.604 28.5706 124.604 29.9204C124.674 30.382 124.879 30.8127 125.193 31.1582C127.225 33.7094 128.372 36.851 128.462 40.11Z" fill="#24285B"/>
<path d="M132.978 38.8583C132.978 38.8583 132.873 36.977 131.473 37.1589C130.072 37.3407 130.163 40.0612 132.096 40.271L132.978 38.8583Z" fill="#F4A28C"/>
<path d="M138.27 37.6191L139.671 39.4654C139.752 39.5706 139.805 39.6946 139.825 39.8258C139.845 39.9571 139.831 40.0912 139.785 40.2156C139.738 40.3401 139.661 40.4508 139.56 40.5373C139.46 40.6238 139.339 40.6833 139.209 40.7103L137.346 41.1159L138.27 37.6191Z" fill="#F4A28C"/>
<path opacity="0.31" d="M134.105 44.2711C134.105 44.2711 132.978 44.0823 130.954 42.25C130.954 42.25 130.66 45.4391 134.315 47.7889L134.105 44.2711Z" fill="#CE8172"/>
<path d="M103.517 67.0984C103.925 63.9174 105.356 60.9548 107.595 58.6557C109.833 56.3567 112.758 54.8454 115.93 54.3491C125.662 52.8105 141.134 51.7265 155.837 56.4472C179.816 64.1401 151.286 115.018 151.286 115.018H116.14C116.14 115.018 100.275 92.8067 103.517 67.0984Z" fill="#68E1FD"/>
<path d="M116.14 115.025L119.059 123.453H154.765L151.321 115.025H116.14Z" fill="#24285B"/>
<path d="M146.49 61.8463L151.006 73.3857L154.779 71.4065L151.006 61.3848L146.49 61.8463Z" fill="#FFD200"/>
<path opacity="0.08" d="M118.646 61.293C118.646 61.293 131.423 70.4335 124.772 87.1691L152.602 64.7058C152.602 64.7058 158.203 70.3706 150.047 76.0843C141.89 81.7981 142.66 104.569 130.303 115.059H116.14L112.87 106.842L110.07 82.1617L118.646 61.293Z" fill="black"/>
<path opacity="0.4" d="M146.49 61.8463L151.006 73.3857L154.779 71.4065L151.006 61.3848L146.49 61.8463Z" fill="white"/>
<path d="M145.013 66.538C145.013 66.538 149.423 61.6425 152.602 61.9153C155.781 62.188 157.503 68.2095 147.603 71.7972L145.013 66.538Z" fill="#F4A28C"/>
<path d="M148.905 51.6902L180.229 32.9824L187.23 61.3833H151.006L148.905 51.6902Z" fill="#FFD200"/>
<path d="M148.905 51.6914L140.966 54.4189L143.416 62.986L151.006 61.3845L148.905 51.6914Z" fill="#FFD200"/>
<path opacity="0.08" d="M148.905 51.6914L140.966 54.4189L143.416 62.986L151.006 61.3845L148.905 51.6914Z" fill="black"/>
<path d="M245.788 107.066H199.23V137.411H245.788V107.066Z" fill="#FFD200"/>
<path d="M79.3979 19.7227H39.2461V57.6907H79.3979V19.7227Z" fill="#24285B"/>
<path d="M215.27 114.08V130.396L232.268 121.2L215.27 114.08Z" fill="white"/>
<path d="M63.043 29.8576C61.9601 29.8477 60.9069 30.2108 60.0605 30.8857C59.3423 31.4571 58.7509 32.1716 58.3242 32.9837C57.8951 32.1732 57.3042 31.4591 56.5879 30.8857C55.7447 30.2148 54.6973 29.8521 53.6194 29.8576C50.5809 29.8576 48.2915 32.3403 48.2915 35.6343C48.2915 39.187 51.148 41.6208 55.4747 45.3064C56.1748 45.9358 57.043 46.6422 57.9111 47.4045C58.024 47.5067 58.1719 47.5617 58.3242 47.5583C58.4763 47.5603 58.6236 47.5055 58.7373 47.4045C59.5984 46.6491 60.4316 45.9428 61.1737 45.3064C65.5004 41.6208 68.3569 39.187 68.3569 35.6343C68.3709 32.3263 66.0815 29.8576 63.043 29.8576Z" fill="white"/>
<path opacity="0.72" d="M210.572 44.0745L223.454 23.9121L231.162 42.2912L239.606 27.248L251.76 45.3753V51.173H210.572V44.0745Z" fill="white"/>
<path d="M231.981 28.9268C233.934 28.9268 235.517 27.3456 235.517 25.395C235.517 23.4445 233.934 21.8633 231.981 21.8633C230.029 21.8633 228.446 23.4445 228.446 25.395C228.446 27.3456 230.029 28.9268 231.981 28.9268Z" fill="white"/>
<path d="M119.193 63.3C118.952 61.8001 118.309 60.3935 117.331 59.2302C116.353 58.0669 115.078 57.1905 113.64 56.6945C112.203 56.1984 110.658 56.1014 109.17 56.4136C107.682 56.7258 106.306 57.4357 105.19 58.4674C103.359 60.1619 101.912 62.2279 100.946 64.527C99.98 66.826 99.5174 69.3048 99.5893 71.7972C99.7643 86.3507 99.2392 109.779 110.966 114.15C122.693 118.521 147.575 71.7972 147.575 71.7972L144.985 66.538L115.293 91.2532C115.293 91.2532 120.971 75.4967 119.193 63.3Z" fill="#68E1FD"/>
<path opacity="0.46" d="M119.193 63.3C118.952 61.8001 118.309 60.3935 117.331 59.2302C116.353 58.0669 115.078 57.1905 113.64 56.6945C112.203 56.1984 110.658 56.1014 109.17 56.4136C107.682 56.7258 106.306 57.4357 105.19 58.4674C103.359 60.1619 101.912 62.2279 100.946 64.527C99.98 66.826 99.5174 69.3048 99.5893 71.7972C99.7643 86.3507 99.2392 109.779 110.966 114.15C122.693 118.521 147.575 71.7972 147.575 71.7972L144.985 66.538L115.293 91.2532C115.293 91.2532 120.971 75.4967 119.193 63.3Z" fill="white"/>
<path d="M187.752 61.2998C190.865 60.5494 191.844 53.5524 189.94 45.6715C188.035 37.7905 183.969 32.0101 180.856 32.7605C177.744 33.5108 176.765 40.5079 178.669 48.3888C180.574 56.2698 184.64 62.0502 187.752 61.2998Z" fill="#FFD200"/>
<path opacity="0.4" d="M187.752 61.2998C190.865 60.5494 191.844 53.5524 189.94 45.6715C188.035 37.7905 183.969 32.0101 180.856 32.7605C177.744 33.5108 176.765 40.5079 178.669 48.3888C180.574 56.2698 184.64 62.0502 187.752 61.2998Z" fill="white"/>
<path d="M178.177 42.2065C178.02 42.2489 177.867 42.3075 177.722 42.3814C177.945 47.0417 179.095 51.611 181.104 55.823C181.222 55.817 181.339 55.8006 181.454 55.774C183.449 55.2915 184.331 51.8646 183.428 48.0811C182.525 44.2976 180.173 41.724 178.177 42.2065Z" fill="#FFD200"/>
<path opacity="0.08" d="M178.177 42.2065C178.02 42.2489 177.867 42.3075 177.722 42.3814C177.945 47.0417 179.095 51.611 181.104 55.823C181.222 55.817 181.339 55.8006 181.454 55.774C183.449 55.2915 184.331 51.8646 183.428 48.0811C182.525 44.2976 180.173 41.724 178.177 42.2065Z" fill="black"/>
<path d="M77.1854 77.0488H31.3276V107.785H77.1854V77.0488Z" fill="#E6E6E6"/>
<path d="M31.3203 77.0488L54.2492 98.8338L77.1781 77.0488H31.3203Z" fill="#C9C9C9"/>
</svg>
