<svg width="381" height="254" viewBox="0 0 381 254" fill="none" xmlns="http://www.w3.org/2000/svg">
<g clip-path="url(#clip0_537_531)">
<path style="mix-blend-mode:multiply" d="M304.615 130.604L324.079 142.564L285.674 164.989L265.813 153.426L304.615 130.604Z" fill="url(#paint0_linear_537_531)"/>
<path d="M307.652 129.988L243.069 92.9423C242.379 92.5426 241.596 92.332 240.799 92.332C240.003 92.332 239.22 92.5426 238.53 92.9423L204.087 113.121C203.685 113.355 203.351 113.691 203.119 114.094C202.887 114.497 202.765 114.954 202.765 115.419C202.765 115.884 202.887 116.341 203.119 116.745C203.351 117.148 203.685 117.483 204.087 117.717L267.974 154.654C268.893 155.184 269.937 155.459 270.999 155.452C272.06 155.446 273.101 155.157 274.014 154.616L307.69 134.578C308.089 134.341 308.419 134.003 308.646 133.598C308.874 133.194 308.992 132.736 308.988 132.272C308.984 131.808 308.859 131.353 308.624 130.952C308.39 130.552 308.055 130.219 307.652 129.988Z" fill="#E75A59"/>
<path d="M307.652 127.072L243.069 90.0263C242.379 89.6265 241.596 89.416 240.799 89.416C240.003 89.416 239.22 89.6265 238.53 90.0263L204.087 110.205C203.685 110.439 203.351 110.775 203.119 111.178C202.887 111.581 202.765 112.038 202.765 112.503C202.765 112.968 202.887 113.425 203.119 113.829C203.351 114.232 203.685 114.567 204.087 114.801L267.974 151.754C268.893 152.284 269.937 152.559 270.999 152.553C272.06 152.546 273.101 152.257 274.014 151.716L307.69 131.662C308.089 131.425 308.419 131.087 308.646 130.682C308.874 130.277 308.992 129.82 308.988 129.356C308.984 128.892 308.859 128.437 308.624 128.036C308.39 127.636 308.055 127.303 307.652 127.072Z" fill="#FFDDDC"/>
<path d="M244.636 94.6562C244.277 94.7759 211.656 113.796 211.656 113.796L266.151 145.707L299.071 126.709L244.636 94.6562Z" fill="white"/>
<path d="M280.212 142.688C280.111 142.629 280.023 142.549 279.955 142.453C279.887 142.358 279.839 142.25 279.815 142.135C279.791 142.021 279.791 141.902 279.815 141.788C279.84 141.673 279.888 141.565 279.956 141.47C280.417 140.988 280.954 140.584 281.545 140.273C282.089 139.925 282.682 139.62 283.248 139.289L287.634 136.705L291.236 134.6C291.472 134.455 291.738 134.363 292.013 134.333C292.289 134.303 292.568 134.335 292.83 134.426C293.207 134.558 293.533 134.805 293.761 135.133C293.814 135.226 293.848 135.33 293.859 135.437C293.871 135.544 293.86 135.652 293.827 135.754C293.794 135.856 293.74 135.951 293.669 136.031C293.598 136.112 293.51 136.176 293.412 136.221L286.796 140.094L283.934 141.725L282.301 142.694C282.049 142.844 281.766 142.938 281.474 142.967C281.181 142.996 280.886 142.96 280.609 142.862C280.469 142.824 280.335 142.766 280.212 142.688Z" fill="#E75A59"/>
<path d="M296.606 133.718C295.972 133.718 295.458 133.292 295.458 132.766C295.458 132.241 295.972 131.814 296.606 131.814C297.24 131.814 297.754 132.241 297.754 132.766C297.754 133.292 297.24 133.718 296.606 133.718Z" fill="#E75A59"/>
<path d="M234.955 57.2953C234.955 57.5673 235.554 61.5106 235.554 61.5106L236.68 62.098L236.218 56.7949" fill="#AF2B27"/>
<path d="M210.587 51.7557C208.475 44.8653 214.199 37.003 223.371 34.1948C232.543 31.3866 241.69 34.6959 243.801 41.5863C245.913 48.4767 240.189 56.339 231.017 59.1472C221.845 61.9554 212.698 58.6462 210.587 51.7557Z" fill="#AF2B27"/>
<path d="M212.122 51.6171C210.011 44.7266 215.734 36.8644 224.906 34.0561C234.078 31.2479 243.225 34.5572 245.337 41.4476C247.448 48.338 241.724 56.2003 232.552 59.0085C223.381 61.8168 214.234 58.5075 212.122 51.6171Z" fill="#FC857A"/>
<path d="M235.597 56.5053L236.686 62.113C236.686 62.113 241.322 52.5674 240.168 51.5938C239.015 50.6202 235.14 54.1447 235.597 56.5053Z" fill="#FC857A"/>
<path d="M182.076 81.4997L211.459 64.6385C211.648 64.53 211.863 64.4735 212.081 64.4746C212.299 64.4758 212.513 64.5346 212.701 64.6451C212.889 64.7556 213.044 64.9138 213.151 65.1037C213.258 65.2936 213.312 65.5084 213.309 65.7263V76.6045C213.31 77.132 213.169 77.6501 212.902 78.1052C212.635 78.5603 212.252 78.936 211.791 79.1935L183.295 95.1354C183.106 95.2412 182.893 95.2956 182.676 95.2931C182.46 95.2905 182.248 95.2312 182.062 95.1211C181.876 95.0109 181.722 94.8538 181.615 94.6654C181.509 94.477 181.454 94.264 181.456 94.0476V82.5712C181.456 82.3538 181.513 82.1402 181.622 81.9521C181.731 81.7639 181.887 81.6079 182.076 81.4997Z" fill="#68E1FD"/>
<path d="M209.86 71.1046L194.265 79.8072C193.345 80.3184 192.523 78.9097 193.443 78.3985L209.038 69.6959C209.957 69.1846 210.779 70.5934 209.86 71.1046Z" fill="#F2F2F2"/>
<path d="M210.54 75.4503L186.968 88.5912C186.049 89.1024 185.227 87.6937 186.147 87.1824L209.713 74.0416C210.633 73.5304 211.454 74.9391 210.535 75.4503H210.54Z" fill="#F2F2F2"/>
<path style="mix-blend-mode:multiply" d="M248.346 119.404L270.068 129.902L263.533 133.72L243.667 122.156L248.346 119.404Z" fill="url(#paint1_linear_537_531)"/>
<path d="M242.253 118.615V77.9632C242.253 76.1574 243.482 74.4495 245.267 74.1993C245.769 74.1259 246.28 74.1613 246.767 74.3031C247.253 74.4449 247.704 74.6898 248.087 75.0211C248.471 75.3524 248.779 75.7623 248.99 76.223C249.201 76.6838 249.31 77.1845 249.31 77.6912V119.79C249.312 120.368 249.156 120.935 248.859 121.431C248.562 121.927 248.135 122.333 247.624 122.604C247.114 122.875 246.539 123.002 245.961 122.971C245.384 122.94 244.826 122.752 244.348 122.428L244.277 122.379C243.66 121.961 243.154 121.401 242.802 120.746C242.449 120.09 242.261 119.359 242.253 118.615Z" fill="#68E1FD"/>
<path opacity="0.27" d="M242.253 92.6487V77.9632C242.253 76.1574 243.482 74.4495 245.267 74.1993C245.769 74.1259 246.28 74.1613 246.767 74.3031C247.254 74.4449 247.704 74.6898 248.087 75.0211C248.471 75.3524 248.779 75.7623 248.99 76.223C249.201 76.6838 249.31 77.1845 249.31 77.6912V101.079C246.699 98.4958 244.336 95.6732 242.253 92.6487Z" fill="black"/>
<path d="M282.317 75.6685C282.317 75.6685 246.676 73.4059 244.401 74.4556C242.127 75.5054 241.202 79.2801 242.067 84.5342C242.932 89.7884 259.926 110.957 259.926 110.957" fill="#68E1FD"/>
<path opacity="0.51" d="M257.869 86.7044C252.694 83.5389 247.302 80.7595 242.089 77.6483C242.317 76.5297 242.905 75.5169 243.765 74.7656C253.685 79.6227 263.463 84.7572 273.333 89.7122L270.352 94.4116C266.173 91.8933 262.048 89.2608 257.869 86.7044Z" fill="white"/>
<path opacity="0.51" d="M259.148 91.1531C253.385 87.4926 247.389 84.1693 241.735 80.313C241.735 80.0791 241.735 79.8398 241.762 79.6113C246.774 82.5756 251.949 85.2625 256.917 88.3139C261.074 90.8593 265.177 93.481 269.35 95.9884L268.616 97.1469C265.454 95.1725 262.309 93.1601 259.148 91.1531Z" fill="white"/>
<path d="M293.325 87.0955C293.222 86.7256 289.587 70.1582 273.127 77.2073C258.25 83.5819 257.799 102.537 258.805 107.177C259.627 110.951 263.479 116.091 270.934 117.951" fill="#8C0000"/>
<path d="M269.271 117.391C261.575 114.059 259.134 102.591 263.82 91.7778C268.506 80.9642 278.544 74.8995 286.24 78.2319C293.937 81.5642 296.377 93.0317 291.691 103.845C287.005 114.659 276.967 120.724 269.271 117.391Z" fill="#CE4242"/>
<path d="M261.765 98.7678L277.893 102.983L281.425 95.4934L266.831 86.4102C266.831 86.4102 262.652 92.8011 261.765 98.7678Z" fill="white"/>
<path d="M277.548 102.843C275.903 102.008 275.413 99.6717 276.453 97.6257C277.493 95.5798 279.67 94.5986 281.315 95.4342C282.96 96.2699 283.45 98.6058 282.41 100.652C281.37 102.698 279.193 103.679 277.548 102.843Z" fill="#F7D600"/>
<path d="M300.399 61.1609C309.105 65.5521 317.629 70.2351 325.973 75.21C326.027 75.2496 326.065 75.308 326.079 75.3739C326.093 75.4398 326.082 75.5085 326.048 75.5667C326.014 75.6249 325.96 75.6685 325.896 75.689C325.832 75.7095 325.762 75.7055 325.701 75.6778C317.343 70.7065 308.816 66.0289 300.121 61.645C299.805 61.4709 300.083 61.0032 300.399 61.1609Z" fill="#F7931E"/>
<path d="M329.711 73.9704L300.328 57.1092C300.139 57.0007 299.924 56.9442 299.706 56.9453C299.488 56.9465 299.274 57.0053 299.087 57.1158C298.899 57.2263 298.743 57.3845 298.636 57.5744C298.529 57.7643 298.475 57.9791 298.478 58.197V69.0752C298.477 69.6027 298.618 70.1208 298.885 70.5759C299.152 71.031 299.535 71.4067 299.996 71.6642L328.492 87.5898C328.681 87.6956 328.894 87.75 329.111 87.7475C329.327 87.7449 329.539 87.6856 329.725 87.5755C329.912 87.4653 330.066 87.3081 330.172 87.1198C330.278 86.9314 330.333 86.7183 330.331 86.502V75.0419C330.332 74.8245 330.274 74.6109 330.165 74.4228C330.056 74.2347 329.9 74.0786 329.711 73.9704Z" fill="#05C69F"/>
<path d="M327.617 85.2802V91.6385L322.306 83.7246" fill="#05C69F"/>
<path d="M303.12 63.7526L318.715 72.4551C319.634 72.9664 318.812 74.3751 317.893 73.8638L302.298 65.1613C301.378 64.65 302.2 63.2413 303.12 63.7526Z" fill="#F2F2F2"/>
<path d="M302.445 68.0974L326.011 81.2274C326.931 81.7386 326.109 83.1474 325.19 82.6361L301.618 69.4953C300.698 68.984 301.52 67.5753 302.439 68.0865L302.445 68.0974Z" fill="#F2F2F2"/>
</g>
<path d="M152.951 224.923L258.917 162.305C262.29 160.409 265.188 157.335 261.892 155.262L155.55 93.9857C153.952 92.9988 151.531 92.3526 149.912 93.2757L38.6694 157.839C35.296 159.799 34.6924 165.266 38.0657 167.226L138.968 224.823C141.088 226.055 143.494 226.713 145.946 226.73C148.399 226.747 150.813 226.124 152.951 224.923Z" fill="#225870"/>
<path d="M178.645 136.844L143.797 156.142L162.198 166.928L199.958 144.363" fill="url(#paint2_linear_537_531)"/>
<path d="M131.397 108.242L96.5488 127.541L114.95 138.326L152.717 115.761" fill="url(#paint3_linear_537_531)"/>
<path d="M72.5874 140.896L37.7461 160.195L56.1468 170.981L93.9069 148.423" fill="url(#paint4_linear_537_531)"/>
<path d="M123.578 173.793L88.7368 193.092L107.13 203.877L144.898 181.312" fill="url(#paint5_linear_537_531)"/>
<path d="M234.06 158.045L207.99 170.527L212.549 184.792L245.778 161.474" fill="url(#paint6_linear_537_531)"/>
<path d="M237.129 141.628C234.367 145.168 233.016 149.605 233.336 154.082C233.84 161.367 237.945 163.483 237.945 163.483L242.831 163.753C242.831 163.753 248.641 161.857 247.881 152.392C247.17 143.496 244.273 141.408 244.273 141.408" fill="#68E1FD"/>
<path d="M240.722 142.899C242.707 142.899 244.315 142.33 244.315 141.628C244.315 140.926 242.707 140.357 240.722 140.357C238.737 140.357 237.128 140.926 237.128 141.628C237.128 142.33 238.737 142.899 240.722 142.899Z" fill="#003B94"/>
<path d="M240.722 164.017C242.707 164.017 244.315 163.447 244.315 162.746C244.315 162.044 242.707 161.475 240.722 161.475C238.737 161.475 237.128 162.044 237.128 162.746C237.128 163.447 238.737 164.017 240.722 164.017Z" fill="#68E1FD"/>
<path d="M239.245 142.013L234.891 117.048C234.799 116.501 233.968 116.736 234.06 117.275L238.392 142.247C238.513 142.787 239.344 142.559 239.245 142.013Z" fill="#007F68"/>
<path d="M240.04 142.097C240.171 142.071 240.306 142.071 240.438 142.097C240.61 142.141 240.766 142.235 240.885 142.367C241.231 135.394 241.292 128.417 241.07 121.435C241.07 120.881 240.196 120.881 240.21 121.435C240.419 128.327 240.362 135.214 240.04 142.097Z" fill="#007F68"/>
<path d="M249.819 117.87C246.576 125.703 243.768 133.711 241.411 141.855C241.394 141.96 241.416 142.068 241.474 142.158C241.532 142.248 241.621 142.313 241.724 142.341C241.827 142.37 241.937 142.359 242.033 142.311C242.128 142.263 242.203 142.181 242.242 142.082C244.599 133.938 247.406 125.931 250.65 118.097C250.863 117.593 250.032 117.373 249.819 117.87Z" fill="#007F68"/>
<path d="M235.822 127.349C235.822 127.349 235.353 127.292 233.301 125.134C231.248 122.975 233.84 121.349 232.654 118.921C231.468 116.493 233.144 113.297 233.521 110.869C233.752 112.572 234.369 114.199 235.325 115.626C236.873 117.842 237.739 119.844 237.576 122.656C237.461 124.43 237.156 126.187 236.667 127.896" fill="#007F68"/>
<path d="M240.232 131.199C240.232 131.199 239.791 131.028 238.321 128.429C236.851 125.831 239.742 124.879 239.202 122.245C238.662 119.611 241.041 116.913 242 114.641C241.811 116.349 242.015 118.078 242.597 119.696C243.563 122.224 243.91 124.368 243.072 127.059C242.538 128.752 241.824 130.382 240.942 131.923" fill="#007F68"/>
<path d="M246.361 126.704C246.361 126.704 245.963 126.449 245.061 123.608C244.159 120.768 247.192 120.442 247.192 117.729C247.192 115.017 250.082 112.887 251.453 110.863C250.917 112.496 250.761 114.23 250.998 115.933C251.424 118.603 251.332 120.775 249.954 123.239C249.075 124.785 248.032 126.233 246.844 127.556" fill="#007F68"/>
<path d="M89.9653 103.35L55.5004 123.167C54.9189 123.501 54.4473 123.997 54.1434 124.595C53.8394 125.193 53.7162 125.866 53.7888 126.533L58.2204 166.692C58.2498 166.96 58.3453 167.216 58.4985 167.438C58.6517 167.66 58.8576 167.841 59.0978 167.963C59.338 168.086 59.6048 168.146 59.8744 168.14C60.144 168.134 60.4078 168.061 60.6421 167.927L95.8171 147.557C96.3348 147.254 96.7525 146.806 97.0187 146.268C97.285 145.731 97.3882 145.127 97.3156 144.532C95.7816 131.283 94.411 118.751 92.9054 104.912C92.8739 104.584 92.7615 104.268 92.5783 103.994C92.395 103.72 92.1467 103.495 91.8554 103.341C91.5641 103.186 91.239 103.106 90.9092 103.107C90.5793 103.109 90.255 103.192 89.9653 103.35Z" fill="url(#paint7_linear_537_531)"/>
<path d="M148.91 70.8238L114.488 90.6409C113.906 90.9749 113.435 91.4711 113.131 92.0688C112.827 92.6665 112.704 93.3398 112.776 94.0064L117.208 134.201C117.237 134.469 117.333 134.726 117.486 134.948C117.639 135.17 117.845 135.35 118.085 135.472C118.325 135.595 118.592 135.656 118.862 135.65C119.131 135.643 119.395 135.57 119.629 135.437L154.804 115.03C155.322 114.727 155.74 114.28 156.006 113.742C156.272 113.205 156.375 112.601 156.303 112.006C154.769 98.7565 153.398 86.2245 151.893 72.3859C151.864 72.0515 151.752 71.7295 151.567 71.4499C151.381 71.1704 151.128 70.9421 150.83 70.7864C150.533 70.6306 150.201 70.5524 149.865 70.559C149.53 70.5655 149.201 70.6566 148.91 70.8238Z" fill="#68E1FD"/>
<path opacity="0.53" d="M148.91 70.8238L114.488 90.6409C113.906 90.9749 113.435 91.4711 113.131 92.0688C112.827 92.6665 112.704 93.3398 112.776 94.0064L117.208 134.201C117.237 134.469 117.333 134.726 117.486 134.948C117.639 135.17 117.845 135.35 118.085 135.472C118.325 135.595 118.592 135.656 118.862 135.65C119.131 135.643 119.395 135.57 119.629 135.437L154.804 115.03C155.322 114.727 155.74 114.28 156.006 113.742C156.272 113.205 156.375 112.601 156.303 112.006C154.769 98.7565 153.398 86.2245 151.893 72.3859C151.864 72.0515 151.752 71.7295 151.567 71.4499C151.381 71.1704 151.128 70.9421 150.83 70.7864C150.533 70.6306 150.201 70.5524 149.865 70.559C149.53 70.5655 149.201 70.6566 148.91 70.8238Z" fill="#2E2E75"/>
<path d="M139.017 137.105L104.581 156.922C103.999 157.256 103.528 157.753 103.224 158.35C102.92 158.948 102.797 159.621 102.869 160.288L107.301 200.447C107.33 200.715 107.426 200.972 107.579 201.194C107.732 201.415 107.938 201.596 108.178 201.718C108.419 201.841 108.685 201.902 108.955 201.895C109.225 201.889 109.488 201.816 109.723 201.683L144.898 181.312C145.415 181.009 145.833 180.561 146.099 180.023C146.366 179.486 146.469 178.882 146.396 178.287C144.862 165.038 143.492 152.506 141.986 138.667C141.957 138.335 141.844 138.015 141.659 137.737C141.475 137.46 141.223 137.233 140.928 137.077C140.632 136.922 140.303 136.843 139.969 136.848C139.635 136.853 139.308 136.941 139.017 137.105Z" fill="#CC2127"/>
<path d="M134.706 154.756C136.525 157.133 137.711 159.933 138.151 162.893C138.394 164.274 138.503 165.674 138.478 167.075C138.466 172.143 136.85 177.077 133.861 181.17C132.461 183.128 130.632 184.74 128.514 185.884C127.918 186.196 127.301 186.464 126.667 186.686C125.264 187.187 123.77 187.381 122.285 187.254C119.469 186.981 116.872 185.612 115.056 183.442C113.477 181.613 112.33 179.453 111.697 177.122C111.633 176.902 111.562 176.682 111.491 176.462L111.2 175.141C111.2 175.063 111.2 174.992 111.2 174.921C111.1 174.09 110.951 173.267 110.901 172.422C110.581 167.78 111.589 163.143 113.806 159.052C115.202 156.351 117.265 154.051 119.8 152.371L120.29 152.037L121.426 151.44H121.533C121.852 151.313 122.165 151.171 122.491 151.057C124.116 150.44 125.87 150.245 127.59 150.489C130.429 150.927 132.983 152.459 134.706 154.756ZM132.214 166.827C132.431 164.898 132.318 162.946 131.88 161.054C131.636 159.843 131.1 158.709 130.318 157.753C129.775 157.039 129.057 156.478 128.233 156.124C127.409 155.771 126.507 155.637 125.616 155.736L125.105 155.807C124.364 155.939 123.646 156.178 122.974 156.517L122.804 156.602L122.456 156.794C122.184 156.953 121.921 157.126 121.668 157.312L121.447 157.483C120.712 158.064 120.047 158.729 119.466 159.464L119.367 159.585C117.64 161.797 116.707 164.525 116.718 167.331C116.701 168.187 116.784 169.043 116.966 169.88C117.182 170.869 117.582 171.808 118.145 172.649C118.378 173.063 118.713 173.411 119.118 173.66C119.523 173.908 119.985 174.049 120.46 174.069C120.539 174.072 120.617 174.055 120.688 174.019C120.744 173.988 120.793 173.944 120.83 173.892C120.929 173.74 120.976 173.561 120.965 173.38C120.965 172.99 120.965 172.599 120.965 172.209C120.978 172.098 120.978 171.986 120.965 171.875C120.921 171.673 120.801 171.495 120.631 171.378C120.181 171.042 119.834 170.587 119.629 170.065C119.476 169.707 119.357 169.337 119.274 168.957C119.186 168.559 119.127 168.156 119.097 167.75C118.869 165.555 119.428 163.351 120.673 161.53C120.806 161.345 120.938 161.168 121.071 160.997C121.586 160.345 122.214 159.789 122.925 159.357L123.18 159.215C123.6 158.993 124.046 158.826 124.508 158.718C124.768 158.657 125.031 158.615 125.297 158.59C125.919 158.537 126.542 158.671 127.088 158.975C127.633 159.278 128.075 159.738 128.357 160.295C128.709 160.901 128.961 161.56 129.103 162.247C129.141 162.413 129.177 162.581 129.21 162.751C129.425 163.862 129.528 164.992 129.515 166.124C129.519 167.286 129.329 168.44 128.954 169.539C128.856 169.81 128.74 170.073 128.606 170.327C128.344 170.865 127.942 171.321 127.441 171.648L127.299 171.726H127.228H127.157L127.015 171.783C126.731 171.904 126.413 171.926 126.115 171.843C125.817 171.76 125.556 171.579 125.375 171.328C125.178 171.079 125.042 170.787 124.977 170.476C124.918 170.208 124.889 169.934 124.892 169.66C124.892 168.467 124.892 167.267 124.892 166.067C124.909 165.455 124.859 164.843 124.743 164.242C124.743 164.157 124.721 164.074 124.679 163.994C124.634 163.747 124.538 163.512 124.397 163.305C124.257 163.097 124.074 162.92 123.862 162.787C123.71 162.715 123.544 162.678 123.376 162.678C123.207 162.678 123.041 162.715 122.889 162.787L122.747 162.851C122.614 162.921 122.491 163.007 122.378 163.106C122.254 163.215 122.142 163.336 122.044 163.468C121.57 164.142 121.301 164.939 121.27 165.762C121.219 166.433 121.267 167.107 121.412 167.764C121.567 168.448 121.831 169.102 122.193 169.702C122.222 169.751 122.243 169.804 122.257 169.859C122.261 169.894 122.261 169.93 122.257 169.965C122.342 172.095 122.406 174.225 122.484 176.32C122.484 177.25 122.534 178.187 122.612 179.11C122.672 179.782 122.777 180.448 122.925 181.106C123.136 182.03 123.404 182.94 123.727 183.832C123.74 183.869 123.762 183.901 123.79 183.927C123.819 183.953 123.853 183.972 123.89 183.981C123.911 183.988 123.934 183.988 123.954 183.981C123.985 183.963 124.01 183.936 124.025 183.903C124.046 183.862 124.063 183.819 124.075 183.775C124.153 183.484 124.238 183.2 124.309 182.909C124.714 181.488 124.953 180.025 125.02 178.549C125.02 177.421 125.02 176.299 124.977 175.184C124.977 174.715 124.977 174.247 124.977 173.764C125.111 173.878 125.251 173.985 125.396 174.083C125.707 174.274 126.056 174.393 126.419 174.431C126.781 174.469 127.148 174.425 127.491 174.303L127.867 174.169L128.244 173.991L128.329 173.948C129.234 173.427 130.001 172.696 130.566 171.818C131.526 170.322 132.115 168.618 132.285 166.848" fill="#CC2127"/>
<path d="M122.811 156.603L122.981 156.518C123.653 156.179 124.371 155.94 125.112 155.808L125.623 155.737C126.514 155.638 127.416 155.771 128.24 156.125C129.064 156.478 129.782 157.039 130.324 157.753C131.107 158.71 131.643 159.843 131.887 161.055C132.325 162.946 132.438 164.898 132.221 166.828C132.051 168.597 131.461 170.301 130.502 171.798C129.937 172.676 129.17 173.406 128.265 173.928L128.18 173.97L127.803 174.148L127.427 174.283C127.083 174.405 126.717 174.448 126.354 174.41C125.992 174.372 125.643 174.253 125.332 174.063C125.186 173.964 125.047 173.857 124.913 173.743C124.913 174.212 124.913 174.68 124.913 175.163C124.913 176.278 124.977 177.407 124.956 178.529C124.888 180.005 124.65 181.468 124.245 182.888C124.174 183.18 124.089 183.464 124.011 183.755C123.999 183.799 123.982 183.842 123.961 183.883C123.946 183.915 123.921 183.942 123.89 183.961C123.87 183.968 123.847 183.968 123.826 183.961C123.789 183.951 123.754 183.933 123.726 183.907C123.697 183.881 123.676 183.848 123.663 183.812C123.34 182.92 123.072 182.009 122.86 181.085C122.713 180.428 122.608 179.761 122.548 179.09C122.47 178.174 122.456 177.237 122.42 176.299C122.342 174.169 122.271 172.039 122.193 169.945C122.197 169.909 122.197 169.873 122.193 169.838C122.179 169.783 122.158 169.731 122.129 169.682C121.767 169.082 121.503 168.427 121.348 167.743C121.203 167.087 121.155 166.412 121.206 165.741C121.237 164.918 121.505 164.121 121.98 163.448C122.078 163.316 122.19 163.194 122.314 163.086C122.426 162.986 122.55 162.901 122.683 162.83L122.825 162.766C122.977 162.695 123.143 162.658 123.311 162.658C123.48 162.658 123.646 162.695 123.798 162.766C124.01 162.9 124.193 163.076 124.333 163.284C124.474 163.492 124.57 163.726 124.615 163.973C124.615 164.054 124.636 164.137 124.679 164.222C124.795 164.823 124.845 165.435 124.828 166.047C124.828 167.246 124.828 168.446 124.828 169.639C124.825 169.914 124.853 170.188 124.913 170.456C124.978 170.767 125.114 171.058 125.311 171.308C125.492 171.558 125.753 171.74 126.051 171.822C126.349 171.905 126.667 171.884 126.951 171.762L127.093 171.705H127.164H127.235L127.377 171.627C127.878 171.3 128.28 170.844 128.542 170.307C128.676 170.052 128.792 169.789 128.89 169.519C129.265 168.419 129.455 167.265 129.451 166.103C129.464 164.972 129.361 163.842 129.146 162.731C129.112 162.56 129.077 162.392 129.039 162.227C128.897 161.54 128.645 160.881 128.293 160.274C128.011 159.717 127.569 159.258 127.024 158.954C126.478 158.65 125.854 158.517 125.232 158.57C124.967 158.594 124.704 158.637 124.444 158.698C123.982 158.806 123.536 158.973 123.116 159.195L122.86 159.337C122.15 159.769 121.522 160.324 121.007 160.977C120.87 161.147 120.737 161.325 120.609 161.509C119.364 163.331 118.805 165.535 119.033 167.729C119.062 168.135 119.122 168.539 119.21 168.936C119.293 169.316 119.412 169.687 119.565 170.044C119.77 170.567 120.117 171.022 120.567 171.358C120.737 171.474 120.857 171.652 120.9 171.855C120.914 171.965 120.914 172.077 120.9 172.188C120.9 172.579 120.9 172.969 120.9 173.36C120.912 173.54 120.864 173.72 120.765 173.871C120.728 173.924 120.68 173.968 120.623 173.999C120.553 174.035 120.475 174.052 120.396 174.049C119.921 174.029 119.459 173.888 119.054 173.639C118.649 173.391 118.314 173.043 118.081 172.628C117.518 171.787 117.118 170.848 116.902 169.859C116.72 169.022 116.636 168.167 116.654 167.31C116.643 164.504 117.576 161.776 119.302 159.564L119.402 159.443C119.983 158.708 120.648 158.043 121.383 157.462L121.603 157.292C121.857 157.106 122.12 156.933 122.392 156.773L122.811 156.603Z" fill="white"/>
<path d="M74.8952 129.941C77.388 128.727 79.6818 130.424 80.044 133.74C80.4062 137.056 78.6876 140.698 76.2375 141.898C73.7661 143.084 71.458 141.344 71.11 138.029C70.762 134.713 72.4451 131.162 74.8952 129.941ZM75.9818 139.342C77.4022 138.632 78.3751 136.502 78.155 134.613C77.9348 132.725 76.5926 131.773 75.1793 132.483C73.7661 133.193 72.7789 135.323 72.9778 137.191C73.1766 139.058 74.5117 140.095 75.9534 139.392" fill="white"/>
<path d="M79.625 126.277C80.1789 126.007 80.7044 126.369 80.8038 127.107C80.8547 127.478 80.7997 127.855 80.6451 128.196C80.4906 128.536 80.2427 128.826 79.9303 129.031C79.348 129.316 78.8296 128.904 78.7514 128.108C78.7067 127.752 78.7652 127.389 78.92 127.065C79.0748 126.74 79.3195 126.467 79.625 126.277Z" fill="white"/>
<path d="M83.9218 125.519C84.4687 129.232 84.9161 133.024 85.193 136.879C85.4771 140.87 83.7727 144.207 80.7899 145.776C80.2857 146.046 79.7886 146.294 79.2844 146.543L76.9266 147.693L74.6611 148.815L73.2408 149.525C70.1728 150.945 67.8576 149.653 67.2114 145.698C66.599 141.935 66.1771 138.143 65.9472 134.337C65.7058 130.61 67.0693 127.833 69.8745 126.044C71.3142 125.109 72.8056 124.255 74.3415 123.488C75.8568 122.742 77.426 122.111 79.0358 121.599C81.5711 120.797 83.4318 122.203 83.9218 125.519ZM83.2827 137.248C82.9702 133.862 82.608 130.503 82.1677 127.187C81.7913 124.347 80.6337 123.545 78.4748 124.447C77.9705 124.66 77.4663 124.894 76.9621 125.157C76.1525 125.547 75.35 125.973 74.5475 126.364L72.5093 127.336C71.9198 127.628 71.3233 127.919 70.7338 128.231C70.2658 128.489 69.8316 128.804 69.4413 129.168C68.8701 129.668 68.4255 130.296 68.144 131.001C67.8625 131.706 67.7522 132.467 67.8221 133.223C68.1819 137.156 68.6151 141.052 69.1217 144.91C69.3348 146.514 70.2438 147.217 71.4937 147.04C72.0948 146.954 72.6792 146.777 73.2266 146.514C74.2681 146.041 75.3097 145.539 76.3513 145.009L79.9022 143.255C80.2809 143.061 80.6441 142.838 80.9888 142.588C82.7429 141.331 83.4815 139.705 83.2543 137.27" fill="white"/>
<path d="M196.535 99.6579L162.098 119.475C161.517 119.809 161.045 120.305 160.741 120.903C160.437 121.501 160.314 122.174 160.387 122.84L164.818 163C164.847 163.268 164.943 163.524 165.096 163.746C165.249 163.968 165.455 164.148 165.695 164.271C165.936 164.394 166.202 164.454 166.472 164.448C166.742 164.442 167.005 164.369 167.24 164.235L202.415 143.865C202.932 143.561 203.35 143.114 203.616 142.576C203.883 142.039 203.986 141.435 203.913 140.84C202.379 127.591 201.009 115.059 199.503 101.22C199.474 100.888 199.361 100.568 199.177 100.29C198.992 100.012 198.74 99.7854 198.445 99.63C198.149 99.4746 197.82 99.3957 197.486 99.4006C197.152 99.4055 196.825 99.494 196.535 99.6579Z" fill="#68E1FD"/>
<path d="M189.341 122.962C189.18 123.497 188.993 124.023 188.78 124.538C188.609 124.943 188.396 125.312 188.211 125.703C188.168 125.798 188.146 125.903 188.147 126.008C188.479 129.164 188.051 132.353 186.898 135.309C186.104 137.585 184.777 139.638 183.027 141.295C182.408 141.867 181.727 142.367 180.996 142.786C180.32 143.205 179.567 143.484 178.781 143.606C177.996 143.728 177.193 143.691 176.422 143.496H176.344C176.56 143.403 176.771 143.299 176.976 143.184C178.475 142.271 179.686 140.955 180.47 139.385C179.114 139.974 178.12 139.541 177.438 138.057C177.642 137.971 177.839 137.869 178.027 137.752C178.287 137.616 178.526 137.444 178.738 137.241C178.487 137.263 178.235 137.263 177.985 137.241C177.732 137.193 177.491 137.097 177.275 136.957C177.042 136.795 176.84 136.593 176.678 136.36C176.501 136.104 176.36 135.824 176.259 135.53C176.153 135.189 176.077 134.84 176.032 134.486C176.503 134.526 176.977 134.429 177.395 134.209C176.96 134.006 176.585 133.693 176.309 133.301C176.032 132.908 175.863 132.45 175.819 131.972C175.654 131.068 175.698 130.138 175.947 129.253C177.793 130.964 179.952 131.276 182.423 130.14C182.381 129.906 182.331 129.693 182.303 129.48C182.085 127.867 182.461 126.229 183.361 124.872C183.71 124.289 184.198 123.801 184.781 123.452C185.098 123.246 185.468 123.136 185.846 123.136C186.225 123.136 186.595 123.246 186.912 123.452C186.949 123.478 186.994 123.493 187.04 123.493C187.085 123.493 187.13 123.478 187.167 123.452L187.274 123.367C187.867 122.804 188.393 122.175 188.843 121.492C188.718 122.525 188.387 123.522 187.87 124.425C188.034 124.283 188.204 124.148 188.375 123.999C188.545 123.849 188.723 123.665 188.893 123.487C189.064 123.31 189.184 123.147 189.341 122.962Z" fill="white"/>
<path d="M135.062 91.8632L135.807 91.5011L136.432 91.1958L136.745 91.0395C136.922 90.9543 136.993 91.0395 137.015 91.3094C137.086 92.275 137.15 93.2336 137.221 94.1992C137.221 94.4761 137.171 94.6181 137 94.7033L136.368 95.0086L135.758 95.3139C135.511 95.4585 135.317 95.6769 135.202 95.9383C135.088 96.1996 135.058 96.4905 135.118 96.7695L135.261 98.8073L135.495 98.7079L137.157 97.8985C137.398 97.7849 137.455 97.8346 137.462 98.218C137.462 99.2049 137.462 100.192 137.505 101.179C137.505 101.434 137.434 101.562 137.285 101.633L135.779 102.343L135.53 102.464V102.883L136.241 112.625C136.241 113.079 136.241 113.122 135.964 113.264L133.727 114.357C133.442 114.492 133.414 114.464 133.379 114.016C133.147 110.783 132.91 107.545 132.668 104.303V103.856L131.575 104.388C131.269 104.537 131.241 104.509 131.205 104.054L131.014 101.321C131.014 100.937 131.014 100.866 131.269 100.739L132.406 100.185C132.406 100.043 132.406 99.9221 132.406 99.8014C132.335 98.7931 132.235 97.7991 132.214 96.7766C132.171 94.8737 133.116 92.843 134.344 92.2111L135.062 91.8632Z" fill="white"/>
<defs>
<linearGradient id="paint0_linear_537_531" x1="298.826" y1="154.612" x2="287.754" y2="135.718" gradientUnits="userSpaceOnUse">
<stop stop-color="white"/>
<stop offset="0.99" stop-color="#29ABE2"/>
</linearGradient>
<linearGradient id="paint1_linear_537_531" x1="260.742" y1="132.638" x2="249.735" y2="113.847" gradientUnits="userSpaceOnUse">
<stop stop-color="white"/>
<stop offset="0.99" stop-color="#999999"/>
</linearGradient>
<linearGradient id="paint2_linear_537_531" x1="166.7" y1="156.1" x2="158.315" y2="165.58" gradientUnits="userSpaceOnUse">
<stop stop-color="#163B58"/>
<stop offset="1" stop-color="#225870"/>
</linearGradient>
<linearGradient id="paint3_linear_537_531" x1="8491.97" y1="4398.53" x2="8208.48" y2="4995.35" gradientUnits="userSpaceOnUse">
<stop stop-color="#163B58"/>
<stop offset="1" stop-color="#225870"/>
</linearGradient>
<linearGradient id="paint4_linear_537_531" x1="3582.62" y1="5745.86" x2="2847.92" y2="6318.67" gradientUnits="userSpaceOnUse">
<stop stop-color="#163B58"/>
<stop offset="1" stop-color="#225870"/>
</linearGradient>
<linearGradient id="paint5_linear_537_531" x1="7665.96" y1="7172.56" x2="6931.27" y2="7745.36" gradientUnits="userSpaceOnUse">
<stop stop-color="#163B58"/>
<stop offset="1" stop-color="#225870"/>
</linearGradient>
<linearGradient id="paint6_linear_537_531" x1="11910.7" y1="5331.44" x2="11099" y2="6034.11" gradientUnits="userSpaceOnUse">
<stop stop-color="#163B58"/>
<stop offset="1" stop-color="#225870"/>
</linearGradient>
<linearGradient id="paint7_linear_537_531" x1="69.0932" y1="156.744" x2="83.7884" y2="108.418" gradientUnits="userSpaceOnUse">
<stop stop-color="#FFDB7B"/>
<stop offset="0.23" stop-color="#DA2E81"/>
<stop offset="0.59" stop-color="#9736BB"/>
<stop offset="1" stop-color="#4E62D4"/>
</linearGradient>
<clipPath id="clip0_537_531">
<rect width="190.059" height="205.904" fill="white" transform="translate(190.941)"/>
</clipPath>
</defs>
</svg>
