<svg width="310" height="234" viewBox="0 0 310 234" fill="none" xmlns="http://www.w3.org/2000/svg">
<path d="M150.893 216.05L22.8595 140.474C18.7804 138.159 15.2885 134.433 19.2594 131.988L147.757 58.0159C149.688 56.8202 152.616 56.0411 154.571 57.1751L288.993 135.089C293.072 137.45 293.798 144.061 289.719 146.421L167.773 215.904C165.216 217.394 162.314 218.192 159.353 218.218C156.392 218.243 153.476 217.496 150.893 216.05Z" fill="#FFD4BF"/>
<path opacity="0.32" d="M90.7815 165.444C93.215 166.216 97.4949 171.168 99.9902 171.669C101.535 171.978 142.38 199.063 143.925 199.179L181.161 175.727L132.932 151.875L119.427 139.732L86.687 158.602C90.7197 161.541 86.0767 164.009 90.7815 165.444Z" fill="url(#paint0_linear_420_535)"/>
<path d="M107.229 150.332L164.088 183.117C164.738 183.493 165.477 183.691 166.228 183.691C166.979 183.691 167.718 183.493 168.368 183.117L255.101 133.106C255.464 132.905 255.766 132.612 255.976 132.256C256.186 131.9 256.297 131.494 256.297 131.081C256.297 130.667 256.186 130.261 255.976 129.905C255.766 129.549 255.464 129.256 255.101 129.056L197.222 95.73C196.87 95.5269 196.47 95.4199 196.064 95.4199C195.657 95.4199 195.257 95.5269 194.905 95.73L107.229 146.266C106.863 146.465 106.557 146.759 106.344 147.117C106.131 147.474 106.019 147.883 106.019 148.299C106.019 148.715 106.131 149.123 106.344 149.481C106.557 149.839 106.863 150.133 107.229 150.332Z" fill="#AB2F6E"/>
<path d="M109.214 135.574V146.521L167.109 179.9L252.668 128.87V119.613" fill="#B3B3B3"/>
<path d="M109.214 135.575L167.109 168.947L252.668 119.614L194.727 86.25L109.214 135.575Z" fill="#F2F2F2"/>
<path d="M248.388 114.624C246.364 114.492 245.136 116.398 245.483 118.249C245.576 118.735 246.318 118.527 246.256 118.041C246.18 117.739 246.17 117.425 246.228 117.119C246.286 116.813 246.411 116.524 246.592 116.271C246.774 116.019 247.009 115.809 247.28 115.656C247.552 115.503 247.854 115.412 248.164 115.387C248.466 115.374 248.766 115.44 249.034 115.579C249.301 115.718 249.528 115.925 249.691 116.179C249.854 116.433 249.947 116.725 249.961 117.026C249.975 117.327 249.909 117.626 249.771 117.894C249.547 118.334 250.211 118.728 250.435 118.28C250.631 117.912 250.732 117.501 250.727 117.084C250.723 116.667 250.614 116.258 250.41 115.894C250.207 115.531 249.915 115.224 249.561 115.002C249.208 114.78 248.805 114.65 248.388 114.624Z" fill="#431700"/>
<path d="M238.731 109.145C236.707 109.014 235.479 110.919 235.827 112.771C235.919 113.257 236.661 113.048 236.599 112.562C236.523 112.261 236.513 111.946 236.572 111.641C236.63 111.335 236.754 111.046 236.936 110.793C237.117 110.54 237.352 110.33 237.624 110.177C237.895 110.025 238.197 109.933 238.507 109.909C238.809 109.896 239.109 109.962 239.377 110.101C239.645 110.239 239.871 110.446 240.034 110.7C240.197 110.954 240.29 111.246 240.304 111.547C240.318 111.848 240.253 112.148 240.114 112.416C239.89 112.856 240.555 113.249 240.779 112.802C240.975 112.434 241.075 112.022 241.071 111.606C241.066 111.189 240.957 110.78 240.753 110.416C240.55 110.052 240.258 109.745 239.905 109.523C239.551 109.301 239.148 109.171 238.731 109.145Z" fill="#431700"/>
<path d="M228.642 102.92C226.618 102.789 225.39 104.695 225.737 106.546C225.83 107.032 226.572 106.824 226.51 106.338C226.434 106.036 226.424 105.722 226.482 105.416C226.54 105.11 226.665 104.821 226.846 104.568C227.028 104.316 227.263 104.105 227.534 103.953C227.806 103.8 228.107 103.708 228.418 103.684C228.72 103.671 229.019 103.737 229.287 103.876C229.555 104.015 229.782 104.222 229.945 104.475C230.108 104.729 230.201 105.022 230.215 105.323C230.229 105.624 230.163 105.923 230.025 106.191C229.801 106.631 230.465 107.024 230.689 106.577C230.885 106.209 230.986 105.798 230.981 105.381C230.977 104.964 230.868 104.555 230.664 104.191C230.46 103.828 230.169 103.521 229.815 103.299C229.462 103.077 229.059 102.947 228.642 102.92Z" fill="#431700"/>
<path d="M219.734 97.4439C217.71 97.3128 216.482 99.2182 216.83 101.07C216.922 101.556 217.664 101.347 217.602 100.861C217.526 100.56 217.516 100.245 217.575 99.9394C217.633 99.6337 217.757 99.3444 217.939 99.0917C218.12 98.8389 218.355 98.6289 218.627 98.4762C218.898 98.3235 219.2 98.2318 219.51 98.2076C219.812 98.1944 220.112 98.2605 220.38 98.3994C220.648 98.5382 220.874 98.745 221.037 98.9989C221.2 99.2528 221.293 99.545 221.307 99.8461C221.321 100.147 221.256 100.447 221.117 100.715C220.893 101.154 221.558 101.548 221.782 101.1C221.978 100.732 222.078 100.321 222.074 99.9044C222.069 99.4876 221.96 99.0786 221.756 98.7148C221.553 98.351 221.261 98.044 220.908 97.822C220.554 97.6 220.151 97.47 219.734 97.4439Z" fill="#431700"/>
<path d="M211.545 93.4556C209.521 93.3245 208.293 95.2299 208.641 97.0813C208.733 97.5673 209.475 97.359 209.413 96.873C209.337 96.5714 209.327 96.2567 209.386 95.9511C209.444 95.6454 209.568 95.3561 209.75 95.1034C209.931 94.8507 210.166 94.6406 210.438 94.4879C210.709 94.3352 211.011 94.2436 211.321 94.2193C211.623 94.2061 211.923 94.2722 212.191 94.4111C212.459 94.55 212.685 94.7567 212.848 95.0106C213.011 95.2645 213.104 95.5567 213.118 95.8579C213.132 96.159 213.067 96.4585 212.928 96.7265C212.704 97.1662 213.369 97.5596 213.593 97.1122C213.789 96.7442 213.889 96.3329 213.885 95.9162C213.88 95.4994 213.771 95.0903 213.567 94.7265C213.364 94.3627 213.072 94.0558 212.719 93.8337C212.365 93.6117 211.962 93.4817 211.545 93.4556Z" fill="#431700"/>
<path d="M201.842 87.2603C199.818 87.1292 198.59 89.0346 198.938 90.886C199.03 91.372 199.772 91.1637 199.71 90.6777C199.634 90.3761 199.624 90.0614 199.682 89.7558C199.741 89.4501 199.865 89.1608 200.047 88.9081C200.228 88.6554 200.463 88.4453 200.735 88.2926C201.006 88.1399 201.308 88.0482 201.618 88.024C201.92 88.0108 202.22 88.0769 202.488 88.2158C202.756 88.3546 202.982 88.5614 203.145 88.8153C203.308 89.0692 203.401 89.3614 203.415 89.6625C203.429 89.9637 203.364 90.2632 203.225 90.5312C203.001 90.9709 203.665 91.3643 203.89 90.9169C204.085 90.5489 204.186 90.1376 204.181 89.7208C204.177 89.3041 204.068 88.895 203.864 88.5312C203.661 88.1674 203.369 87.8604 203.016 87.6384C202.662 87.4164 202.259 87.2864 201.842 87.2603Z" fill="#431700"/>
<path d="M245.491 119.459C246.631 119.459 247.554 118.917 247.554 118.248C247.554 117.579 246.631 117.037 245.491 117.037C244.352 117.037 243.429 117.579 243.429 118.248C243.429 118.917 244.352 119.459 245.491 119.459Z" fill="#2D0F02"/>
<path d="M235.773 114.26C236.912 114.26 237.835 113.718 237.835 113.049C237.835 112.38 236.912 111.838 235.773 111.838C234.633 111.838 233.71 112.38 233.71 113.049C233.71 113.718 234.633 114.26 235.773 114.26Z" fill="#2D0F02"/>
<path d="M225.676 108.036C226.815 108.036 227.738 107.493 227.738 106.824C227.738 106.156 226.815 105.613 225.676 105.613C224.536 105.613 223.613 106.156 223.613 106.824C223.613 107.493 224.536 108.036 225.676 108.036Z" fill="#2D0F02"/>
<path d="M216.768 102.557C217.907 102.557 218.83 102.015 218.83 101.346C218.83 100.677 217.907 100.135 216.768 100.135C215.629 100.135 214.705 100.677 214.705 101.346C214.705 102.015 215.629 102.557 216.768 102.557Z" fill="#2D0F02"/>
<path d="M208.579 98.2914C209.718 98.2914 210.642 97.7492 210.642 97.0803C210.642 96.4114 209.718 95.8691 208.579 95.8691C207.44 95.8691 206.517 96.4114 206.517 97.0803C206.517 97.7492 207.44 98.2914 208.579 98.2914Z" fill="#2D0F02"/>
<path d="M198.884 92.3754C200.023 92.3754 200.946 91.8332 200.946 91.1643C200.946 90.4954 200.023 89.9531 198.884 89.9531C197.744 89.9531 196.821 90.4954 196.821 91.1643C196.821 91.8332 197.744 92.3754 198.884 92.3754Z" fill="#2D0F02"/>
<path d="M182.591 99.4807L229.67 126.751C229.803 126.828 229.961 126.85 230.111 126.811C230.26 126.772 230.388 126.675 230.465 126.542C230.543 126.409 230.565 126.251 230.526 126.102C230.487 125.953 230.39 125.826 230.257 125.748L183.178 98.4778C183.112 98.4393 183.039 98.4142 182.963 98.4038C182.888 98.3935 182.811 98.3981 182.737 98.4174C182.663 98.4368 182.594 98.4704 182.533 98.5166C182.472 98.5627 182.421 98.6203 182.382 98.6861C182.344 98.752 182.319 98.8248 182.308 98.9003C182.298 98.9759 182.302 99.0528 182.322 99.1265C182.341 99.2003 182.375 99.2696 182.421 99.3303C182.467 99.3911 182.525 99.4422 182.591 99.4807Z" fill="#999999"/>
<path d="M175.753 103.584L222.832 130.854C222.965 130.932 223.124 130.954 223.273 130.915C223.423 130.875 223.55 130.779 223.628 130.646C223.706 130.513 223.728 130.354 223.689 130.205C223.649 130.056 223.553 129.929 223.419 129.851L176.341 102.581C176.207 102.504 176.049 102.482 175.9 102.521C175.75 102.56 175.623 102.657 175.545 102.79C175.467 102.923 175.445 103.081 175.484 103.23C175.523 103.379 175.62 103.506 175.753 103.584Z" fill="#999999"/>
<path d="M169.473 106.406L216.552 133.676C216.685 133.754 216.843 133.776 216.993 133.737C217.142 133.698 217.269 133.601 217.347 133.468C217.425 133.335 217.447 133.177 217.408 133.028C217.369 132.879 217.272 132.751 217.139 132.674L170.06 105.404C169.927 105.326 169.768 105.304 169.619 105.343C169.47 105.382 169.342 105.479 169.264 105.612C169.186 105.745 169.164 105.903 169.204 106.052C169.243 106.201 169.339 106.329 169.473 106.406Z" fill="#999999"/>
<path d="M162.636 110.52L209.715 137.79C209.848 137.867 210.006 137.889 210.156 137.85C210.305 137.811 210.432 137.714 210.51 137.581C210.588 137.448 210.61 137.29 210.571 137.141C210.532 136.992 210.435 136.865 210.302 136.787L163.223 109.517C163.157 109.478 163.084 109.453 163.008 109.443C162.933 109.433 162.856 109.437 162.782 109.456C162.708 109.476 162.639 109.51 162.578 109.556C162.517 109.602 162.466 109.659 162.427 109.725C162.389 109.791 162.363 109.864 162.353 109.939C162.343 110.015 162.347 110.092 162.367 110.166C162.386 110.239 162.42 110.309 162.466 110.369C162.512 110.43 162.57 110.481 162.636 110.52Z" fill="#999999"/>
<path d="M150.46 118.635L197.539 145.905C197.605 145.943 197.678 145.969 197.754 145.979C197.83 145.989 197.906 145.985 197.98 145.965C198.054 145.946 198.124 145.912 198.184 145.866C198.245 145.82 198.297 145.762 198.335 145.697C198.374 145.631 198.399 145.558 198.409 145.482C198.42 145.407 198.415 145.33 198.396 145.256C198.376 145.182 198.342 145.113 198.296 145.052C198.25 144.992 198.192 144.941 198.126 144.902L151.048 117.632C150.914 117.554 150.756 117.533 150.607 117.572C150.457 117.611 150.33 117.707 150.252 117.84C150.174 117.973 150.152 118.132 150.191 118.281C150.23 118.43 150.327 118.557 150.46 118.635Z" fill="#999999"/>
<path d="M143.631 122.739L190.71 150.008C190.843 150.086 191.002 150.108 191.151 150.069C191.301 150.03 191.428 149.933 191.506 149.8C191.584 149.667 191.606 149.509 191.566 149.36C191.527 149.211 191.431 149.083 191.297 149.006L144.219 121.736C144.085 121.658 143.927 121.636 143.777 121.675C143.628 121.714 143.501 121.811 143.423 121.944C143.345 122.077 143.323 122.235 143.362 122.384C143.401 122.533 143.498 122.661 143.631 122.739Z" fill="#999999"/>
<path d="M137.343 125.563L184.422 152.833C184.555 152.91 184.713 152.932 184.863 152.893C185.012 152.854 185.139 152.757 185.217 152.624C185.295 152.491 185.317 152.333 185.278 152.184C185.239 152.035 185.142 151.908 185.009 151.83L137.969 124.56C137.835 124.482 137.677 124.46 137.527 124.499C137.378 124.539 137.251 124.635 137.173 124.768C137.095 124.901 137.073 125.06 137.112 125.209C137.151 125.358 137.248 125.485 137.381 125.563H137.343Z" fill="#999999"/>
<path d="M132.244 128.864L179.323 156.133C179.456 156.211 179.615 156.233 179.764 156.194C179.913 156.155 180.041 156.058 180.119 155.925C180.197 155.792 180.218 155.634 180.179 155.485C180.14 155.336 180.043 155.208 179.91 155.131L132.831 127.861C132.698 127.783 132.539 127.761 132.39 127.8C132.241 127.839 132.113 127.936 132.036 128.069C131.958 128.202 131.936 128.36 131.975 128.509C132.014 128.658 132.111 128.786 132.244 128.864Z" fill="#999999"/>
<path opacity="0.32" d="M123.244 99.8344C125.677 100.606 128.119 101.308 130.622 101.809C132.154 102.082 133.702 102.26 135.257 102.341L137.853 100.583L155.814 87.2447L142.078 82.6855L109.562 94.0178C113.579 96.9415 118.539 98.3995 123.244 99.8344Z" fill="url(#paint1_linear_420_535)"/>
<path d="M148.614 72.7506C145.377 72.4729 141.962 71.4932 139.567 69.2792V78.8757C139.568 80.1842 139.828 81.4797 140.33 82.6881C140.833 83.8965 141.569 84.9942 142.497 85.9184C143.424 86.8425 144.525 87.5751 145.737 88.0742C146.948 88.5733 148.246 88.8292 149.556 88.8271C150.866 88.8271 152.163 88.5695 153.373 88.069C154.583 87.5685 155.683 86.835 156.609 85.9102C157.535 84.9854 158.27 83.8875 158.771 82.6792C159.272 81.4709 159.53 80.1759 159.53 78.868V69.1172C156.108 70.498 152.245 73.0669 148.614 72.7506Z" fill="#68E1FD"/>
<path d="M149.534 74.4926C155.042 74.4926 159.507 72.1302 159.507 69.216C159.507 66.3018 155.042 63.9395 149.534 63.9395C144.025 63.9395 139.56 66.3018 139.56 69.216C139.56 72.1302 144.025 74.4926 149.534 74.4926Z" fill="#5ED18D"/>
<path d="M149.557 70.1037C149.557 70.1037 142.774 69.1086 140.982 58.1543C140.958 58.162 146.745 61.348 149.557 70.1037Z" fill="#5ED18D"/>
<path d="M150.53 68.7151C150.53 68.7151 142.75 54.7754 150.53 45.418C152.904 53.0028 152.904 61.1303 150.53 68.7151Z" fill="#5ED18D"/>
<path d="M149.557 59.9514C149.557 59.9514 142.774 58.9562 140.982 48.002C140.958 48.0097 146.745 51.1957 149.557 59.9514Z" fill="#5ED18D"/>
<path d="M150.329 64.4188C150.329 64.4188 148.63 57.7922 158.055 51.9062C158.055 51.9062 157.375 58.4634 150.329 64.4188Z" fill="#5ED18D"/>
<path d="M149.534 74.4926C155.042 74.4926 159.507 72.1302 159.507 69.216C159.507 66.3018 155.042 63.9395 149.534 63.9395C144.025 63.9395 139.56 66.3018 139.56 69.216C139.56 72.1302 144.025 74.4926 149.534 74.4926Z" fill="#146666"/>
<path d="M149.557 70.1037C149.557 70.1037 142.774 69.1086 140.982 58.1543C140.958 58.162 146.745 61.348 149.557 70.1037Z" fill="#5ED18D"/>
<path d="M150.53 68.7151C150.53 68.7151 142.75 54.7754 150.53 45.418C152.904 53.0028 152.904 61.1303 150.53 68.7151Z" fill="#5ED18D"/>
<path d="M149.557 59.9514C149.557 59.9514 142.774 58.9562 140.982 48.002C140.958 48.0097 146.745 51.1957 149.557 59.9514Z" fill="#5ED18D"/>
<path d="M150.329 64.4188C150.329 64.4188 148.63 57.7922 158.055 51.9062C158.055 51.9062 157.375 58.4634 150.329 64.4188Z" fill="#5ED18D"/>
<path d="M199.772 121.698L197.563 120.51C197.81 119.9 197.114 119.484 196.612 119.561L193.445 117.17C193.613 117.063 193.733 116.895 193.781 116.702C193.828 116.509 193.799 116.305 193.699 116.133C193.6 115.96 193.437 115.833 193.246 115.778C193.054 115.722 192.849 115.743 192.672 115.835L189.683 115.249L189.845 115.164C190.617 114.74 190.092 113.467 189.25 113.752L189.065 113.837H189.018C188.909 113.886 188.803 113.943 188.701 114.007C187.367 114.753 185.858 115.131 184.329 115.102C186.113 113.876 187.079 112.549 184.468 110.628L184.236 110.474C185.894 108.82 187.067 106.744 187.628 104.472C189.845 94.8908 174.989 100.931 171.597 103.315C170.825 103.878 171.597 105.22 172.37 104.649C174.396 103.167 176.673 102.059 179.091 101.378C180.335 101.047 182.181 100.337 183.332 100.746C183.826 100.92 184.277 101.197 184.655 101.557C185.034 101.918 185.333 102.354 185.531 102.837C185.73 103.321 185.823 103.841 185.807 104.363C185.79 104.885 185.663 105.398 185.434 105.868C184.716 107.273 183.768 108.548 182.629 109.64C179.755 108.545 176.271 109.016 173.359 109.64C170.74 110.188 163.486 111.338 162.45 114.516C161.678 116.954 164.359 117.494 166.143 117.517C171.93 117.485 177.559 115.636 182.235 112.232C182.235 112.34 182.282 112.448 182.289 112.572C183.422 113.801 183.206 114.588 181.64 114.932C181.509 115.009 181.402 115.122 181.335 115.259C181.268 115.396 181.242 115.549 181.262 115.7C181.282 115.851 181.346 115.993 181.446 116.107C181.547 116.222 181.679 116.304 181.826 116.344C183.774 116.824 185.819 116.738 187.72 116.097C187.754 116.309 187.814 116.517 187.898 116.714C188.539 118.211 189.922 118.319 191.274 117.98C191.238 118.537 191.376 119.092 191.668 119.569C192.549 121.073 194.21 121.281 195.786 121.166C195.739 123.102 198.312 123.48 200.143 123.164C201.17 123.032 200.753 121.544 199.772 121.698ZM166.846 115.989C165.6 116.452 165.136 116.1 165.456 114.932C165.09 113.966 165.443 113.451 166.514 113.39C167.41 112.703 168.955 112.433 170.045 112.094C172.363 111.322 174.764 110.822 177.198 110.605C177.99 110.544 178.786 110.544 179.578 110.605C180.171 110.463 180.796 110.528 181.347 110.79C179.13 112.517 176.624 113.838 173.946 114.693C171.96 115.357 168.924 116.46 166.854 115.982L166.846 115.989Z" fill="#431700"/>
<path d="M96.1352 25.9082C96.1352 25.9082 87.3514 30.4056 83.2724 32.5116C79.1933 34.6176 67.1571 38.4439 67.0489 43.1573C66.9408 47.8707 71.1203 49.4059 68.8567 52.9699C66.5931 56.5338 67.3116 63.1141 72.7194 64.4178C78.1272 65.7215 98.0666 42.9567 98.0666 42.9567" fill="#663A12"/>
<path d="M82.3452 132.289C82.3452 132.289 82.2215 138.53 82.9709 138.908C83.7203 139.286 88.4251 145.427 88.7573 146.391C89.8466 149.592 86.0456 149.345 83.9211 148.265C81.7967 147.185 76.1185 142.865 75.8712 141.323C75.624 139.78 73.8472 130.461 73.8472 130.461" fill="#663A12"/>
<path d="M91.2063 126.858C91.2063 126.858 91.0827 133.098 91.8321 133.476C92.5815 133.854 98.1901 139.424 98.5841 140.365C99.8125 143.335 95.9034 143.451 93.7789 142.371C91.6544 141.291 84.9796 137.395 84.7324 135.876C84.4852 134.356 82.7393 125.029 82.7393 125.029" fill="#663A12"/>
<path d="M67.2264 66.7864C67.2264 66.7864 62.7457 73.7909 63.3637 80.078C63.9817 86.3652 70.2625 136.392 74.3107 135.852C78.3588 135.312 80.7768 135.922 82.8936 130.63C82.8936 130.63 89.692 132.172 91.8474 126.772C91.8474 126.772 90.2096 79.8698 86.3469 72.5181C82.4842 65.1664 67.2264 66.7864 67.2264 66.7864Z" fill="#68E1FD"/>
<path d="M125.152 48.4117C124.026 48.1289 122.879 47.9379 121.722 47.8408C122.9 47.8537 124.074 47.9751 125.229 48.2034C126.435 48.3962 126.574 46.5063 125.376 46.3057L124.781 46.2131C124.891 46.0781 124.962 45.9167 124.989 45.7452C125.016 45.5737 124.997 45.3981 124.935 45.2362C124.872 45.0742 124.768 44.9317 124.632 44.8228C124.497 44.714 124.335 44.6427 124.163 44.6163C121.518 44.2912 118.834 44.5358 116.291 45.3337C116.361 44.3749 116.342 43.4118 116.237 42.4563C116.22 42.2922 116.156 42.1366 116.052 42.0088C115.962 41.8168 115.812 41.6585 115.626 41.557C115.44 41.4555 115.226 41.4161 115.015 41.4445C114.805 41.4729 114.609 41.5677 114.456 41.715C114.304 41.8623 114.202 42.0544 114.167 42.2634C113.904 43.8063 113.981 45.3491 113.726 46.8457C113.674 47.1072 113.604 47.3649 113.518 47.6171C112.343 48.8308 111.19 50.0625 110.057 51.3122C109.284 52.1994 110.729 53.2485 111.555 52.4617C111.68 52.6484 111.857 52.7936 112.065 52.8782L111.926 53.0634C111.836 53.1833 111.779 53.325 111.761 53.4741C111.744 53.6232 111.766 53.7743 111.826 53.912L111.694 54.0431C110.821 54.8917 112.042 56.3574 112.915 55.5011L113.216 55.1925C113.308 55.2516 113.411 55.2906 113.519 55.3069C113.627 55.3233 113.737 55.3167 113.842 55.2876C113.947 55.2584 114.045 55.2074 114.129 55.1378C114.213 55.0683 114.281 54.9817 114.329 54.8839C115.068 53.6891 116.079 52.6848 117.28 51.9525L117.651 51.698C118.684 51.3459 119.759 51.1357 120.849 51.0731C121.622 51.2814 122.464 51.5205 123.259 51.7751C123.49 51.8774 123.752 51.8841 123.987 51.7936C124.222 51.7032 124.412 51.5231 124.515 51.293C124.617 51.0628 124.624 50.8014 124.533 50.5663C124.443 50.3312 124.262 50.1417 124.032 50.0394L124.55 50.1551C125.685 50.5022 126.342 48.7125 125.152 48.4117Z" fill="#FFC388"/>
<path d="M124.92 45.9666C123.666 45.7965 122.399 45.7397 121.135 45.7969C120.826 45.7969 120.787 46.2983 121.135 46.2829C122.399 46.2257 123.666 46.2825 124.92 46.4526C125.198 46.4912 125.229 46.0052 124.92 45.9666Z" fill="#663A12"/>
<path d="M125.098 47.8876C123.763 47.6884 122.415 47.593 121.065 47.6022C120.756 47.6022 120.718 48.0882 121.065 48.0882C122.415 48.0789 123.763 48.1744 125.098 48.3736C125.376 48.4199 125.407 47.9339 125.098 47.8876Z" fill="#663A12"/>
<path d="M119.736 48.5039C118.994 48.2913 118.211 48.2552 117.452 48.3986C116.693 48.5419 115.978 48.8607 115.364 49.3294C115.101 49.4991 115.418 49.8694 115.673 49.6996C116.213 49.282 116.843 48.9951 117.514 48.8612C118.184 48.7274 118.876 48.7503 119.536 48.9282C119.589 48.9418 119.646 48.9363 119.696 48.9126C119.747 48.889 119.787 48.8487 119.811 48.7986C119.834 48.7485 119.84 48.6917 119.826 48.6379C119.813 48.5842 119.781 48.5368 119.736 48.5039Z" fill="#663A12"/>
<path d="M120.509 48.4112C120.445 47.858 120.245 47.3292 119.927 46.8717C119.608 46.4142 119.182 46.0421 118.686 45.7883C118.4 45.6649 118.23 46.1277 118.524 46.2435C118.947 46.4629 119.31 46.7833 119.579 47.1763C119.849 47.5692 120.017 48.0226 120.069 48.496C120.1 48.8046 120.579 48.7197 120.509 48.4112Z" fill="#663A12"/>
<path d="M124.41 49.6534C123.431 49.2137 122.388 48.93 121.32 48.8125C121.011 48.8125 120.973 49.2599 121.32 49.2985C122.351 49.4104 123.357 49.6837 124.302 50.1085C124.534 50.2396 124.696 49.7768 124.41 49.6534Z" fill="#663A12"/>
<path d="M103.636 45.9121L105.869 59.5509C105.869 59.5509 104.169 64.6346 100.515 65.2903C96.8612 65.9461 94.1187 48.9901 94.1187 48.9901" fill="#FCB749"/>
<path d="M92.8209 38.6058C92.3187 38.4824 88.1392 39.1844 84.516 40.3569C80.8928 41.5295 65.156 64.4949 67.2265 66.786C69.2969 69.0771 79.0078 73.6594 84.8405 72.3943C90.6732 71.1291 104.27 48.4801 103.636 45.9035C102.176 40.0021 97.6106 39.9866 97.6106 39.9866" fill="#FCB749"/>
<path d="M103.204 32.543C103.204 32.543 104.262 41.1907 101.126 42.7489C97.9892 44.3072 94.59 41.0672 93.578 39.1849C92.5659 37.3027 91.4921 27.791 97.3789 28.4313C103.266 29.0715 103.204 32.543 103.204 32.543Z" fill="#FFC388"/>
<path d="M103.366 26.842C100.971 26.0089 98.1981 24.2114 93.9413 27.0194C89.6846 29.8274 88.3558 37.6343 93.4469 39.5243L94.1654 37.4183C94.0287 37.263 93.9072 37.0951 93.8023 36.9168C93.558 36.5383 93.4193 36.1016 93.4006 35.6517C93.2991 35.2018 93.3204 34.7329 93.4624 34.294C93.4624 34.24 93.4624 34.1937 93.4624 34.1397C96.8616 34.1397 100.258 34.1397 103.652 34.1397C103.995 34.1569 104.336 34.0891 104.647 33.9424C104.957 33.7957 105.225 33.5746 105.429 33.2988C106.766 32.3037 106.387 27.8911 103.366 26.842Z" fill="#663A12"/>
<path d="M112.397 47.8945C109.431 49.7382 103.389 55.0919 103.389 55.0919L98.9858 64.5496C98.9858 64.5496 101.566 68.1908 106.379 65.6296C109.794 63.8091 115.186 57.1902 117.766 53.2482C117.274 52.0437 116.545 50.9496 115.623 50.0303C114.701 49.1109 113.604 48.3848 112.397 47.8945Z" fill="#FCB749"/>
<path d="M79.9736 81.3122C79.9118 80.6642 78.8921 80.6642 78.9539 81.3122L83.5891 130.575C83.6509 131.223 84.6707 131.223 84.6089 130.575L79.9736 81.3122Z" fill="#663A12"/>
<path d="M95.6409 63.8706C95.6409 63.8706 90.5807 59.6663 90.5807 57.8304C90.5807 55.9944 93.2074 42.5021 88.8579 41.4298C84.5085 40.3575 80.9857 50.5558 79.7419 56.5498C78.4981 62.5438 92.7593 73.6215 92.7593 73.6215" fill="#FCB749"/>
<path d="M95.2313 32.3048C94.9686 29.3579 90.3334 29.3348 90.596 32.3048C90.7506 34.0636 91.0209 36.023 90.4724 37.7047C90.2309 38.5719 89.7799 39.3665 89.1591 40.019H88.7342C88.2234 39.9383 87.7054 39.9124 87.1891 39.9419C84.2071 39.9419 84.1994 44.5704 87.1891 44.5704C88.6029 44.5704 89.9085 45.1953 91.1832 44.3622C92.3572 43.495 93.3231 42.3777 94.0107 41.0913C95.5712 38.3527 95.4785 35.2825 95.2313 32.3048Z" fill="#663A12"/>
<path d="M68.8491 30.6141C69.3204 27.0193 72.6269 24.003 76.1806 23.3164L144.389 100.05L136.663 106.9L68.8491 30.6141Z" fill="#68E1FD"/>
<path d="M141.975 105.113C144.11 103.221 145.191 100.957 144.389 100.055C143.588 99.153 141.207 99.9557 139.072 101.848C136.938 103.74 135.857 106.004 136.658 106.906C137.46 107.808 139.84 107.005 141.975 105.113Z" fill="#68E1FD"/>
<path d="M137.072 107.364C137.072 107.364 136.052 104.803 139.266 102.203C142.48 99.6032 144.504 100.189 144.504 100.189L154.315 118.04L137.072 107.364Z" fill="#FFF8E3"/>
<path d="M154.315 118.032L146.304 113.072C146.304 113.072 146.605 110.341 149.904 109.986L154.315 118.032Z" fill="#653200"/>
<path d="M104.541 74.332L109.176 74.872C109.176 74.872 112.884 74.1006 113.711 75.5509C113.935 75.9443 110.026 76.4997 110.026 76.4997C110.026 76.4997 115.658 77.9809 115.318 79.0917C114.978 80.2026 111.231 82.3394 110.512 82.54C109.794 82.7406 102.648 77.14 102.648 77.14" fill="#FFC388"/>
<path d="M106.765 73.9155C104.942 71.3389 101.149 68.8164 98.0586 65.9004C93.8637 62.4289 89.4833 58.0318 86.0996 62.7761C82.3373 68.0526 97.1238 77.95 101.427 80.6732C103.887 79.0517 105.759 76.6822 106.765 73.9155Z" fill="#FCB749"/>
<path d="M79.363 56.0097C78.6306 58.5537 78.4776 61.229 78.915 63.8397C79.2935 65.8146 79.8575 67.7431 80.3905 69.6871C82.8028 70.2754 85.2707 70.6064 87.7529 70.6746C87.7529 70.6746 80.885 63.3537 80.321 59.9517C79.9733 58.0388 79.9733 56.079 80.321 54.166L79.363 56.0097Z" fill="#BC7C1E"/>
<path opacity="0.32" d="M66.4386 152.715C68.8721 153.487 71.3134 154.189 73.8164 154.69C75.349 154.963 76.8971 155.141 78.4517 155.222L81.0474 153.463L99.0091 140.126L85.2732 135.566L52.7568 146.883C56.7741 149.822 61.7338 151.28 66.4386 152.715Z" fill="url(#paint2_linear_420_535)"/>
<defs>
<linearGradient id="paint0_linear_420_535" x1="123.738" y1="176.738" x2="150.27" y2="151.744" gradientUnits="userSpaceOnUse">
<stop stop-opacity="0"/>
<stop offset="0.99" stop-color="#552800"/>
</linearGradient>
<linearGradient id="paint1_linear_420_535" x1="7665.79" y1="2498.79" x2="7993.32" y2="1774.01" gradientUnits="userSpaceOnUse">
<stop stop-opacity="0"/>
<stop offset="0.99" stop-color="#552800"/>
</linearGradient>
<linearGradient id="paint2_linear_420_535" x1="4208.06" y1="3899.09" x2="4535.58" y2="3174.3" gradientUnits="userSpaceOnUse">
<stop stop-opacity="0"/>
<stop offset="0.99" stop-color="#552800"/>
</linearGradient>
</defs>
</svg>
