<svg width="206" height="203" viewBox="0 0 206 203" fill="none" xmlns="http://www.w3.org/2000/svg">
<path d="M54.157 14.4236C47.4472 24.0673 55.3148 39.7009 45.3536 46.952C35.6566 54.0141 23.7446 42.4401 14.6057 48.5171C1.04912 57.5337 3.5246 98.7842 23.3456 124.414C29.3058 132.118 34.2868 135.12 36.4924 143.838C41.2293 162.556 24.5826 173.69 27.7505 182.948C34.8828 203.795 144.583 221.284 188.598 158.641C209.156 129.383 212.231 87.1346 193.864 55.0463C160.674 -2.93847 69.2205 -7.21139 54.157 14.4236Z" fill="#F4F7FA"/>
<path d="M180.819 106.106C184.951 108.751 190.149 107.073 192.426 102.355C194.702 97.6358 193.192 91.6615 189.05 89.0236C188.836 88.8873 188.617 88.7696 188.397 88.6555C189.163 86.016 189.744 83.3264 190.135 80.6061C190.372 80.624 190.61 80.639 190.849 80.6347C195.577 80.5498 199.334 76.0914 199.235 70.6757C199.135 65.26 195.218 60.9493 190.491 61.0456C190.244 61.0513 190.001 61.0748 189.76 61.1033C189.27 58.402 188.594 55.7376 187.738 53.1289C187.956 53.0062 188.171 52.8792 188.381 52.733C192.422 49.9388 193.716 43.9153 191.266 39.2857C188.817 34.6562 183.564 33.1831 179.533 35.9837C179.326 36.1264 179.132 36.284 178.94 36.4438C177.352 34.4013 175.607 32.4863 173.72 30.7164C173.852 30.4874 173.982 30.2555 174.099 30.0101C176.366 25.2771 179.33 20.1375 175.169 17.6165C165.57 11.7949 161.459 15.9045 159.202 20.6311C159.086 20.8758 158.985 21.1255 158.888 21.3758C156.627 20.5166 154.293 19.8597 151.915 19.4127C151.929 19.1431 151.941 18.872 151.936 18.5959C151.838 13.2181 153.286 10.4125 148.597 9.98375C138.394 9.04999 134.959 13.6839 135.056 19.0489C135.061 19.3293 135.083 19.6046 135.108 19.8785C132.763 20.4494 130.472 21.2232 128.262 22.1912C128.155 21.9451 128.048 21.6997 127.921 21.46C125.516 16.8811 120.354 15.4323 116.398 18.2179C112.441 21.0035 111.187 26.9578 113.582 31.531C113.704 31.765 113.839 31.9854 113.975 32.2037C112.19 34.0528 110.551 36.0371 109.072 38.1387C108.876 37.9875 108.678 37.8405 108.469 37.7071C104.426 35.1327 99.354 36.8418 97.1376 41.5199C94.9213 46.198 96.3924 52.0717 100.425 54.6526C100.635 54.7867 100.848 54.9015 101.062 55.0093C100.316 57.6186 99.7499 60.2761 99.3683 62.963C99.137 62.9459 98.905 62.9324 98.6695 62.9366C94.0704 63.0322 90.4257 67.4307 90.5214 72.7622C90.617 78.0937 94.4195 82.3503 99.0157 82.2682C99.2555 82.2639 99.4918 82.2411 99.7295 82.214C100.207 84.8831 100.865 87.5166 101.7 90.0965C101.486 90.2163 101.278 90.3411 101.072 90.4838C97.1348 93.2188 95.8771 99.1502 98.2597 103.738C100.642 108.325 108.551 111.04 112.502 108.312C112.704 108.169 110.115 106.82 110.304 106.664C111.862 108.704 113.576 110.62 115.43 112.396C115.3 112.621 115.172 112.849 115.056 113.091C112.829 117.755 114.308 123.663 118.362 126.292C122.416 128.922 127.526 127.277 129.762 122.607C129.878 122.365 129.976 122.118 130.074 121.869C132.318 122.759 134.637 123.448 137.004 123.928C136.989 124.198 136.977 124.468 136.982 124.744C137.08 130.112 140.932 134.426 145.594 134.378C150.255 134.33 153.969 129.928 153.874 124.547C153.869 124.266 153.847 123.99 153.822 123.715C156.18 123.178 158.487 122.436 160.716 121.497C160.823 121.747 160.933 121.996 161.06 122.237C163.487 126.874 168.713 128.417 172.732 125.674C176.751 122.932 178.043 116.932 175.605 112.286C175.48 112.049 175.344 111.825 175.204 111.603C177.022 109.756 178.693 107.771 180.201 105.664C180.402 105.819 180.605 105.97 180.819 106.106ZM129.717 102.551C114.973 93.0526 109.607 71.6358 117.693 54.6426C125.797 37.6101 144.389 31.3691 159.257 40.7759C174.19 50.2234 179.656 71.8228 171.426 88.9473C163.214 106.032 144.524 112.09 129.717 102.551Z" fill="#97A6B7"/>
<path d="M190.852 80.6345C195.581 80.5496 199.337 76.0912 199.238 70.6755C199.139 65.2598 195.222 60.9484 190.494 61.0454C190.247 61.0504 190.004 61.0747 189.764 61.1032C189.274 58.4018 188.598 55.7373 187.742 53.1287C187.959 53.006 188.175 52.8791 188.384 52.7328C192.426 49.9387 197.433 42.8174 194.576 38.4553C189.162 30.184 183.567 33.1829 179.536 35.9835C179.329 36.1262 179.135 36.2838 178.943 36.4436C177.356 34.401 175.61 32.486 173.723 30.7162C173.855 30.4872 173.985 30.2554 174.102 30.01C175.336 27.4348 175.445 24.5037 174.63 21.9492C170.746 29.1721 166.924 36.4244 163.163 43.7062C175.084 54.1973 178.888 73.4148 171.424 88.9457C165.111 102.081 152.596 108.691 140.419 106.708C139.877 108.212 139.344 109.726 138.764 111.212C137.189 115.244 135.401 119.169 133.612 123.087C134.737 123.42 135.867 123.701 137.002 123.929C136.987 124.199 136.976 124.469 136.981 124.745C137.079 130.113 140.03 134.927 148.479 135.177C153.163 135.32 153.968 129.93 153.87 124.549C153.865 124.268 153.844 123.992 153.819 123.717C156.178 123.179 158.486 122.437 160.716 121.497C160.823 121.747 160.933 121.996 161.06 122.237C163.487 126.873 171.925 129.491 175.948 126.747C179.971 124.003 178.043 116.932 175.605 112.286C175.48 112.049 175.344 111.825 175.204 111.603C177.022 109.756 178.693 107.771 180.201 105.664C180.4 105.818 180.603 105.97 180.817 106.106C184.949 108.751 190.147 107.073 192.424 102.354C194.701 97.6356 193.194 91.6578 189.054 89.0234C188.84 88.8872 188.62 88.7688 188.401 88.6553C189.166 86.0159 189.747 83.3262 190.139 80.606C190.372 80.6238 190.61 80.6388 190.852 80.6345Z" fill="#97A6B7"/>
<path d="M185.263 107.031C189.403 109.678 194.605 108.001 196.885 103.278C199.165 98.556 197.651 92.5781 193.505 89.9388C193.291 89.8025 193.071 89.6841 192.851 89.5707C193.618 86.9294 194.199 84.2378 194.591 81.5156C194.829 81.5342 195.067 81.5491 195.309 81.5449C200.043 81.4607 203.804 76.9994 203.706 71.5802C203.608 66.1609 199.684 61.8473 194.951 61.9443C194.703 61.9493 194.461 61.9736 194.219 62.0014C193.728 59.2983 193.052 56.6322 192.194 54.022C192.409 53.8993 192.628 53.7716 192.837 53.6253C196.883 50.8305 198.178 44.8034 195.726 40.1703C193.274 35.5371 188.017 34.0626 183.977 36.8646C183.771 37.0073 183.576 37.1649 183.384 37.3247C181.795 35.2811 180.049 33.3651 178.16 31.5944C178.293 31.3655 178.423 31.1329 178.541 30.8875C180.81 26.1516 179.303 20.2081 175.178 17.6193C171.053 15.0306 165.888 16.7726 163.628 21.5021C163.511 21.7467 163.41 21.9971 163.313 22.2475C161.049 21.3869 158.712 20.7292 156.331 20.2822C156.346 20.0119 156.357 19.7408 156.352 19.4648C156.254 14.0833 152.385 9.82678 147.715 9.95803C143.045 10.0893 139.353 14.5455 139.451 19.9135C139.456 20.1945 139.478 20.4699 139.503 20.7438C137.156 21.3148 134.863 22.0888 132.65 23.0572C132.544 22.8103 132.436 22.5649 132.309 22.3253C129.903 17.7435 124.735 16.2925 120.772 19.0796C116.808 21.8666 115.547 27.8237 117.944 32.3998C118.066 32.6345 118.201 32.8549 118.338 33.0732C116.549 34.9238 114.907 36.9097 113.425 39.0132C113.23 38.8627 113.031 38.715 112.821 38.5816C108.774 36.005 103.696 37.7149 101.476 42.3952C99.2561 47.0754 100.73 52.9527 104.768 55.5371C104.977 55.6712 105.191 55.786 105.406 55.8938C104.658 58.5046 104.091 61.1638 103.71 63.8525C103.478 63.8354 103.246 63.8211 103.01 63.8261C98.406 63.9203 94.7556 68.3202 94.852 73.6567C94.9483 78.9932 98.7572 83.2526 103.359 83.1692C103.598 83.1628 103.836 83.1445 104.073 83.1142C104.552 85.7852 105.211 88.4206 106.047 91.0024C105.832 91.1222 105.624 91.247 105.418 91.3904C101.475 94.1261 100.216 100.061 102.602 104.651C104.987 109.242 110.127 110.761 114.079 108.031C114.282 107.889 114.472 107.737 114.661 107.581C116.221 109.623 117.937 111.54 119.794 113.317C119.663 113.543 119.535 113.772 119.42 114.013C117.19 118.679 118.67 124.592 122.729 127.223C126.788 129.855 131.904 128.21 134.144 123.537C134.26 123.295 134.358 123.048 134.456 122.799C136.704 123.689 139.025 124.379 141.394 124.86C141.38 125.13 141.369 125.4 141.374 125.676C141.471 131.047 145.329 135.364 149.996 135.317C154.662 135.27 158.382 130.866 158.284 125.482C158.279 125.196 158.257 124.924 158.232 124.649C160.594 124.111 162.905 123.368 165.138 122.427C165.245 122.676 165.355 122.927 165.482 123.167C167.914 127.809 173.145 129.352 177.169 126.608C181.192 123.864 182.487 117.861 180.045 113.212C179.921 112.975 179.783 112.751 179.644 112.529C181.465 110.682 183.138 108.695 184.648 106.587C184.846 106.743 185.049 106.894 185.263 107.031ZM134.097 103.464C119.334 93.9585 113.962 72.5275 122.057 55.5278C130.172 38.4853 148.786 32.2429 163.672 41.6576C178.624 51.1129 184.097 72.7265 175.856 89.861C167.639 106.954 148.922 113.013 134.097 103.467V103.464Z" fill="#D8DEE8"/>
<path d="M107.109 135.961C104.554 143.18 108.258 149.811 111.628 154.193C112.327 154.131 112.752 154.287 113.474 154.393C119.995 155.344 122.911 154.275 129.436 154.135C130.84 154.105 134.886 152.677 136.502 151.979L139.49 150.623C139.49 150.623 143.387 133.285 134.341 129.446C125.295 125.606 127.017 108.555 126.881 99.3546C126.51 74.3933 99.9291 79.1605 96.8875 47.1229C96.0781 38.602 97.3872 22.081 89.5589 15.9683C80.6413 9.00466 75.3748 17.1517 69.5009 11.1796C60.3178 1.84768 46.6191 -0.526321 39.6346 10.6218C32.7413 21.6258 44.2108 41.165 69.4909 55.3613C86.4745 67.5987 87.1055 71.684 86.81 81.7921C86.603 88.8748 81.6342 107.741 91.8288 114.132C102.023 120.523 110.031 127.71 107.109 135.961Z" fill="url(#paint0_linear_420_1650)"/>
<g style="mix-blend-mode:soft-light" opacity="0.5">
<g style="mix-blend-mode:soft-light" opacity="0.5">
<path d="M126.087 154.713L126.555 154.609C125.938 151.827 125.282 149.024 124.604 146.286C119.589 126.008 112.859 106.933 104.604 89.5886C97.609 74.8937 89.4238 61.2304 80.275 48.983C72.917 39.1331 64.8996 30.1407 56.4438 22.2555C50.5 16.7113 44.4026 11.7693 38.321 7.56059C37.2617 6.82798 36.1367 6.13747 35.0489 5.46906C33.5999 4.58095 32.1009 3.66074 30.7454 2.63281L30.4556 3.01445C31.8304 4.0595 33.3393 4.98256 34.7998 5.87852C35.8819 6.54336 37.0012 7.23388 38.0497 7.95578C44.1107 12.1488 50.1902 17.0773 56.1169 22.6064C64.5519 30.4725 72.5509 39.4413 79.8916 49.2705C89.0212 61.4929 97.1907 75.1277 104.172 89.7955C112.413 107.11 119.131 126.156 124.14 146.402C124.816 149.136 125.472 151.936 126.087 154.713Z" fill="#FCFDFE"/>
</g>
<g style="mix-blend-mode:soft-light" opacity="0.5">
<path d="M90.4053 64.6272L90.8179 64.384C80.3842 46.6845 84.8019 11.7628 84.8476 11.4097L84.3729 11.3477C84.3265 11.7 79.8874 46.788 90.4053 64.6272Z" fill="#FCFDFE"/>
</g>
<g style="mix-blend-mode:soft-light" opacity="0.5">
<path d="M115.246 116.696L115.684 116.502C110.002 103.644 84.1717 95.7328 83.9119 95.6543L83.7734 96.113C84.034 96.1922 109.655 104.04 115.246 116.696Z" fill="#FCFDFE"/>
</g>
<g style="mix-blend-mode:soft-light" opacity="0.5">
<path d="M117.841 124.27L118.307 124.157C116.141 115.241 117.955 101.925 123.414 86.6627C123.689 85.8951 123.689 85.8951 123.669 85.8066L123.202 85.9136L123.435 85.8601L123.2 85.823C123.187 85.8758 123.083 86.1655 122.963 86.5014C117.473 101.851 115.653 115.264 117.841 124.27Z" fill="#FCFDFE"/>
</g>
<g style="mix-blend-mode:soft-light" opacity="0.5">
<path d="M124.89 149.646L125.304 149.405C120.206 140.677 105.376 138.435 105.227 138.414L105.155 138.888C105.304 138.909 119.909 141.118 124.89 149.646Z" fill="#FCFDFE"/>
</g>
<g style="mix-blend-mode:soft-light" opacity="0.5">
<path d="M126.81 154.681C127.863 146.6 131.272 138.559 137.231 130.092L136.839 129.816C130.833 138.347 127.397 146.459 126.333 154.619L126.81 154.681Z" fill="#FCFDFE"/>
</g>
<g style="mix-blend-mode:soft-light" opacity="0.5">
<path d="M61.0208 27.3302L61.4191 27.0648C55.0719 17.5474 50.6063 6.07753 49.1395 2.30822C48.7826 1.39586 48.6591 1.07485 48.5955 0.970703L48.1865 1.21966C48.2336 1.29955 48.4364 1.82172 48.6933 2.48156C50.1645 6.26299 54.6436 17.7692 61.0208 27.3302Z" fill="#FCFDFE"/>
</g>
<g style="mix-blend-mode:soft-light" opacity="0.5">
<path d="M73.6354 41.2784L73.938 40.9075C65.6179 34.1307 44.2687 36.377 43.3643 36.4755L43.4164 36.9513C43.6355 36.9277 65.4708 34.6286 73.6354 41.2784Z" fill="#FCFDFE"/>
</g>
</g>
<path d="M108.666 150.298L88.7449 160.004C88.7449 160.004 80.0129 151.618 81.3784 142.033C84.1658 122.473 66.8303 121.403 59.6401 119.865C48.7903 117.551 41.4581 111.301 48.3891 101.553C56.2324 90.5242 39.2524 79.6107 21.1931 78.3945C3.5214 77.2046 -4.55888 45.1242 33.926 44.1904C56.9105 43.6326 63.6788 64.9751 69.6612 74.9405C75.6437 84.9059 91.5508 78.2219 92.4524 93.5166C93.2226 106.582 88.4829 118.691 98.6903 122.958C108.898 127.224 113.66 135.265 108.666 150.298Z" fill="url(#paint1_linear_420_1650)"/>
<g style="mix-blend-mode:soft-light" opacity="0.5">
<g style="mix-blend-mode:soft-light" opacity="0.5">
<path d="M100.946 156.346L100.495 156.472C100.417 156.194 92.5126 128.295 76.3321 103C61.4249 79.6968 36.2397 53.8987 0.907743 63.3327L0.787109 62.8811C16.5151 58.6817 31.5743 60.9936 45.5428 69.7521C56.7067 76.7478 67.1989 87.8538 76.7311 102.756C92.9473 128.109 100.868 156.067 100.946 156.346Z" fill="#BEB8F2"/>
</g>
<g style="mix-blend-mode:soft-light" opacity="0.5">
<path d="M51.2261 73.6651L50.7835 73.8163C45.7405 59.0922 30.8291 41.9527 30.6792 41.7808L31.0318 41.4727C31.1824 41.6453 46.1538 58.8547 51.2261 73.6651Z" fill="#BEB8F2"/>
</g>
<g style="mix-blend-mode:soft-light" opacity="0.5">
<path d="M41.7568 68.0828C23.2992 66.1653 12.1339 76.839 12.0254 76.9475L11.6978 76.6129C11.8098 76.5031 23.1186 65.6767 41.8054 67.6177L41.7568 68.0828Z" fill="#BEB8F2"/>
</g>
<g style="mix-blend-mode:soft-light" opacity="0.5">
<path d="M86.0092 120.114C71.6396 102.59 42.3014 110.869 42.0223 110.974L41.8296 110.546C42.0937 110.418 71.8744 102.136 86.3711 119.82L86.0092 120.114Z" fill="#BEB8F2"/>
</g>
<g style="mix-blend-mode:soft-light" opacity="0.5">
<path d="M82.0422 111.654L81.5882 111.769C78.0298 97.7563 87.5685 82.2739 87.6655 82.1191L88.0624 82.3667C87.9668 82.52 78.5324 97.8369 82.0422 111.654Z" fill="#BEB8F2"/>
</g>
<g style="mix-blend-mode:soft-light" opacity="0.5">
<path d="M99.1545 152.11C94.786 144.691 80.7883 143.954 80.647 143.948L80.6691 143.48C81.2544 143.508 95.0601 144.237 99.5578 151.873L99.1545 152.11Z" fill="#BEB8F2"/>
</g>
<g style="mix-blend-mode:soft-light" opacity="0.5">
<path d="M97.3715 145.479L96.9225 145.61C95.0109 139.078 100.854 127.919 102.776 124.251C103.048 123.732 103.282 123.285 103.307 123.197L103.758 123.324C103.723 123.448 103.568 123.746 103.187 124.465C101.291 128.094 95.5134 139.128 97.3715 145.479Z" fill="#BEB8F2"/>
</g>
</g>
<path d="M79.0929 181.707L79.3606 181.785C84.6484 183.314 90.6972 184.051 97.5883 183.456L101.593 182.824C102.323 179.505 102.423 176.217 98.1886 175.485C91.6138 174.348 90.1226 163.21 91.3875 159.055C92.9579 153.912 96.3591 141.864 86.2224 139.945C77.7831 138.349 72.0112 139.042 70.1867 128.649C68.3622 118.255 61.8645 112.416 52.4458 114.173C42.5332 116.028 32.7447 103.716 25.0942 109.143C11.7617 118.597 27.4497 140.102 45.5954 144.704C63.7411 149.307 54.5415 156.743 55.1012 165.36C55.8642 177.126 71.3759 172.733 76.1042 176.825C77.7053 178.211 78.6104 179.939 79.0929 181.707Z" fill="url(#paint2_linear_420_1650)"/>
<g style="mix-blend-mode:soft-light" opacity="0.5">
<g style="mix-blend-mode:soft-light" opacity="0.5">
<path d="M89.2075 183.476L89.6587 183.326C78.6803 150.392 51.7613 122.944 19.4066 111.693L19.251 112.142C51.4686 123.345 78.2749 150.679 89.2075 183.476Z" fill="#FCFDFE"/>
</g>
<g style="mix-blend-mode:soft-light" opacity="0.5">
<path d="M81.6837 166.032L82.1548 165.975C80.4838 152.435 90.7783 140.45 90.8825 140.331L90.5256 140.02C90.4186 140.14 79.9841 152.28 81.6837 166.032Z" fill="#FCFDFE"/>
</g>
<g style="mix-blend-mode:soft-light" opacity="0.5">
<path d="M87.0229 177.473L87.4105 177.198C79.3966 165.922 54.2285 167.29 53.9751 167.306L54.0037 167.78C54.2542 167.764 79.1617 166.411 87.0229 177.473Z" fill="#FCFDFE"/>
</g>
<g style="mix-blend-mode:soft-light" opacity="0.5">
<path d="M61.3142 138.768L61.7239 138.527C56.1562 129.072 60.7795 112.895 60.8273 112.733L60.3712 112.6C60.3227 112.764 55.643 129.138 61.3142 138.768Z" fill="#FCFDFE"/>
</g>
<g style="mix-blend-mode:soft-light" opacity="0.5">
<path d="M44.3092 124.725L44.5069 124.292C33.1267 119.1 17.1867 124.71 17.0254 124.767L17.186 125.215C17.3452 125.158 33.1067 119.613 44.3092 124.725Z" fill="#FCFDFE"/>
</g>
</g>
<path d="M35.606 120.377V54.4738L39.2535 51.2109L59.2643 55.7663C67.5445 56.2193 73.7789 58.1204 78.0182 61.4545C82.2315 64.7706 84.3351 69.3693 84.3289 75.2506C84.3289 78.6452 83.5844 81.5178 82.0954 83.8685C80.6031 86.2263 78.3986 87.9334 75.482 88.9896C78.7755 89.9964 81.2952 91.7581 83.0412 94.2748C84.7857 96.7843 85.6575 99.8089 85.6566 103.348C85.6566 109.769 87.7438 110.692 84.0027 114.053C78.9347 118.603 70.0899 120.532 62.2823 120.544L35.606 120.377ZM51.5724 83.3549L59.7533 83.6402C63.152 83.7273 65.5689 83.1697 67.0041 81.9674C68.4394 80.7652 69.1565 78.9481 69.1555 76.5161C69.1555 73.7136 68.3796 71.6611 66.8278 70.3585C65.276 69.0559 62.7539 68.3226 59.2615 68.1585L51.5745 67.8069L51.5724 83.3549ZM51.5724 93.968V110.074L61.839 110.23C64.6395 110.273 66.7859 109.644 68.2783 108.345C69.7706 107.045 70.5153 105.199 70.5125 102.806C70.5125 97.2844 67.8714 94.4367 62.5478 94.2633L51.5724 93.968Z" fill="url(#paint3_linear_420_1650)"/>
<path d="M117.678 100.317L109.883 100.134L113.53 119.639L109.883 120.842L95.2368 120.75V57.7343L98.8844 55.0742C105.875 55.4566 131.388 61.3773 135.265 64.9048C139.119 68.4121 141.043 73.182 141.037 79.2145C141.037 83.5844 140.228 87.1813 138.61 90.0052C136.988 92.8372 134.438 95.103 130.961 96.8026L146.647 119.844L143 121.046L128.076 120.953L117.678 100.317ZM109.883 88.1983L118.982 88.4929C121.69 88.5809 123.723 87.8802 125.08 86.3907C126.438 84.9012 127.116 82.7881 127.114 80.0512C127.114 77.3106 126.429 75.1299 125.06 73.5091C123.691 71.8884 121.665 71.0146 118.982 70.8876L109.883 70.4703V88.1983Z" fill="url(#paint4_linear_420_1650)"/>
<path d="M69.8524 181.643L48.4896 182.608L32.1085 199.707L27.4688 196.32L51.8609 127.869L66.5175 127.783L71.153 131.17L78.1918 197.205L73.5599 193.819L69.8524 181.643ZM52.2685 169.947L66.1692 169.444L59.2317 146.536L52.2685 169.947Z" fill="url(#paint5_linear_420_1650)"/>
<path d="M143.659 190.015L134.489 194.153L129.853 190.766L108.893 151.85L98.884 196.084L94.2485 192.697V127.623L108.893 127.539L113.533 130.926L129.817 166.837V127.415L143.665 127.334L148.304 130.721L143.659 190.015Z" fill="url(#paint6_linear_420_1650)"/>
<path d="M152.292 189.546V127.282L170.153 127.178C174.966 127.15 179.266 128.342 183.052 130.754C186.818 133.15 189.747 136.537 191.839 140.915C193.927 145.281 194.983 150.189 195.005 155.641V158.411C195.005 163.924 193.986 168.909 191.948 173.364C189.902 177.84 187.004 181.414 183.255 184.088C179.478 186.78 175.237 188.269 170.529 188.556L156.928 192.933L152.292 189.546ZM165.706 138.672V177.392L170.303 177.184C174.071 177.013 176.955 175.382 178.955 172.29C180.953 169.211 181.951 164.72 181.947 158.817V156.186C181.947 150.31 180.949 145.9 178.955 142.955C176.952 140.001 174.018 138.55 170.153 138.604L165.706 138.672Z" fill="url(#paint7_linear_420_1650)"/>
<path d="M39.2534 119.175V51.2109L62.9118 52.5049C71.192 52.9579 77.4263 54.859 81.6656 58.1931C85.8785 61.5083 87.9821 66.1067 87.9764 71.9885C87.9764 75.383 87.2319 78.2557 85.7429 80.6064C84.2501 82.9642 82.0456 84.6712 79.1295 85.7275C82.423 86.7338 84.9427 88.4955 86.6887 91.0126C88.4323 93.5222 89.3038 96.5467 89.3034 100.086C89.3034 106.506 87.3625 111.311 83.4808 114.5C79.5706 117.71 73.7367 119.329 65.9291 119.34L39.2534 119.175ZM55.2198 80.0963L63.4008 80.3817C66.7994 80.4687 69.2161 79.9111 70.6509 78.7089C72.0856 77.5067 72.8028 75.6881 72.8023 73.2532C72.8023 70.4508 72.0266 68.3982 70.4753 67.0957C68.924 65.7931 66.4018 65.0598 62.9089 64.8957L55.217 64.544L55.2198 80.0963ZM55.2198 90.7095V106.815L65.4865 106.972C68.287 107.014 70.4332 106.386 71.925 105.086C73.4169 103.786 74.1619 101.94 74.16 99.5478C74.16 94.0258 71.5189 91.1781 66.1946 91.0041L55.2198 90.7095Z" fill="url(#paint8_linear_420_1650)"/>
<path d="M121.326 97.6565L113.533 97.4739V120.24L98.8872 120.149V55.0742L122.632 56.3732C129.627 56.7556 135.039 58.7173 138.915 62.2447C142.77 65.752 144.694 70.5219 144.687 76.5544C144.687 80.9243 143.878 84.5213 142.26 87.3451C140.638 90.1771 138.088 92.4429 134.61 94.1426L146.65 119.801V120.448L131.726 120.354L121.326 97.6565ZM113.533 85.5382L122.632 85.8329C125.34 85.9208 127.373 85.2201 128.73 83.7306C130.087 82.2412 130.765 80.128 130.764 77.3912C130.764 74.6505 130.08 72.4698 128.71 70.8491C127.34 69.2284 125.314 68.3543 122.632 68.2268L113.533 67.811V85.5382Z" fill="url(#paint9_linear_420_1650)"/>
<path d="M74.4873 185.034L53.1245 186L49.3256 198.774L32.1079 199.708L56.4994 131.257L71.1552 131.172L94.3968 196.328L78.1934 197.207L74.4873 185.034ZM56.9034 173.335L70.8048 172.836L63.8666 149.928L56.9034 173.335Z" fill="url(#paint10_linear_420_1650)"/>
<path d="M148.295 193.402L134.49 194.151L113.533 155.237V195.289L98.8872 196.084V131.01L113.533 130.924L134.448 170.222V130.801L148.295 130.721V193.402Z" fill="url(#paint11_linear_420_1650)"/>
<path d="M156.926 192.933V130.669L174.787 130.565C179.6 130.536 183.899 131.729 187.686 134.142C191.451 136.537 194.38 139.924 196.473 144.303C198.561 148.668 199.616 153.576 199.639 159.028V161.798C199.639 167.311 198.62 172.296 196.581 176.751C194.535 181.227 191.637 184.801 187.888 187.475C184.112 190.167 179.87 191.656 175.162 191.943L156.926 192.933ZM170.34 142.058V180.779L174.937 180.571C178.705 180.4 181.588 178.769 183.588 175.677C185.587 172.598 186.584 168.107 186.581 162.205V159.573C186.581 153.697 185.583 149.286 183.588 146.342C181.585 143.387 178.651 141.937 174.787 141.991L170.34 142.058Z" fill="url(#paint12_linear_420_1650)"/>
<path d="M169.228 126.682C169.228 126.682 169.025 127.593 169.273 128.252C169.522 128.911 173.598 130.923 174.178 131.132C174.758 131.34 172.772 127.828 171.47 127.076C170.512 126.52 169.388 126.215 169.228 126.682Z" fill="url(#paint13_linear_420_1650)"/>
<path d="M169.043 123.817L169.567 126.897C169.567 126.897 170.405 127.734 171.137 127.311L171.035 123.775L169.043 123.817Z" fill="url(#paint14_linear_420_1650)"/>
<path d="M165.811 77.7207C167.955 86.5759 169.499 95.5657 170.432 104.629C171.137 111.474 171.492 118.35 171.496 125.231L168.83 125.03C167.235 122.534 165.211 118.753 164.075 113.844C162.61 107.519 164.186 106.083 163.118 100.548C161.129 90.2399 154.065 86.9357 155.712 82.5614C156.386 80.7738 158.583 78.6274 165.811 77.7207Z" fill="url(#paint15_linear_420_1650)"/>
<path style="mix-blend-mode:multiply" opacity="0.3" d="M167.854 105.459C166.596 102.458 168.353 100.465 167.117 95.8443C166.227 92.513 164.796 91.6078 163.105 88.4755C161.93 86.3026 160.718 83.2067 160.272 78.9316C157.329 79.9745 156.171 81.3499 155.715 82.5604C154.067 86.9346 161.132 90.2388 163.12 100.547C164.191 106.082 162.613 107.518 164.078 113.843C165.214 118.75 167.238 122.533 168.833 125.029L171.498 125.23C171.498 120.152 171.301 114.692 170.829 108.902C169.168 107.772 168.31 106.554 167.854 105.459Z" fill="url(#paint16_linear_420_1650)"/>
<path d="M179.908 128.18C179.908 128.18 180.226 126.983 180.8 127.266C181.374 127.549 183.441 128.519 184.102 129.612C184.763 130.706 184.725 130.707 183.614 130.663C182.502 130.619 180.125 129.063 179.908 128.18Z" fill="url(#paint17_linear_420_1650)"/>
<path d="M179.189 125.779L180.583 127.599C180.583 127.599 180.982 128.266 180.293 128.286L178.001 127.083L179.189 125.779Z" fill="url(#paint18_linear_420_1650)"/>
<path d="M147.114 87.9208C148.614 94.7487 151.325 101.253 155.12 107.125C162.88 119.101 173.119 125.173 178.329 127.793L179.988 125.684C178.27 118.936 175.312 115.096 172.845 112.813C170.046 110.223 168.525 110.236 165.999 107.285C162.679 103.407 161.614 99.0732 160.827 95.7141C158.954 87.7247 160.645 84.0238 158.548 82.712C157.156 81.8389 154.197 82.0814 147.114 87.9208Z" fill="url(#paint19_linear_420_1650)"/>
<path d="M154.679 49.0762C156.278 49.3401 158.698 49.9286 161.204 51.4302C166.997 54.902 167.107 59.5687 172.844 61.8393C173.943 62.2737 177.19 63.5577 179.661 61.982C180.654 61.3485 181.218 60.4469 181.533 59.7942L183.292 60.1737C183.59 62.3137 183.694 65.8504 181.596 68.6161C177.467 74.0646 167.035 73.5624 160.79 68.88C155.116 64.6256 152.684 56.766 154.679 49.0762Z" fill="url(#paint20_linear_420_1650)"/>
<path style="mix-blend-mode:multiply" opacity="0.3" d="M177.468 68.3862C174.989 68.7493 173.836 66.2383 167.414 63.7552C162.786 61.9661 161.613 62.5853 159.762 61.108C157.924 59.6406 156.022 56.5846 156.389 49.4348C155.754 49.2722 155.176 49.158 154.676 49.0781C152.681 56.768 155.113 64.629 160.787 68.8805C167.033 73.5629 177.464 74.0651 181.593 68.6166C183.521 66.0764 183.589 62.887 183.357 60.727C181.317 66.5764 179.159 68.1387 177.468 68.3862Z" fill="url(#paint21_linear_420_1650)"/>
<path d="M184.499 53.7956L181.922 53.1721C181.765 53.1339 181.599 53.1577 181.458 53.2387C181.318 53.3198 181.214 53.4517 181.168 53.6073L179.383 59.6707C179.359 59.7538 179.352 59.8411 179.363 59.9271C179.374 60.013 179.402 60.0958 179.446 60.1703C179.491 60.2448 179.55 60.3094 179.62 60.3601C179.691 60.4107 179.771 60.4463 179.855 60.4646L182.369 61.0082C182.523 61.0418 182.684 61.0164 182.82 60.9372C182.956 60.858 183.058 60.7306 183.105 60.5802L184.951 54.5988C184.977 54.5165 184.986 54.4296 184.978 54.3436C184.969 54.2576 184.942 54.1744 184.9 54.099C184.858 54.0237 184.8 53.9579 184.731 53.9057C184.662 53.8535 184.583 53.816 184.499 53.7956Z" fill="url(#paint22_linear_420_1650)"/>
<path d="M183.108 60.5761C183.108 60.5761 184.133 58.8169 184.297 58.1742C184.461 57.5315 182.972 55.8516 182.972 55.8516C182.972 55.8516 182.581 57.1434 182.853 58.2156C183.125 59.2878 183.108 60.5761 183.108 60.5761Z" fill="url(#paint23_linear_420_1650)"/>
<path d="M168.369 82.0319C165.715 68.9434 164.538 68.7637 162.718 60.1065C161.891 56.1782 161.684 54.0766 159.751 51.9808C157.899 49.9742 155.591 49.1924 151.587 48.2715C147.661 47.3648 142.17 45.9888 135.327 45.8126C132.655 45.7412 117.358 47.5538 117.742 52.9167C118.061 57.358 135.097 60.0687 140.941 60.8698C141.761 64.7361 142.857 71.4273 141.344 79.3083C139.87 86.9939 136.847 90.9608 138.874 93.1472C140.413 94.8036 143.676 94.1637 145.779 93.7514C152.185 92.4959 152.826 88.6103 157.771 87.9954C163.207 87.3192 166.505 91.515 168.512 89.8851C169.608 88.9884 169.398 87.1087 168.369 82.0319Z" fill="url(#paint24_linear_420_1650)"/>
<path style="mix-blend-mode:multiply" opacity="0.5" d="M157.377 77.9257C155.886 73.1663 151.88 73.9067 149.321 69.2101C146.56 64.1453 150.101 61.2406 147.22 56.0789C145.586 53.1541 142.31 50.2566 138.545 49.7907C135.072 49.3627 133.488 51.2845 127.053 53.3332C124.543 54.1315 121.975 54.734 119.372 55.1351C123.821 58.2638 136.146 60.2063 140.944 60.8632C141.764 64.7296 142.859 71.4207 141.347 79.3017C139.872 86.9873 136.85 90.9542 138.876 93.1406C140.415 94.797 143.679 94.1571 145.781 93.7448C152.187 92.4893 152.828 88.6037 157.773 87.9888C158.244 87.9307 158.718 87.9069 159.193 87.9175C158.775 87.1771 158.434 86.3963 158.175 85.587C157.086 82.1844 158.3 80.8725 157.377 77.9257Z" fill="url(#paint25_linear_420_1650)"/>
<path d="M139.373 58.5391C139.373 58.5391 142.156 59.5292 142.937 62.8141C143.718 66.0991 143.404 64.788 142.413 64.5312C141.421 64.2743 137.814 59.1226 139.373 58.5391Z" fill="url(#paint26_linear_420_1650)"/>
<path d="M120.396 51.2476C120.396 51.2476 135.577 50.2197 139.342 57.4537L138.971 60.7543C138.971 60.7543 109.339 55.7559 120.396 51.2476Z" fill="url(#paint27_linear_420_1650)"/>
<path d="M151.893 43.0957C151.893 43.0957 150.948 47.0512 150.465 47.1518C149.982 47.2524 146.102 47.0526 146.102 47.0526C146.102 47.0526 153.068 50.5016 156.964 49.9388L154.679 48.7675C154.679 48.7675 153.357 47.0391 153.323 44.9468L151.893 43.0957Z" fill="url(#paint28_linear_420_1650)"/>
<path d="M156.251 44.2755C156.972 43.7883 157.393 42.6512 157.073 41.7317C156.796 40.9399 156.054 40.5868 155.61 40.3764C154.325 39.7636 152.441 39.7443 151.431 40.7758C150.833 41.3872 151.067 43.162 151.091 43.4751C151.119 43.8318 151.325 44.018 151.469 44.3311C151.669 44.7591 151.98 45.4418 152.479 46.5732C152.661 46.2879 152.867 46.0187 153.095 45.7685C153.39 45.4439 153.726 45.1584 154.094 44.9189C155.086 44.3019 155.569 44.7385 156.251 44.2755Z" fill="url(#paint29_linear_420_1650)"/>
<path d="M151.594 45.4557C151.594 45.4557 151.981 47.2013 153.774 47.6871C155.378 48.1215 156.813 44.6818 156.066 43.5918C155.817 43.2287 155.182 42.8963 154.585 42.862C154.233 42.842 154.078 42.9383 153.502 42.8948C152.971 42.8542 152.852 42.7522 152.662 42.8235C152.425 42.9155 152.163 43.2515 152.115 44.3822C151.92 43.977 151.6 43.7401 151.305 43.7708C151.201 43.7877 151.104 43.8334 151.026 43.9028C150.669 44.2331 150.86 44.8722 151.594 45.4557Z" fill="url(#paint30_linear_420_1650)"/>
<path d="M152.664 42.5922C152.72 42.6749 152.392 42.8775 152.235 43.272C151.936 44.036 152.403 45.2351 153.178 45.5889C153.635 45.7972 153.864 45.5561 154.677 45.7416C155.072 45.8331 155.45 45.9872 155.797 46.1981C155.752 47.1333 155.229 47.9023 154.525 48.1006C153.768 48.3146 153.073 47.7903 152.783 47.5713C152.589 47.4244 151.966 46.9557 151.819 46.1874C151.667 45.3871 152.176 45.1117 151.897 44.5089C151.754 44.205 151.498 44.0096 151.367 43.4675C151.339 43.3516 151.32 43.2338 151.31 43.1151C151.864 42.8247 152.582 42.4731 152.664 42.5922Z" fill="url(#paint31_linear_420_1650)"/>
<path d="M155.12 46.3187C155.12 46.3187 154.72 46.3794 154.145 46.1461C154.117 46.1347 154.083 46.1325 154.074 46.1461C154.041 46.1967 154.331 46.5741 154.711 46.5955C154.981 46.6105 155.252 46.4436 155.239 46.3729C155.234 46.3437 155.177 46.3273 155.12 46.3187Z" fill="url(#paint32_linear_420_1650)"/>
<defs>
<linearGradient id="paint0_linear_420_1650" x1="51.7458" y1="-0.205658" x2="153.461" y2="176.471" gradientUnits="userSpaceOnUse">
<stop stop-color="#E38DDD"/>
<stop offset="1" stop-color="#9571F6"/>
</linearGradient>
<linearGradient id="paint1_linear_420_1650" x1="16.4806" y1="52.2281" x2="111.302" y2="145.672" gradientUnits="userSpaceOnUse">
<stop stop-color="#FFC444"/>
<stop offset="1" stop-color="#F36F56"/>
</linearGradient>
<linearGradient id="paint2_linear_420_1650" x1="32.174" y1="91.7602" x2="130.362" y2="264.142" gradientUnits="userSpaceOnUse">
<stop stop-color="#FF9085"/>
<stop offset="1" stop-color="#FB6FBB"/>
</linearGradient>
<linearGradient id="paint3_linear_420_1650" x1="84.8471" y1="46.9394" x2="-51.1569" y2="251.623" gradientUnits="userSpaceOnUse">
<stop stop-color="#26264F"/>
<stop offset="1" stop-color="#444B8C"/>
</linearGradient>
<linearGradient id="paint4_linear_420_1650" x1="130.607" y1="67.1376" x2="107.705" y2="118.516" gradientUnits="userSpaceOnUse">
<stop stop-color="#AB316D"/>
<stop offset="1" stop-color="#792D3D"/>
</linearGradient>
<linearGradient id="paint5_linear_420_1650" x1="88969.8" y1="61187.3" x2="-68881.6" y2="228616" gradientUnits="userSpaceOnUse">
<stop stop-color="#26264F"/>
<stop offset="1" stop-color="#444B8C"/>
</linearGradient>
<linearGradient id="paint6_linear_420_1650" x1="118598" y1="87652.7" x2="-20278.9" y2="251881" gradientUnits="userSpaceOnUse">
<stop stop-color="#AB316D"/>
<stop offset="1" stop-color="#792D3D"/>
</linearGradient>
<linearGradient id="paint7_linear_420_1650" x1="112372" y1="106951" x2="-16355.9" y2="232713" gradientUnits="userSpaceOnUse">
<stop stop-color="#AB316D"/>
<stop offset="1" stop-color="#792D3D"/>
</linearGradient>
<linearGradient id="paint8_linear_420_1650" x1="75.2728" y1="57.8885" x2="59.381" y2="87.8447" gradientUnits="userSpaceOnUse">
<stop stop-color="#AA80F9"/>
<stop offset="1" stop-color="#6165D7"/>
</linearGradient>
<linearGradient id="paint9_linear_420_1650" x1="82413" y1="66272.6" x2="49811.1" y2="115364" gradientUnits="userSpaceOnUse">
<stop stop-color="#FFC444"/>
<stop offset="1" stop-color="#F36F56"/>
</linearGradient>
<linearGradient id="paint10_linear_420_1650" x1="66783.9" y1="147559" x2="-18275" y2="233320" gradientUnits="userSpaceOnUse">
<stop stop-color="#E38DDD"/>
<stop offset="1" stop-color="#9571F6"/>
</linearGradient>
<linearGradient id="paint11_linear_420_1650" x1="111576" y1="86540.5" x2="-20811.3" y2="237050" gradientUnits="userSpaceOnUse">
<stop stop-color="#FF9085"/>
<stop offset="1" stop-color="#FB6FBB"/>
</linearGradient>
<linearGradient id="paint12_linear_420_1650" x1="106411" y1="117279" x2="34925" y2="240194" gradientUnits="userSpaceOnUse">
<stop stop-color="#FFC444"/>
<stop offset="1" stop-color="#F36F56"/>
</linearGradient>
<linearGradient id="paint13_linear_420_1650" x1="169.186" y1="128.873" x2="174.212" y2="128.728" gradientUnits="userSpaceOnUse">
<stop stop-color="#311944"/>
<stop offset="1" stop-color="#6B3976"/>
</linearGradient>
<linearGradient id="paint14_linear_420_1650" x1="5236.08" y1="6694.4" x2="4982.65" y2="6070.53" gradientUnits="userSpaceOnUse">
<stop stop-color="#FFC444"/>
<stop offset="1" stop-color="#F36F56"/>
</linearGradient>
<linearGradient id="paint15_linear_420_1650" x1="35113.6" y1="73068.5" x2="41369.8" y2="70298" gradientUnits="userSpaceOnUse">
<stop stop-color="#311944"/>
<stop offset="1" stop-color="#6B3976"/>
</linearGradient>
<linearGradient id="paint16_linear_420_1650" x1="34219.3" y1="67105.7" x2="37568.7" y2="67105.7" gradientUnits="userSpaceOnUse">
<stop stop-color="#311944"/>
<stop offset="1" stop-color="#6B3976"/>
</linearGradient>
<linearGradient id="paint17_linear_420_1650" x1="11519.6" y1="6450.35" x2="11815.4" y2="6450.35" gradientUnits="userSpaceOnUse">
<stop stop-color="#311944"/>
<stop offset="1" stop-color="#6B3976"/>
</linearGradient>
<linearGradient id="paint18_linear_420_1650" x1="6891.92" y1="4476.95" x2="6784.13" y2="4005.64" gradientUnits="userSpaceOnUse">
<stop stop-color="#FFC444"/>
<stop offset="1" stop-color="#F36F56"/>
</linearGradient>
<linearGradient id="paint19_linear_420_1650" x1="68252.6" y1="55554.2" x2="82939.8" y2="74402.2" gradientUnits="userSpaceOnUse">
<stop stop-color="#311944"/>
<stop offset="1" stop-color="#6B3976"/>
</linearGradient>
<linearGradient id="paint20_linear_420_1650" x1="69532.2" y1="16896.9" x2="64270.1" y2="28654.1" gradientUnits="userSpaceOnUse">
<stop stop-color="#FF9085"/>
<stop offset="1" stop-color="#FB6FBB"/>
</linearGradient>
<linearGradient id="paint21_linear_420_1650" x1="63057.7" y1="18626.2" x2="75119.2" y2="18278.6" gradientUnits="userSpaceOnUse">
<stop stop-color="#FF9085"/>
<stop offset="1" stop-color="#FB6FBB"/>
</linearGradient>
<linearGradient id="paint22_linear_420_1650" x1="14665.2" y1="7299.58" x2="14173" y2="5662.26" gradientUnits="userSpaceOnUse">
<stop stop-color="#26264F"/>
<stop offset="1" stop-color="#444B8C"/>
</linearGradient>
<linearGradient id="paint23_linear_420_1650" x1="4202.32" y1="3905.91" x2="4235.68" y2="3904.95" gradientUnits="userSpaceOnUse">
<stop stop-color="#FFC444"/>
<stop offset="1" stop-color="#F36F56"/>
</linearGradient>
<linearGradient id="paint24_linear_420_1650" x1="84341.9" y1="45439.9" x2="120752" y2="44390.4" gradientUnits="userSpaceOnUse">
<stop stop-color="#FF9085"/>
<stop offset="1" stop-color="#FB6FBB"/>
</linearGradient>
<linearGradient id="paint25_linear_420_1650" x1="66343.9" y1="43328.9" x2="88011.5" y2="42704.3" gradientUnits="userSpaceOnUse">
<stop stop-color="#FF9085"/>
<stop offset="1" stop-color="#FB6FBB"/>
</linearGradient>
<linearGradient id="paint26_linear_420_1650" x1="8742.07" y1="5287.08" x2="9566.72" y2="6948.64" gradientUnits="userSpaceOnUse">
<stop stop-color="#FFC444"/>
<stop offset="1" stop-color="#F36F56"/>
</linearGradient>
<linearGradient id="paint27_linear_420_1650" x1="34832.2" y1="6577.02" x2="41217.8" y2="6392.95" gradientUnits="userSpaceOnUse">
<stop stop-color="#FF9085"/>
<stop offset="1" stop-color="#FB6FBB"/>
</linearGradient>
<linearGradient id="paint28_linear_420_1650" x1="23257" y1="4817.86" x2="23734.5" y2="6903.15" gradientUnits="userSpaceOnUse">
<stop stop-color="#FFC444"/>
<stop offset="1" stop-color="#F36F56"/>
</linearGradient>
<linearGradient id="paint29_linear_420_1650" x1="6214.68" y1="3320.01" x2="6913.76" y2="2531.69" gradientUnits="userSpaceOnUse">
<stop stop-color="#311944"/>
<stop offset="1" stop-color="#6B3976"/>
</linearGradient>
<linearGradient id="paint30_linear_420_1650" x1="9465.99" y1="3373.27" x2="9173.83" y2="4405.14" gradientUnits="userSpaceOnUse">
<stop stop-color="#FFC444"/>
<stop offset="1" stop-color="#F36F56"/>
</linearGradient>
<linearGradient id="paint31_linear_420_1650" x1="4530.76" y1="2609.55" x2="5140.89" y2="1993.18" gradientUnits="userSpaceOnUse">
<stop stop-color="#311944"/>
<stop offset="1" stop-color="#6B3976"/>
</linearGradient>
<linearGradient id="paint32_linear_420_1650" x1="155.151" y1="45.7136" x2="154.322" y2="47.4915" gradientUnits="userSpaceOnUse">
<stop stop-color="#FFC444"/>
<stop offset="1" stop-color="#F36F56"/>
</linearGradient>
</defs>
</svg>
