<svg width="164" height="150" viewBox="0 0 164 150" fill="none" xmlns="http://www.w3.org/2000/svg">
<path d="M3.3999 109.108L57.7176 15.4902L104.785 42.5301L50.4739 136.148L3.3999 109.108Z" fill="#FBBC04"/>
<path d="M159.557 108.783L105.206 15.1313C98.1899 1.92745 81.7495 -3.11716 68.4794 3.8641C55.2093 10.8454 50.1461 27.2037 57.1557 40.4075C57.4634 40.9865 57.7911 41.5522 58.1389 42.1113L112.49 135.763C119.821 148.793 136.381 153.445 149.478 146.151C162.574 138.857 167.249 122.379 159.918 109.348C159.798 109.135 159.678 108.929 159.557 108.723V108.783Z" fill="#4285F4"/>
<path d="M27.2044 149.459C42.213 149.459 54.3799 137.352 54.3799 122.419C54.3799 107.485 42.213 95.3789 27.2044 95.3789C12.1957 95.3789 0.0288086 107.485 0.0288086 122.419C0.0288086 137.352 12.1957 149.459 27.2044 149.459Z" fill="#34A853"/>
</svg>
