<svg width="283" height="214" viewBox="0 0 283 214" fill="none" xmlns="http://www.w3.org/2000/svg">
<g clip-path="url(#clip0_420_636)">
<path opacity="0.18" d="M37.0761 29.7264C22.5727 46.6392 16.3219 69.0381 12.1061 90.9326C7.76245 113.583 5.16761 136.535 4.34461 159.584C3.85769 173.112 4.64841 188.29 14.4658 197.587C18.1364 201.068 22.7516 203.357 27.3586 205.441C35.5695 209.168 44.1093 212.457 53.0693 213.466C67.9181 215.133 82.6712 210.468 96.8833 205.837C121.92 197.679 147.951 189.349 174.074 192.651C186.188 194.181 197.858 198.183 209.897 200.23C221.937 202.277 234.975 202.181 245.546 196.061C252.9 191.796 258.447 184.955 262.825 177.66C272.651 161.289 277.291 142.225 278.777 123.17C279.509 113.761 279.497 104.227 277.678 94.968C275.597 84.3876 271.219 74.42 266.8 64.59C261.39 52.5297 255.784 40.436 248.047 29.7181C240.311 19.0001 230.215 9.6245 217.934 4.78454C194.557 -4.41598 168.997 3.72149 145.375 7.42338C133.306 9.3035 120.821 10.5166 108.777 7.7944C102.98 6.4854 98.3274 3.79236 92.3804 3.57976C86.1087 3.35881 79.3877 4.83039 73.4032 6.56044C59.4325 10.6 46.5688 18.6499 37.0761 29.7264Z" fill="#68E1FD"/>
<path d="M137.597 89.0801H117.746V105.322H137.597V89.0801Z" fill="#68E1FD"/>
<path d="M137.597 89.0801H117.746V105.322H137.597V89.0801Z" fill="url(#paint0_linear_420_636)"/>
<path d="M154.302 55.7598H103.625C100.32 55.7598 97.6406 58.4437 97.6406 61.7545V89.4894C97.6406 92.8002 100.32 95.4842 103.625 95.4842H154.302C157.607 95.4842 160.286 92.8002 160.286 89.4894V61.7545C160.286 58.4437 157.607 55.7598 154.302 55.7598Z" fill="white"/>
<path d="M186.675 105.139H81.2314V108.503H186.675V105.139Z" fill="white"/>
<path d="M186.675 107.098H81.2314V108.503H186.675V107.098Z" fill="#D9DBE2"/>
<path opacity="0.18" d="M140.747 186.497C202.915 186.497 253.312 180.682 253.312 173.508C253.312 166.333 202.915 160.518 140.747 160.518C78.5795 160.518 28.1826 166.333 28.1826 173.508C28.1826 180.682 78.5795 186.497 140.747 186.497Z" fill="#68E1FD"/>
<path d="M224.621 133.283C224.621 133.283 236.199 170.694 234.942 171.611C233.685 172.528 232.891 170.035 232.891 170.035L221.213 135.268L224.621 133.283Z" fill="#68E1FD"/>
<path d="M199.735 137.601L199.627 137.872L186.434 171.777C186.235 172.3 185.933 172.779 185.548 173.186C185.473 173.276 185.38 173.35 185.276 173.403C185.171 173.456 185.057 173.487 184.94 173.494C184.823 173.501 184.706 173.484 184.595 173.444C184.485 173.404 184.384 173.341 184.299 173.261C183.109 172.285 195.502 137.488 195.502 137.488L199.735 137.601Z" fill="#68E1FD"/>
<path d="M209.611 135.113C209.611 135.113 209.194 174.275 207.725 174.763C206.256 175.25 206.256 172.632 206.256 172.632L205.757 135.947L209.611 135.113Z" fill="#68E1FD"/>
<path d="M222.553 133.736C222.553 133.736 235.154 170.005 233.893 170.905C232.632 171.806 232.89 170.03 232.89 170.03L221.213 135.262L222.553 133.736Z" fill="url(#paint1_linear_420_636)"/>
<path d="M199.622 137.873L186.43 171.778C186.23 172.302 185.929 172.781 185.543 173.187C185.589 169.302 196.817 137.811 196.817 137.811L199.622 137.873Z" fill="url(#paint2_linear_420_636)"/>
<path d="M209.61 135.113C209.61 135.113 209.194 174.275 207.725 174.763C206.256 175.25 207.163 171.811 207.163 171.811L207.683 135.543L209.61 135.113Z" fill="url(#paint3_linear_420_636)"/>
<path d="M235.213 124.333C232.449 130.715 226.232 135.117 219.569 137.093C214.375 138.631 208.903 138.869 203.459 138.556C201.936 138.476 200.41 138.361 198.882 138.21C196.218 137.939 193.517 137.593 191.024 136.618C188.531 135.642 186.209 133.958 184.944 131.578C184.173 130.011 183.747 128.296 183.696 126.55C183.433 122.073 184.848 117.312 188.273 114.461C190.962 112.21 194.47 111.334 197.258 109.246C200.38 106.899 203.584 104.802 206.889 102.692C210.193 100.583 213.547 98.4527 217.243 97.1104C220.938 95.768 225.058 95.2636 228.796 96.4517C230.09 96.8686 232.083 97.8732 234.035 102.659C236.869 109.5 238.151 117.542 235.213 124.333Z" fill="#2F3653"/>
<path d="M214.75 79.0016C213.423 80.8234 209.378 82.5826 209.378 82.5826C208.911 80.7817 209.906 80.1147 209.906 80.1147C210.942 80.2064 212.303 77.6759 211.858 76.8797C211.309 75.8875 210.547 76.2419 210.039 76.6671C209.516 76.2586 209.082 75.7457 208.766 75.1609C208.45 74.5762 208.259 73.9321 208.204 73.2695C208.137 72.49 209.482 70.2888 206.906 69.3342C204.329 68.3795 200.701 69.3342 200.701 69.3342C200.701 69.3342 199.764 66.9288 202.781 65.7782C209.552 63.1852 217.601 67.6083 217.152 75.208C217.031 77.2674 216.894 79.6061 218.317 81.0943C219.095 81.9031 220.194 82.295 221.23 82.7035C222.583 83.2288 223.956 83.8666 224.905 84.9713C225.854 86.0761 226.257 87.7686 225.504 89.015C225.146 89.6112 224.526 90.1823 224.672 90.8618C224.776 91.1667 224.955 91.4405 225.192 91.6581C226.747 93.3291 227.746 95.4427 228.051 97.707C228.194 98.8341 228.093 99.9788 227.754 101.063C227.415 102.147 226.846 103.145 226.087 103.989C224.006 106.178 220.676 106.749 217.693 106.299C215.279 105.932 212.89 104.931 211.25 103.118C208.753 100.354 208.441 96.3396 207.746 92.6961C207.705 92.2465 207.524 91.821 207.23 91.4788C206.502 90.7951 205.332 91.3496 204.338 91.3246C202.619 91.287 201.466 89.3986 201.425 87.681C201.383 85.9635 202.078 84.346 202.428 82.641C202.777 80.9359 202.669 78.9683 201.366 77.8469C200.879 77.43 200.272 77.1673 199.747 76.7922C197.425 75.1246 197.563 71.2769 199.544 69.2091C201.525 67.1414 204.704 66.6328 207.521 67.1247C209.785 67.5416 214.896 68.7923 215.945 70.8766C216.993 72.961 216.086 77.1757 214.75 79.0016Z" fill="#FC682D"/>
<path d="M197.517 89.8613L186.601 101.117L172.11 93.4632C170.32 92.3593 168.247 91.8042 166.146 91.8665C165.93 91.8665 165.638 91.9916 165.688 92.2C165.738 92.4085 165.98 92.4251 166.017 92.6169C166.054 92.8087 165.821 92.9254 165.63 92.9671L162.167 93.7383C161.66 93.855 161.044 94.0926 161.015 94.6137C161.03 94.7872 161.085 94.9549 161.175 95.1037C161.265 95.2526 161.388 95.3788 161.535 95.4725C163.82 97.3777 167.024 97.7945 169.987 97.5194C170.274 97.4777 170.566 97.4777 170.853 97.5194C171.135 97.5899 171.405 97.7038 171.652 97.8571C172.771 98.4782 173.856 99.1587 174.902 99.8956C177.745 101.897 180.287 104.302 183.171 106.245C183.752 106.704 184.444 106.999 185.177 107.099C185.829 107.089 186.47 106.934 187.054 106.645C191.216 104.977 195.482 103.197 198.649 100.021C198.929 99.7672 199.158 99.4613 199.323 99.1202C199.437 98.7749 199.492 98.4126 199.485 98.0488C199.527 96.5231 199.507 94.9945 199.427 93.4632C199.439 92.7662 199.287 92.0761 198.981 91.4496C198.82 91.1402 198.561 90.8927 198.245 90.7457C197.929 90.5987 197.574 90.5604 197.234 90.6367" fill="#FDBAAC"/>
<path d="M190.612 101.732C190.258 102.004 189.874 102.236 189.468 102.424C188.586 102.795 187.591 102.724 186.634 102.699C185.184 102.662 183.733 102.749 182.297 102.958C181.938 102.983 181.59 103.093 181.282 103.279C181.131 103.376 181.015 103.519 180.952 103.688C180.889 103.856 180.882 104.04 180.932 104.213C181.029 104.4 181.172 104.56 181.349 104.675C182.51 105.613 183.758 106.589 185.24 106.76C187.013 106.993 188.711 106.051 190.234 105.142L193.422 103.304C193.898 103.071 194.314 102.73 194.637 102.307C195.082 101.62 195.186 99.6978 194.104 99.4977C193.218 99.3226 191.299 101.219 190.612 101.732Z" fill="#DEA095"/>
<path d="M199.123 87.0457C199.332 86.9778 199.549 86.9331 199.768 86.9123C200.867 86.8081 202.115 87.0791 203.218 87.1291C204.77 87.1958 206.327 87.2333 207.883 87.1833C210.85 87.0958 215.72 86.7664 218.375 90.0181C221.667 94.0326 218.828 101.09 216.531 106.385C215.699 108.361 215.258 114.76 215.699 119.437C215.699 119.437 206.46 122.676 198.332 120.988L195.544 110.508C195.39 109.966 194.907 109.39 194.67 108.874C194.026 107.472 193.557 105.996 193.272 104.48C192.939 102.729 192.439 99.8147 193.188 98.1305C193.301 97.8721 193.688 97.672 193.721 97.401C193.767 97.0258 193.272 96.4005 193.118 96.0628C192.61 94.9706 192.202 93.8349 191.898 92.6694C191.83 92.4908 191.821 92.2948 191.873 92.1108C191.946 91.9658 192.055 91.8423 192.19 91.7523C193.409 90.7726 194.632 89.793 195.935 88.9092C196.822 88.2964 197.999 87.3876 199.123 87.0457Z" fill="white"/>
<path d="M209.415 79.6309C208.799 81.5944 206.223 85.0503 203.277 84.254C203.623 84.882 203.785 85.5954 203.744 86.3117C203.702 87.028 203.46 87.718 203.043 88.302C203.043 88.302 204.001 90.749 210.468 87.1305C210.468 87.1305 208.72 86.9846 209.194 83.3786C209.337 82.1424 209.773 80.9585 210.468 79.9268C210.388 80.0041 210.29 80.059 210.183 80.0863C210.076 80.1135 209.963 80.1121 209.856 80.0822C209.75 80.0522 209.653 79.9948 209.576 79.9156C209.498 79.8364 209.443 79.7382 209.415 79.6309Z" fill="#FDBAAC"/>
<path d="M209.12 80.6191C209.12 80.6191 207.7 86.6597 205.295 86.4054C202.89 86.1511 203.043 82.4743 203.043 82.4743L209.12 80.6191Z" fill="#DEA095"/>
<path d="M221.679 92.2083C221.845 90.3552 221.294 88.509 220.139 87.0515C218.791 85.4757 216.723 84.767 214.796 84C213.963 83.6748 213.098 83.2537 212.752 82.445C212.523 81.9114 212.573 81.3027 212.482 80.7275C212.39 80.1522 212.066 79.5268 211.475 79.4476C211.296 79.4371 211.116 79.4623 210.947 79.5217C210.778 79.5811 210.622 79.6735 210.488 79.7936C209.265 80.7358 208.874 82.4658 209.153 83.9874C209.431 85.5091 210.268 86.8556 211.133 88.1312C211.999 89.4069 212.915 90.6825 213.406 92.1458C213.776 93.2588 213.884 94.4428 214.155 95.585C214.754 98.0863 216.856 99.5871 219.324 98.1613C221.026 97.1733 221.558 93.9634 221.679 92.2083Z" fill="#FC682D"/>
<path d="M202.76 65.7852C202.76 65.7852 198.84 66.0144 197.675 71.7048C196.509 77.3952 202.173 77.2994 202.173 77.2994L205.615 67.4277L202.76 65.7852Z" fill="#FC682D"/>
<path d="M205.374 84.5462C201.824 84.8422 199.668 81.5239 199.269 77.1883C199.227 76.7131 199.211 76.2295 199.211 75.7334C199.204 74.3198 199.366 72.9105 199.693 71.5354C201.246 64.8654 210.705 67.5459 210.705 67.5459C218.117 70.8768 211.542 84.0335 205.374 84.5462Z" fill="#FDBAAC"/>
<path d="M202.835 67.3949C203.759 70.6091 204.995 75.1781 208.129 76.9415C208.487 77.1416 209.148 77.4792 209.577 77.3917C210.006 77.3041 209.993 76.9123 210.384 76.5579C210.506 76.4366 210.662 76.3558 210.831 76.3267C211 76.2976 211.174 76.3216 211.329 76.3953C211.457 76.492 211.559 76.6185 211.626 76.7639C211.694 76.9093 211.724 77.069 211.716 77.2291C211.717 77.6235 211.617 78.0115 211.424 78.3555C211.232 78.6995 210.954 78.9879 210.617 79.1926C210.307 79.3349 210.01 79.5051 209.731 79.7012C209.419 80.0094 209.232 80.4222 209.206 80.8601C209.153 81.4496 209.268 82.0422 209.54 82.5681C209.811 83.0939 210.227 83.5312 210.738 83.8283C210.802 83.8685 210.875 83.8915 210.95 83.895C211.041 83.8764 211.123 83.828 211.183 83.7574L212.586 82.4734C213.254 81.9054 213.855 81.2635 214.379 80.56C215.023 79.6054 215.371 78.4812 215.378 77.3292C215.378 76.8081 215.17 76.2828 215.178 75.7825C215.266 75.123 215.441 74.4782 215.699 73.8649C216.013 73.0685 216.174 72.2199 216.173 71.3636C216.061 69.6961 214.675 68.3704 213.181 67.6117C210.817 66.4403 208.087 66.3069 205.448 66.2777C204.922 66.244 204.395 66.3148 203.896 66.4861C203.443 66.7404 203.255 67.2407 202.835 67.3949Z" fill="#FC682D"/>
<path d="M209.119 107.89L211.828 113.851C211.828 113.851 217.655 106.573 219.873 98.7145C221.812 91.7693 218.375 90.0225 218.375 90.0225C215.745 89.0554 213.959 92.8115 211.375 100.399C209.951 104.555 209.119 107.89 209.119 107.89Z" fill="#FDBAAC"/>
<path d="M211.829 113.84C211.829 113.84 211.933 108.992 209.573 108.029C207.213 107.066 190.675 104.469 190.675 104.469L189.123 106.261C189.123 106.261 205.361 115.641 211.829 113.84Z" fill="#FDBAAC"/>
<path d="M185.027 126.65L185.227 126.441C184.424 127.346 183.887 127.996 183.721 128.196C184.129 127.657 184.564 127.142 185.027 126.65Z" fill="#DC9ED5"/>
<path d="M216.685 127.6C216.202 130.422 214.28 132.848 211.936 134.495C209.593 136.142 206.855 137.109 204.113 137.943C202.494 138.439 201.487 140.519 200.026 141.382C199.494 141.643 199.033 142.03 198.682 142.508C198.149 143.37 198.415 144.488 198.682 145.463C199.922 149.779 201.17 154.094 202.427 158.407C203.047 160.55 203.676 162.822 203.085 164.977C202.494 167.133 200.23 168.988 198.12 168.275C193.994 161.605 189.869 154.935 185.743 148.265C185.743 148.265 183.708 140.211 187.978 133.361C189.821 130.41 204.262 118.228 204.262 118.228C207.954 117.691 211.708 117.441 215.274 117.236C215.694 120.713 217.284 124.148 216.685 127.6Z" fill="#68E1FD"/>
<path d="M204.275 118.216C204.275 118.216 189.539 130.23 187.991 133.349C183.667 142.049 185.756 148.252 185.756 148.252C182.149 154.063 178.542 159.875 174.935 165.686C172.438 165.74 169.072 165.061 168.947 162.551C168.962 161.844 169.129 161.149 169.438 160.513C172.157 153.729 174.874 146.947 177.591 140.169C179.201 136.133 180.87 132.015 183.45 128.555L183.679 128.254V128.229L183.712 128.188C183.879 127.988 184.416 127.354 185.219 126.433V126.408C187.562 123.785 192.136 119.091 196.364 117.236C196.364 117.236 201.27 118.591 204.229 118.228L204.275 118.216Z" fill="#68E1FD"/>
<path d="M204.275 118.216C204.275 118.216 189.539 130.23 187.991 133.349C183.667 142.049 185.756 148.252 185.756 148.252C182.149 154.063 178.542 159.875 174.935 165.686C172.438 165.74 169.072 165.061 168.947 162.551C168.962 161.844 169.129 161.149 169.438 160.513C172.157 153.729 174.874 146.947 177.591 140.169C179.201 136.133 180.87 132.015 183.45 128.555L183.679 128.254V128.229L183.712 128.188C183.879 127.988 184.416 127.354 185.219 126.433V126.408C187.562 123.785 192.136 119.091 196.364 117.236C196.364 117.236 201.27 118.591 204.229 118.228L204.275 118.216Z" fill="url(#paint4_linear_420_636)"/>
<path d="M196.709 172.089C195.744 172.981 194.458 173.873 194.504 175.19C194.499 175.321 194.535 175.449 194.608 175.557C194.742 175.69 194.923 175.765 195.111 175.766C198.083 176.095 200.846 174.282 203.156 172.376C203.738 171.897 204.346 171.347 204.483 170.605C204.621 169.863 204.229 169.116 203.892 168.433C203.345 167.321 202.898 166.164 202.556 164.973C202.66 165.327 201.166 166.586 200.913 166.807C200.38 167.274 199.593 167.611 199.177 168.178C198.761 168.745 198.674 169.429 198.345 169.992C197.912 170.772 197.36 171.479 196.709 172.089Z" fill="#EB9D80"/>
<path d="M166.038 166.513C164.993 166.884 163.782 167.084 163.125 167.972C162.996 168.13 162.919 168.323 162.904 168.526C162.904 169.077 163.541 169.36 164.078 169.485C166.221 169.923 168.435 169.614 170.599 169.302C170.938 169.308 171.267 169.185 171.52 168.959C171.773 168.732 171.932 168.419 171.964 168.08L172.817 165.446C172.853 165.369 172.864 165.283 172.846 165.2C172.81 165.119 172.749 165.052 172.672 165.008C172.087 164.598 171.464 164.245 170.811 163.953C169.933 163.536 169.875 163.574 169.288 164.27C168.418 165.288 167.298 166.061 166.038 166.513Z" fill="#EB9D80"/>
<path d="M188.902 104.138C187.192 103.867 185.269 103.646 183.887 104.684C183.231 105.249 182.693 105.939 182.306 106.714C182.035 107.177 181.761 107.731 181.981 108.215C182.202 108.698 182.743 108.849 183.23 108.969C184.807 109.353 186.505 109.711 188.016 109.12C189.131 108.703 190.034 107.756 191.204 107.477C191.401 107.45 191.592 107.385 191.765 107.285C191.925 107.152 192.038 106.971 192.086 106.768C192.789 104.417 190.467 104.359 188.902 104.138Z" fill="#FDBAAC"/>
<path d="M170.578 171.302C170.519 171.425 170.427 171.529 170.312 171.603C170.14 171.663 169.952 171.663 169.779 171.603C168.814 171.472 167.838 171.439 166.866 171.503C164.873 171.471 162.885 171.29 160.919 170.961C160.062 170.836 159.109 170.656 158.614 169.948C158.549 169.867 158.509 169.77 158.497 169.668C158.503 169.513 158.563 169.366 158.668 169.251C159.53 168.217 160.663 167.443 161.939 167.017C162.411 166.816 162.916 166.706 163.429 166.692C163.685 166.687 163.94 166.738 164.174 166.843C164.409 166.947 164.617 167.102 164.785 167.296C165.139 167.746 165.202 168.393 165.589 168.797C165.976 169.201 166.641 169.251 167.224 169.214C167.9 169.189 168.574 169.113 169.238 168.985C169.742 168.889 170.487 168.543 170.986 168.672C172.156 168.993 170.907 170.715 170.578 171.302Z" fill="#68E1FD"/>
<path d="M205.228 172.131C205.252 172.285 205.231 172.442 205.17 172.585C205.046 172.754 204.868 172.876 204.666 172.931C203.661 173.422 202.708 174.016 201.824 174.703C199.926 175.936 197.938 177.024 195.877 177.959C194.986 178.376 193.967 178.822 193.047 178.467C192.936 178.432 192.837 178.367 192.76 178.28C192.668 178.13 192.632 177.953 192.66 177.779C192.815 176.251 193.392 174.796 194.325 173.577C194.646 173.088 195.057 172.663 195.536 172.327C195.775 172.159 196.048 172.046 196.336 171.996C196.623 171.945 196.918 171.959 197.2 172.035C197.82 172.235 198.278 172.814 198.915 172.944C199.552 173.073 200.205 172.706 200.742 172.314C201.368 171.858 201.957 171.355 202.506 170.809C202.923 170.392 203.401 169.6 203.963 169.4C205.253 168.937 205.182 171.355 205.228 172.131Z" fill="#68E1FD"/>
<path d="M220.926 92.3863C221.335 93.6595 221.614 94.9711 221.758 96.3008L222.012 98.0934C222.102 98.4649 222.082 98.8546 221.954 99.2148C221.658 99.8443 220.464 99.5858 219.873 99.6817C218.816 99.8526 217.763 100.019 216.706 100.182C214.592 100.507 212.478 100.818 210.363 101.116C210.252 100.04 210.279 98.9541 210.443 97.8849C210.638 96.8677 211.075 95.9131 211.325 94.9084C211.529 94.0747 211.604 93.2409 211.816 92.4071C212.263 90.694 213.282 89.1859 214.704 88.1341C216.931 86.5041 220.197 90.452 220.88 92.2279L220.926 92.3863Z" fill="white"/>
<path d="M235.213 124.332C232.45 130.715 226.232 135.117 219.569 137.093C214.376 138.631 208.903 138.869 203.459 138.556C203.459 138.185 203.676 137.96 204.129 137.939C209.344 137.677 211.504 130.811 213.069 127.317C214.634 123.824 215.703 119.434 225.887 115.386C235.808 111.451 234.597 104.047 235.092 105.54C237.435 112.56 238.151 117.542 235.213 124.332Z" fill="#2F3653"/>
<path d="M235.925 124.624C233.161 131.002 226.944 135.405 220.281 137.385C215.087 138.919 208.112 139.182 202.669 138.865C202.669 138.498 203.676 137.96 204.13 137.939C209.344 137.677 211.621 129.523 213.185 126.029C214.75 122.536 216.186 120.485 225.887 115.386C240.382 107.774 229.895 97.4187 229.711 96.7559C233.186 97.8773 235.122 104.952 235.613 106.444C237.956 113.464 238.863 117.829 235.925 124.624Z" fill="white"/>
<path opacity="0.23" d="M216.236 136.267C211.828 137.393 207.163 137.434 202.873 138.956C204.233 138.472 207.084 139.223 208.599 139.177C210.681 139.113 212.755 138.894 214.804 138.522C218.429 137.864 223.231 136.855 226.219 134.616C224.272 132.957 218.391 135.717 216.236 136.267Z" fill="#68E1FD"/>
<path d="M218.878 175.207C218.811 175.249 218.738 175.282 218.662 175.303C218.526 175.34 218.385 175.347 218.246 175.324C216.702 175.132 209.124 138.985 209.124 138.985L210.16 138.38C210.235 138.339 210.322 138.293 210.397 138.259C210.661 138.148 210.944 138.091 211.231 138.092C211.517 138.093 211.801 138.152 212.064 138.265C212.327 138.378 212.564 138.544 212.762 138.751C212.96 138.959 213.114 139.204 213.214 139.473V139.514C213.258 139.623 213.29 139.736 213.31 139.852L219.27 172.956C219.27 172.956 219.623 174.699 218.878 175.207Z" fill="#68E1FD"/>
<path d="M219.049 172.232C219.049 172.232 218.986 174.317 218.878 175.209C218.812 175.626 218.749 175.792 218.662 175.305C217.917 170.932 211.728 144.089 210.393 138.269C210.656 138.158 210.94 138.101 211.226 138.102C211.513 138.103 211.796 138.161 212.059 138.275C212.322 138.388 212.56 138.553 212.758 138.761C212.955 138.968 213.109 139.214 213.21 139.482V139.524L219.049 172.232Z" fill="url(#paint5_linear_420_636)"/>
<path d="M59.2787 133.283C59.2787 133.283 47.7218 170.694 48.9703 171.611C50.2188 172.528 51.0178 170.035 51.0178 170.035L62.7038 135.268L59.2787 133.283Z" fill="#68E1FD"/>
<path d="M84.1655 137.602L84.2737 137.873L97.4662 171.777C97.6658 172.301 97.9671 172.78 98.3526 173.187C98.4275 173.277 98.5202 173.351 98.6247 173.404C98.7293 173.457 98.8436 173.488 98.9607 173.495C99.0777 173.502 99.1949 173.485 99.305 173.445C99.4152 173.405 99.516 173.342 99.6011 173.262C100.808 172.286 88.4146 137.506 88.4146 137.506L84.1655 137.602Z" fill="#68E1FD"/>
<path d="M74.3149 135.113C74.3149 135.113 74.7311 174.275 76.196 174.763C77.6609 175.25 77.6859 172.632 77.6859 172.632L78.1853 135.947L74.3149 135.113Z" fill="#68E1FD"/>
<path d="M61.3472 133.736C61.3472 133.736 48.7457 170.005 50.0067 170.905C51.2676 171.806 51.0096 170.03 51.0096 170.03L62.7039 135.266L61.3472 133.736Z" fill="url(#paint6_linear_420_636)"/>
<path d="M84.2734 137.873L97.4659 171.778C97.6655 172.302 97.9668 172.781 98.3523 173.187C98.3107 169.302 87.0784 137.811 87.0784 137.811L84.2734 137.873Z" fill="url(#paint7_linear_420_636)"/>
<path d="M74.3149 135.113C74.3149 135.113 74.7311 174.275 76.196 174.763C77.6609 175.25 76.7578 171.811 76.7578 171.811L76.2376 135.543L74.3149 135.113Z" fill="url(#paint8_linear_420_636)"/>
<path d="M48.6872 124.333C51.4505 130.715 57.6681 135.117 64.3309 137.093C69.5246 138.631 74.9972 138.869 80.4407 138.556C81.9638 138.476 83.4828 138.359 84.9977 138.206C87.6611 137.939 90.3621 137.593 92.8549 136.618C95.3477 135.642 97.6699 133.958 98.9351 131.578C99.7075 130.012 100.133 128.297 100.184 126.55C100.446 122.073 99.0308 117.312 95.6058 114.461C92.9173 112.21 89.409 111.334 86.6207 109.246C83.4995 106.899 80.295 104.802 76.9906 102.692C73.6863 100.583 70.332 98.4527 66.6364 97.1104C62.9409 95.768 58.8208 95.2636 55.0837 96.4517C53.7894 96.8686 51.7959 97.8732 49.8441 102.659C47.035 109.5 45.7491 117.542 48.6872 124.333Z" fill="#2F3653"/>
<path d="M58.5879 101.096C59.086 102.165 59.4737 103.282 59.7448 104.431C59.9945 105.831 60.4231 107.207 60.6687 108.62C61.1629 111.454 61.3983 114.327 61.372 117.204C61.372 118.342 61.372 119.626 62.1835 120.414C62.7329 120.943 63.5194 121.114 64.2644 121.248C65.7334 121.543 67.061 122.127 68.5301 122.377C70.131 122.61 71.7486 122.707 73.3659 122.669C78.1352 122.669 87.0078 122.135 86.7124 115.474C86.4276 107.953 85.7665 100.45 84.7314 92.9956C84.3735 90.4693 84.3152 87.5553 83.537 85.1249C82.8961 83.0781 80.5156 83.0614 78.543 83.2698L78.1685 83.3115C77.7856 83.349 77.4027 83.3991 77.0323 83.4449C74.406 83.7186 71.763 83.7967 69.1252 83.6784C66.1579 83.5867 61.4053 83.2907 58.488 86.0921C58.2852 86.2841 58.0948 86.4888 57.9178 86.7049C55.0171 90.2526 56.5736 96.0097 58.5879 101.096Z" fill="white"/>
<path opacity="0.43" d="M69.6498 100.357C69.9037 103.692 68.959 107.248 70.7069 110.037C70.787 110.194 70.9134 110.322 71.069 110.404C71.3199 110.453 71.58 110.424 71.8139 110.32C72.0832 110.267 72.3609 110.271 72.6285 110.332C72.8961 110.394 73.1476 110.512 73.3664 110.678C73.5851 110.844 73.7661 111.055 73.8974 111.297C74.0287 111.539 74.1072 111.805 74.1278 112.08C74.5425 111.767 74.8857 111.369 75.1347 110.912C75.3838 110.456 75.5328 109.951 75.5719 109.433C75.6093 108.853 75.5719 108.149 76.0546 107.832C76.6789 107.415 77.4862 108.153 77.6194 108.886C77.7526 109.62 77.5445 110.396 77.7526 111.113C78.0189 112.051 78.9553 112.663 79.9042 112.863C80.87 113.006 81.8515 113.006 82.8173 112.863C83.5184 112.758 84.2347 112.834 84.8982 113.084C85.5391 113.389 86.0343 114.118 85.8387 114.802C85.6057 115.615 84.6235 115.898 83.7912 116.053L72.3632 118.187L66.4828 119.288C65.1969 119.525 62.9246 120.663 62.883 118.758C62.8227 115.908 62.3775 113.08 61.5596 110.35C61.2308 109.249 61.1934 108.124 60.8729 107.056C60.4817 105.76 59.7617 104.518 59.3206 103.221C58.4316 100.615 57.8329 97.9177 57.5353 95.1795C57.3272 93.2535 57.4603 90.9315 59.1084 89.9268C60.2986 89.2056 61.9008 89.5099 63.0203 90.3437C64.3853 91.3567 65.0138 92.9492 66.2747 94.0164C67.7396 95.267 68.8799 96.6761 69.371 98.5812C69.5148 99.164 69.6081 99.7582 69.6498 100.357Z" fill="#D9DBE2"/>
<path d="M75.4758 88.4716C75.3816 88.5972 75.3097 88.7382 75.2636 88.8884C75.2541 89.0525 75.2871 89.2162 75.3593 89.3637C76.9657 93.3991 77.9728 97.6429 78.9716 101.87C79.8539 105.589 80.7403 109.336 80.9234 113.155C80.9509 113.434 80.9298 113.717 80.861 113.989C80.5697 114.931 79.342 115.239 78.8052 116.052L77.0198 114.01C76.9029 113.889 76.8098 113.748 76.7451 113.593C76.6911 113.376 76.6911 113.15 76.7451 112.934C77.3486 108.853 76.6785 104.688 75.7255 100.669C74.8932 97.2177 73.8653 93.7618 73.9277 90.2141C73.9277 89.7972 73.9277 89.2886 73.6072 89.0093C73.4254 88.886 73.2262 88.7905 73.0163 88.7259C72.778 88.6089 72.5653 88.4456 72.3907 88.2454C72.2161 88.0452 72.0831 87.8122 71.9994 87.5599C71.9157 87.3076 71.883 87.0412 71.9033 86.7761C71.9235 86.5111 71.9963 86.2527 72.1174 86.0161C72.4963 86.0094 72.8683 85.9138 73.2036 85.7368C73.5428 85.5603 73.9331 85.5086 74.3064 85.5909C75.1304 85.8744 75.9461 87.6962 75.4758 88.4716Z" fill="#68E1FD"/>
<path d="M58.4922 86.1004C61.4053 83.299 66.1621 83.5991 69.1294 83.6867C71.7672 83.805 74.4102 83.7269 77.0365 83.4532C77.4069 83.4074 77.7898 83.3573 78.1727 83.3198C76.6037 82.6778 74.3772 83.1072 72.7043 83.1614C70.1684 83.2448 67.634 83.399 65.1009 83.6241C62.7038 83.8451 60.0486 84.2578 58.4922 86.1004Z" fill="white"/>
<path d="M67.4899 75.6191C68.1557 77.7035 70.8442 79.7129 73.9904 78.8458C73.9904 78.8458 72.7419 82.5977 74.3025 84.8864C74.3025 84.8864 73.2829 87.5002 66.3662 83.6357C66.3662 83.6357 68.2348 83.4815 67.7271 79.6379C67.5772 78.3161 67.1103 77.0503 66.3662 75.9485C66.4518 76.0311 66.5576 76.0896 66.6731 76.1181C66.7885 76.1465 66.9094 76.1439 67.0234 76.1104C67.1375 76.077 67.2407 76.0139 67.3227 75.9277C67.4046 75.8414 67.4622 75.7349 67.4899 75.6191Z" fill="#D5846C"/>
<path d="M70.8813 80.4681C74.527 81.5437 77.4984 78.5338 78.8509 74.0815C78.9966 73.5979 79.1214 73.0894 79.2255 72.5724C79.5392 71.0945 79.6789 69.5848 79.6416 68.0743C79.4294 60.7831 68.9462 61.5251 68.9462 61.5251C60.4814 63.4136 64.5348 78.6005 70.8813 80.4681Z" fill="#EB9D80"/>
<path d="M93.5543 125.858L93.3379 125.633C94.1952 126.6 94.7737 127.3 94.9485 127.509C94.5156 126.942 94.0454 126.387 93.5543 125.858Z" fill="#DC9ED5"/>
<path d="M62.3333 62.033C62.9645 60.714 64.0177 59.6443 65.3256 58.9939C66.5241 58.3602 68.272 58.4853 69.2542 57.4973C69.7827 56.9679 69.8867 56.1633 70.1905 55.4796C70.502 54.7917 71.0237 54.2209 71.6804 53.8496C72.1086 53.6055 72.5869 53.4629 73.0787 53.4327C74.5977 53.3619 75.9669 54.5375 76.5537 55.934C76.9699 55.2462 77.8313 54.9794 78.6345 54.996C80.4823 55.0335 82.1761 56.3425 82.9377 58.0309C83.2504 58.6911 83.3934 59.419 83.3539 60.1487C83.312 60.8843 82.9938 61.5768 82.4633 62.0871C82.3517 62.2043 82.2061 62.2831 82.0471 62.3123C81.9698 62.3257 81.8902 62.3113 81.8224 62.2716C81.7546 62.2319 81.703 62.1696 81.6767 62.0955C81.1523 63.202 80.5 64.243 79.7332 65.1971C79.4751 65.5526 79.1335 65.8389 78.7386 66.0308C78.3459 66.1711 77.9213 66.1957 77.5151 66.1017C76.9576 65.9981 76.4242 65.7918 75.9419 65.493C75.8567 65.4235 75.7475 65.3905 75.6381 65.4013C75.5299 65.4305 75.4717 65.5389 75.4176 65.639C75.2683 65.9319 75.0599 66.1907 74.8055 66.3988C74.5512 66.6069 74.2566 66.7598 73.9402 66.8479C73.3858 66.9229 72.8227 66.9018 72.2755 66.7854C71.5252 66.6916 70.7661 66.6916 70.0157 66.7854C69.5572 66.8248 69.1133 66.9673 68.7173 67.2022C68.477 67.3828 68.2819 67.617 68.1475 67.8861C68.0132 68.1553 67.9432 68.4521 67.9432 68.753C67.9432 68.9907 68.1763 70.95 67.8891 70.9958C67.4272 71.0751 67.3356 70.308 66.932 70.0704C66.5283 69.8328 66.1371 70.1412 65.929 70.4873C65.7583 70.787 65.6846 71.1325 65.7181 71.4759C65.7517 71.8194 65.8908 72.144 66.1163 72.4049C66.256 72.5242 66.3646 72.6759 66.4326 72.8468C66.4563 73.0195 66.4273 73.1954 66.3493 73.3512L65.6377 75.1438C64.6845 72.8884 63.5415 70.7184 62.221 68.6572C61.6591 67.8234 61.0057 66.8938 61.2554 65.9308C61.5051 64.9678 62.5456 64.2633 62.3292 63.3253C62.2875 63.146 62.2001 62.9793 62.1752 62.7958C62.1555 62.5317 62.2103 62.2674 62.3333 62.033Z" fill="#FC682D"/>
<path d="M68.3428 117.375C68.3428 117.375 72.7833 128.476 76.3456 129.639C79.908 130.802 102.023 137.489 102.023 137.489L111.424 169.397L113.855 167.904C114.774 167.338 116.972 166.52 117.529 165.599C118.27 164.386 117.155 161.201 116.943 159.821L115.981 153.568C114.688 145.114 113.391 136.658 112.09 128.201C112.091 127.783 111.962 127.374 111.723 127.032C111.483 126.689 111.143 126.429 110.75 126.287C106.4 123.954 101.931 121.848 97.362 119.98C95.1231 119.063 92.8633 118.213 90.5868 117.404C90.1374 117.245 86.8039 115.419 86.7123 115.49C86.6832 115.503 84.3194 117.283 68.3428 117.375Z" fill="#2F3653"/>
<path d="M108.786 170.568C107.762 168.3 107.675 165.744 107.375 163.276C107.154 161.417 106.801 159.579 106.447 157.74L101.611 132.444C101.592 131.906 101.405 131.387 101.078 130.96C100.75 130.532 100.298 130.218 99.7841 130.06C92.0185 126.262 84.386 122.276 76.6869 118.329C76.6869 118.329 68.3636 115.302 62.1835 119.529C62.1835 119.529 61.3512 129.655 64.9136 130.818C72.7847 133.389 80.7182 135.737 88.7141 137.864C89.0897 137.94 89.4446 138.096 89.7545 138.322C90.1042 138.672 90.3468 139.114 90.4537 139.598C93.3669 148.481 96.28 157.369 98.9393 166.324C99.2556 167.38 99.5677 168.435 99.8757 169.488C100.113 170.293 100.292 172.406 100.879 172.965C101.657 173.753 102.685 172.965 103.725 172.548L109.402 170.255L91.0405 125.699L88.3687 124.323" fill="#4C516C"/>
<path d="M121.575 166.284C122.515 166.306 123.453 166.399 124.38 166.563C125.246 166.658 126.069 166.993 126.756 167.53C127.145 167.871 127.406 168.336 127.493 168.847C127.531 169.102 127.511 169.362 127.436 169.608C127.36 169.854 127.23 170.08 127.056 170.269C126.721 170.557 126.328 170.769 125.903 170.89C124.912 171.24 123.921 171.586 122.927 171.928C120.801 172.662 118.641 173.404 116.394 173.525C116.26 173.543 116.125 173.529 115.998 173.483C115.901 173.434 115.814 173.368 115.74 173.287C114.392 171.966 113.118 170.415 112.794 168.551C112.777 168.489 112.777 168.422 112.794 168.36C112.83 168.29 112.885 168.232 112.952 168.193C114.309 167.273 115.8 166.57 117.372 166.108C118.795 165.696 120.135 166.254 121.575 166.284Z" fill="#2F3653"/>
<path d="M110.817 170.56C111.757 170.582 112.695 170.675 113.622 170.839C114.488 170.934 115.311 171.269 115.998 171.806C116.387 172.147 116.648 172.613 116.735 173.123C116.773 173.378 116.753 173.638 116.678 173.884C116.602 174.13 116.472 174.356 116.298 174.545C115.963 174.833 115.57 175.045 115.145 175.166C114.154 175.516 113.163 175.862 112.169 176.204C110.043 176.938 107.883 177.68 105.636 177.801C105.496 177.823 105.352 177.808 105.219 177.759C105.122 177.71 105.035 177.644 104.961 177.563C103.613 176.242 102.339 174.691 102.015 172.827C101.998 172.765 101.998 172.698 102.015 172.636C102.051 172.566 102.106 172.509 102.173 172.469C103.53 171.549 105.021 170.846 106.593 170.384C108.037 169.972 109.356 170.526 110.817 170.56Z" fill="#2F3653"/>
<path d="M48.6873 124.332C51.4507 130.715 57.6682 135.117 64.331 137.093C69.5248 138.631 74.9974 138.869 80.4408 138.556C80.4408 138.185 80.2244 137.96 79.7708 137.939C74.5562 137.677 72.3963 130.811 70.8315 127.317C69.2668 123.824 68.1972 119.434 58.0136 115.386C48.0922 111.451 49.3033 104.047 48.808 105.54C46.4733 112.56 45.7492 117.542 48.6873 124.332Z" fill="#2F3653"/>
<path d="M47.9758 124.624C50.7391 131.002 56.9567 135.404 63.6195 137.384C68.8132 138.918 75.7882 139.181 81.2316 138.864C81.2316 138.497 80.2245 137.96 79.7709 137.939C74.5563 137.676 72.2799 129.522 70.7151 126.029C69.1503 122.535 67.6979 120.484 58.0137 115.394C43.5187 107.782 54.006 97.4265 54.1892 96.7637C50.7142 97.8851 48.779 104.96 48.2879 106.452C45.9449 113.464 45.0377 117.829 47.9758 124.624Z" fill="white"/>
<path opacity="0.23" d="M67.6645 136.267C72.0717 137.393 76.7369 137.434 81.0276 138.956C79.6667 138.472 76.816 139.223 75.3011 139.177C73.2208 139.113 71.1481 138.895 69.1003 138.522C65.4713 137.864 60.6729 136.855 57.6807 134.616C59.6283 132.957 65.5087 135.717 67.6645 136.267Z" fill="#68E1FD"/>
<path d="M65.0217 175.207C65.0889 175.25 65.1618 175.282 65.2381 175.303C65.3738 175.34 65.5157 175.347 65.6543 175.324C67.1983 175.132 74.7767 138.985 74.7767 138.985L73.7404 138.38C73.6655 138.339 73.5781 138.293 73.5032 138.259C73.2393 138.148 72.9557 138.091 72.6693 138.092C72.3829 138.093 72.0997 138.152 71.8366 138.265C71.5735 138.378 71.3359 138.544 71.1381 138.751C70.9404 138.959 70.7865 139.204 70.6857 139.473V139.514C70.6394 139.622 70.6059 139.736 70.5859 139.852L64.6264 172.956C64.6264 172.956 64.2768 174.699 65.0217 175.207Z" fill="#68E1FD"/>
<path d="M64.8511 172.232C64.8511 172.232 64.9135 174.317 65.0217 175.209C65.0883 175.626 65.1507 175.792 65.2381 175.305C65.983 170.932 72.1714 144.089 73.5073 138.269C73.2435 138.158 72.9598 138.101 72.6735 138.102C72.3871 138.103 72.1038 138.161 71.8407 138.275C71.5776 138.388 71.34 138.553 71.1423 138.761C70.9445 138.968 70.7906 139.214 70.6899 139.482V139.524L64.8511 172.232Z" fill="url(#paint9_linear_420_636)"/>
<path d="M73.3324 121.377C73.2407 121.923 72.9537 122.416 72.525 122.765C72.0634 123.147 71.5093 123.401 70.9186 123.499C69.7908 123.678 68.6381 123.366 67.5477 123.024C64.0558 121.94 60.6605 120.565 57.3974 118.914C56.3237 118.372 55.2209 117.763 54.5758 116.746C53.8642 115.603 53.8558 114.165 53.8933 112.823C54.0546 107.201 54.5395 101.593 55.3457 96.0269C55.6953 93.5631 55.6662 89.7487 57.1394 87.3975C57.5001 86.7799 58.0118 86.2646 58.6263 85.8999C59.2408 85.5353 59.9379 85.3333 60.6518 85.3131C62.9907 85.1713 64.9258 87.3975 65.3545 89.6986C65.7831 91.9998 65.1173 94.3593 64.5222 96.6272C63.6898 99.8955 62.9657 103.21 62.4413 106.545C62.1958 108.029 62.0044 109.638 62.716 110.968C63.0524 111.542 63.4733 112.062 63.9645 112.51C65.9436 114.441 68.1244 116.153 70.4692 117.617C71.8883 118.513 73.5779 119.722 73.3324 121.377Z" fill="white"/>
<path d="M106.301 101.895C106.187 102.481 105.946 103.035 105.595 103.517C105.244 104 104.792 104.4 104.27 104.688C103.226 105.258 102.105 105.672 100.941 105.918L96.1635 107.169C93.6665 107.827 90.6577 108.348 88.8057 106.543C88.4755 106.239 88.2264 105.857 88.081 105.432C87.9356 105.007 87.8987 104.552 87.9734 104.109C88.0252 103.884 88.123 103.673 88.2605 103.488C88.6125 103.099 89.0366 102.784 89.509 102.558C90.8866 101.74 92.0855 100.653 93.034 99.3605C90.204 98.3016 87.2576 97.2219 84.8896 95.3835C84.4487 95.0517 84.0315 94.6896 83.6411 94.2996C81.8998 92.5434 80.718 90.3091 80.2452 87.8796C80.0371 86.8624 79.6834 85.1616 80.0537 84.1527C80.5573 82.7729 81.5062 83.4107 82.8545 83.7984C88.0108 85.2825 92.7801 87.9297 97.0416 91.1521C99.4982 93.0345 101.822 95.0849 103.996 97.2886C105.248 98.5434 106.547 100.123 106.301 101.895Z" fill="white"/>
<path opacity="0.38" d="M94.9441 100.94C93.2795 102.095 91.5649 103.208 89.8336 104.275C89.33 104.588 88.6309 104.892 88.2022 104.476C88.0836 104.366 88.0058 104.219 87.9817 104.059C88.0335 103.834 88.1312 103.622 88.2688 103.437C88.6208 103.049 89.0449 102.734 89.5173 102.508C90.8949 101.69 92.0938 100.603 93.0422 99.3104C90.204 98.3016 87.2575 97.2218 84.8896 95.3834C84.8896 95.2708 84.8896 95.1583 84.8896 95.0332C84.8896 94.6163 84.8022 91.5815 84.5649 91.4355L95.2021 98.0306C95.6155 98.2255 95.9481 98.5587 96.1427 98.9727C96.4132 99.7439 95.6391 100.465 94.9441 100.94Z" fill="#D9DBE2"/>
<path d="M84.6356 107.144C84.3307 107.924 84.1686 108.753 84.157 109.591C84.0359 110.73 84.2183 111.881 84.6855 112.926C85.2099 113.939 86.2961 114.727 87.428 114.594C87.8151 114.536 88.1849 114.395 88.5113 114.178C88.8378 113.962 89.1129 113.677 89.3174 113.343C89.7239 112.67 89.941 111.899 89.9458 111.113C90.466 110.979 90.7532 110.421 90.8822 109.895C90.9513 109.361 91.1178 108.844 91.3733 108.37C91.6896 107.924 92.2348 107.674 92.5011 107.194C92.6108 106.967 92.6639 106.717 92.6559 106.465C92.648 106.213 92.5791 105.967 92.4553 105.748C91.7728 104.426 89.6379 103.284 88.2396 103.897C86.8412 104.509 85.2848 105.656 84.6356 107.144Z" fill="#EB9D80"/>
<path d="M71.2188 122.628C72.0969 123.937 73.953 124.112 75.5094 123.879C77.0977 123.649 78.6332 123.141 80.0456 122.378C80.4208 122.222 80.7278 121.936 80.9113 121.573C80.9904 121.318 80.9904 121.045 80.9113 120.79C80.7832 120.364 80.5694 119.969 80.2831 119.629C79.9968 119.289 79.6441 119.012 79.2466 118.814C78.4491 118.422 77.602 118.142 76.7288 117.98C75.318 117.659 73.8156 117.338 72.4548 117.813C71.0939 118.288 70.84 118.23 70.6902 119.597C70.6112 120.59 70.6486 121.79 71.2188 122.628Z" fill="#EB9D80"/>
<path d="M66.953 81.8945L69.7788 83.3619C70.7751 83.8264 71.7092 84.4146 72.5588 85.1128C72.0438 86.2593 71.7083 87.4784 71.5641 88.7272C70.8208 87.7994 69.9573 86.975 68.9964 86.2759C68.1016 85.684 67.0612 85.3171 66.2247 84.6376C65.2384 83.8372 66.4494 82.7116 66.953 81.8945Z" fill="white"/>
<path d="M75.8173 84.6785L77.1366 86.4377C77.2264 86.5385 77.2893 86.6604 77.3197 86.792C76.3038 86.315 75.2331 85.965 74.1319 85.7498C74.0715 85.7477 74.0123 85.7324 73.9584 85.7051C73.9045 85.6777 73.8572 85.6389 73.8198 85.5914C73.7809 85.5035 73.7735 85.4048 73.7989 85.3121C73.8814 84.6512 73.7701 83.9805 73.4785 83.382C73.3588 83.1952 73.2807 82.9847 73.2496 82.765C73.1955 81.7895 74.2318 82.815 74.4731 83.0526C74.9604 83.5608 75.4097 84.1042 75.8173 84.6785Z" fill="white"/>
<path opacity="0.41" d="M160.286 85.7508V89.5027C160.287 90.2897 160.133 91.0692 159.832 91.7965C159.532 92.5238 159.092 93.1846 158.536 93.7414C157.981 94.2981 157.321 94.7397 156.596 95.041C155.87 95.3423 155.092 95.4974 154.306 95.4974H103.625C102.04 95.4919 100.521 94.8562 99.4027 93.7298C98.2845 92.6035 97.6583 91.0786 97.6616 89.4902V85.7383L160.286 85.7508Z" fill="#68E1FD"/>
<path opacity="0.43" d="M72.5251 122.764C72.0634 123.146 71.5093 123.4 70.9186 123.498C69.7908 123.677 68.6381 123.365 67.5477 123.023C64.0558 121.939 60.6605 120.564 57.3974 118.913C56.3237 118.371 55.2209 117.762 54.5758 116.745C53.8642 115.603 53.8558 114.164 53.8933 112.822C54.0546 107.2 54.5395 101.592 55.3457 96.0259C55.6953 93.5621 55.6662 89.7477 57.1394 87.3965C57.5732 87.522 57.9985 87.6752 58.4129 87.8551C58.9778 88.045 59.4628 88.4193 59.7904 88.9181C60.1483 89.5768 59.9984 90.3938 59.8278 91.1359C58.2768 98.2185 57.2075 105.398 56.6275 112.626C56.5503 112.963 56.5778 113.316 56.7065 113.637C56.8352 113.958 57.0589 114.233 57.3475 114.423C58.7648 115.706 60.277 116.879 61.8712 117.933C64.3682 119.6 67.3979 121.51 70.3693 122.06C71.2141 122.223 71.905 122.231 72.5251 122.764Z" fill="#D9DBE2"/>
<path d="M204.396 25.6406H156.849C151.547 25.6406 147.248 29.9465 147.248 35.258V39.2767C147.248 44.5883 151.547 48.8941 156.849 48.8941H204.396C209.698 48.8941 213.997 44.5883 213.997 39.2767V35.258C213.997 29.9465 209.698 25.6406 204.396 25.6406Z" fill="white"/>
<path d="M187.92 56.5722L181.902 48.0137H187.92V56.5722Z" fill="white"/>
</g>
<defs>
<linearGradient id="paint0_linear_420_636" x1="127.776" y1="83.0395" x2="127.508" y2="119.733" gradientUnits="userSpaceOnUse">
<stop offset="0.01"/>
<stop offset="0.08" stop-opacity="0.69"/>
<stop offset="0.21" stop-opacity="0.32"/>
<stop offset="1" stop-opacity="0"/>
</linearGradient>
<linearGradient id="paint1_linear_420_636" x1="7076.76" y1="15473.7" x2="7468.64" y2="15473.7" gradientUnits="userSpaceOnUse">
<stop offset="0.01"/>
<stop offset="0.08" stop-opacity="0.69"/>
<stop offset="0.21" stop-opacity="0.32"/>
<stop offset="1" stop-opacity="0"/>
</linearGradient>
<linearGradient id="paint2_linear_420_636" x1="6773.63" y1="13010.2" x2="6816.29" y2="18733.8" gradientUnits="userSpaceOnUse">
<stop offset="0.01"/>
<stop offset="0.08" stop-opacity="0.69"/>
<stop offset="0.21" stop-opacity="0.32"/>
<stop offset="1" stop-opacity="0"/>
</linearGradient>
<linearGradient id="paint3_linear_420_636" x1="1672.67" y1="16420.7" x2="1320.88" y2="16425" gradientUnits="userSpaceOnUse">
<stop offset="0.01"/>
<stop offset="0.08" stop-opacity="0.69"/>
<stop offset="0.21" stop-opacity="0.32"/>
<stop offset="1" stop-opacity="0"/>
</linearGradient>
<linearGradient id="paint4_linear_420_636" x1="-134244" y1="18929" x2="-145538" y2="18563.9" gradientUnits="userSpaceOnUse">
<stop offset="0.01"/>
<stop offset="0.08" stop-opacity="0.69"/>
<stop offset="0.21" stop-opacity="0.32"/>
<stop offset="1" stop-opacity="0"/>
</linearGradient>
<linearGradient id="paint5_linear_420_636" x1="5030.53" y1="15100.8" x2="4057.54" y2="15236.3" gradientUnits="userSpaceOnUse">
<stop offset="0.01"/>
<stop offset="0.08" stop-opacity="0.69"/>
<stop offset="0.21" stop-opacity="0.32"/>
<stop offset="1" stop-opacity="0"/>
</linearGradient>
<linearGradient id="paint6_linear_420_636" x1="-48770.7" y1="15473.7" x2="-49163.1" y2="15473.7" gradientUnits="userSpaceOnUse">
<stop offset="0.01"/>
<stop offset="0.08" stop-opacity="0.69"/>
<stop offset="0.21" stop-opacity="0.32"/>
<stop offset="1" stop-opacity="0"/>
</linearGradient>
<linearGradient id="paint7_linear_420_636" x1="-52933.4" y1="13010.2" x2="-52976.1" y2="18733.8" gradientUnits="userSpaceOnUse">
<stop offset="0.01"/>
<stop offset="0.08" stop-opacity="0.69"/>
<stop offset="0.21" stop-opacity="0.32"/>
<stop offset="1" stop-opacity="0"/>
</linearGradient>
<linearGradient id="paint8_linear_420_636" x1="-9095.54" y1="16420.7" x2="-8744.51" y2="16425" gradientUnits="userSpaceOnUse">
<stop offset="0.01"/>
<stop offset="0.08" stop-opacity="0.69"/>
<stop offset="0.21" stop-opacity="0.32"/>
<stop offset="1" stop-opacity="0"/>
</linearGradient>
<linearGradient id="paint9_linear_420_636" x1="-32672.8" y1="15100.8" x2="-31699.7" y2="15236.3" gradientUnits="userSpaceOnUse">
<stop offset="0.01"/>
<stop offset="0.08" stop-opacity="0.69"/>
<stop offset="0.21" stop-opacity="0.32"/>
<stop offset="1" stop-opacity="0"/>
</linearGradient>
<clipPath id="clip0_420_636">
<rect width="282.462" height="213.254" fill="white" transform="translate(0.50293 0.556641)"/>
</clipPath>
</defs>
</svg>
