<svg width="158" height="166" viewBox="0 0 158 166" fill="none" xmlns="http://www.w3.org/2000/svg">
<path d="M121.1 54.838V35.2751C123.685 34.0668 125.874 32.1492 127.412 29.7453C128.949 27.3414 129.773 24.5502 129.786 21.6966V21.2478C129.786 12.9276 123.041 6.18279 114.722 6.18279H114.272C105.952 6.18279 99.2072 12.9276 99.2072 21.2478V21.6966C99.2203 24.5502 100.044 27.3414 101.581 29.7453C103.119 32.1492 105.308 34.0668 107.893 35.2751V54.838C100.463 55.9758 93.4656 59.0567 87.6091 63.7687L33.9568 21.9791C34.3393 20.598 34.5389 19.1778 34.5615 17.7524C34.568 14.3949 33.5787 11.111 31.7186 8.31586C29.8585 5.52077 27.2113 3.34011 24.1117 2.04973C21.0121 0.759356 17.5995 0.417224 14.3054 1.06662C11.0114 1.71601 7.98395 3.32775 5.60603 5.69797C3.22811 8.06818 1.60656 11.0904 0.946491 14.3823C0.286419 17.6742 0.617482 21.088 1.8978 24.1917C3.17812 27.2954 5.35018 29.9498 8.13923 31.8189C10.9283 33.688 14.209 34.688 17.5665 34.6923C20.5036 34.6785 23.3857 33.8943 25.9251 32.4182L78.7572 73.5296C69.0441 88.2027 69.304 107.326 79.4116 121.731L63.3428 137.804C62.0433 137.389 60.6908 137.168 59.327 137.15C51.6314 137.156 45.3971 143.397 45.3991 151.093C45.401 158.788 51.6393 165.025 59.3343 165.027C67.0298 165.029 73.2708 158.795 73.2774 151.099C73.2593 149.736 73.0385 148.383 72.6223 147.084L88.5187 131.182C102.722 142.116 122.23 143.058 137.422 133.543C152.613 124.028 160.279 106.064 156.639 88.513C152.999 70.9611 138.822 57.5278 121.1 54.8373V54.838ZM114.511 119.179C111.574 119.258 108.651 118.747 105.915 117.678C103.179 116.609 100.684 115.002 98.5791 112.953C96.474 110.904 94.8008 108.454 93.6583 105.747C92.5158 103.04 91.9272 100.132 91.9272 97.1945C91.9272 94.2567 92.5158 91.3486 93.6583 88.642C94.8008 85.9355 96.474 83.4852 98.5791 81.436C100.684 79.3867 103.179 77.7801 105.915 76.7108C108.651 75.6415 111.574 75.1313 114.511 75.2103C126.346 75.6247 135.727 85.3359 135.734 97.1786C135.739 109.02 126.367 118.741 114.533 119.167" fill="#FF7A59"/>
</svg>
