<svg width="160" height="160" viewBox="0 0 160 160" fill="none" xmlns="http://www.w3.org/2000/svg">
<path d="M0.572754 0.513672H159.165V159.106H0.572754V0.513672Z" fill="#F0DB4F"/>
<path d="M145.261 120.71C144.114 113.59 139.453 107.613 125.649 102.036C120.854 99.8408 115.508 98.2687 113.914 94.6495C113.349 92.5434 113.274 91.3568 113.631 90.0812C114.659 85.9431 119.618 84.6527 123.549 85.8393C126.081 86.6847 128.478 88.6278 129.923 91.7276C136.683 87.3671 136.668 87.3966 141.389 84.4007C139.662 81.7309 138.738 80.4997 137.607 79.3578C133.541 74.834 128.002 72.5053 119.141 72.6833C117.607 72.8761 116.059 73.0836 114.525 73.2766C110.102 74.389 105.888 76.7028 103.416 79.8027C96.0001 88.1829 98.1147 102.852 107.139 108.889C116.029 115.533 129.089 117.046 130.757 123.261C132.38 130.87 125.143 133.332 117.95 132.457C112.649 131.359 109.7 128.675 106.513 123.795C100.646 127.176 100.646 127.176 94.6154 130.632C96.0449 133.747 97.5488 135.156 99.9465 137.856C111.294 149.321 139.691 148.757 144.784 131.404C144.993 130.81 146.363 126.835 145.261 120.71ZM86.5887 73.6028H71.9356C71.9356 86.2101 71.8762 98.7284 71.8762 111.336C71.8762 119.36 72.2932 126.717 70.9827 128.971C68.8384 133.406 63.2839 132.857 60.7523 131.997C58.1761 130.736 56.8657 128.941 55.3468 126.405C54.9298 125.678 54.6171 125.115 54.5127 125.07C50.5369 127.488 46.5756 129.92 42.5996 132.338C44.5803 136.387 47.4989 139.902 51.2366 142.186C56.8209 145.524 64.3261 146.547 72.174 144.752C77.2818 143.269 81.6895 140.199 83.9976 135.527C87.3333 129.401 86.6185 121.985 86.5887 113.783C86.6632 100.404 86.5887 87.0258 86.5887 73.6028Z" fill="#323330"/>
</svg>
