<svg width="83" height="159" viewBox="0 0 83 159" fill="none" xmlns="http://www.w3.org/2000/svg">
<path d="M28.8893 84.2075C28.8893 84.2075 24.7938 86.5926 31.8039 87.3997C40.2963 88.37 44.6367 88.2308 53.9954 86.457C53.9954 86.457 56.4559 88.002 59.8922 89.3402C38.9124 98.3448 12.4107 88.8186 28.8893 84.2075ZM26.3256 72.457C26.3256 72.457 21.7322 75.8621 28.7474 76.5888C37.8193 77.5261 44.9836 77.6027 57.3806 75.2121C57.3806 75.2121 59.0955 76.953 61.7917 77.905C36.4256 85.3331 8.1726 78.4908 26.3256 72.457Z" fill="#5382A1"/>
<path d="M47.6355 52.4878C52.9509 58.4071 46.2393 63.7341 46.2393 63.7341C46.2393 63.7341 59.7353 56.9948 53.5372 48.5556C47.7481 40.6853 43.3087 36.7753 67.3421 23.293C67.3424 23.2927 29.6175 32.4061 47.6355 52.4878Z" fill="#E76F00"/>
<path d="M75.5728 92.6291C75.5728 92.6291 78.6455 95.1891 72.1888 97.169C59.9111 100.929 21.0877 102.065 10.3027 97.3191C6.42579 95.6137 13.6961 93.2474 15.9831 92.7508C18.3682 92.2279 19.7312 92.3253 19.7312 92.3253C15.4196 89.2546 -8.13683 98.3545 7.76564 100.961C51.134 108.071 86.8223 97.7591 75.5728 92.6291ZM30.1249 59.2449C30.1249 59.2449 10.3768 63.987 23.1316 65.709C28.517 66.438 39.2528 66.2731 49.2526 65.426C57.4253 64.729 65.6319 63.2474 65.6319 63.2474C65.6319 63.2474 62.7501 64.4951 60.6652 65.9341C40.6114 71.2666 1.87118 68.7857 13.024 63.3315C22.4559 58.722 30.1249 59.2449 30.1249 59.2449ZM65.5505 79.2644C85.9361 68.5547 76.5109 58.2625 69.9317 59.6493C68.3192 59.9887 67.6002 60.2827 67.6002 60.2827C67.6002 60.2827 68.1991 59.3346 69.3419 58.9242C82.357 54.2982 92.3665 72.5681 65.1405 79.8045C65.1405 79.8045 65.4565 79.5196 65.5505 79.2644Z" fill="#5382A1"/>
<path d="M53.3712 0.296875C53.3712 0.296875 64.5565 11.5643 42.7625 28.8911C25.2858 42.7897 38.7772 50.7145 42.7552 59.7691C32.5541 50.5 25.0676 42.3409 30.0901 34.7469C37.4617 23.5996 57.8842 18.1949 53.3712 0.296875Z" fill="#E76F00"/>
<path d="M32.5918 108.592C51.961 109.846 81.7046 107.896 82.4087 98.625C82.4087 98.625 81.0549 102.139 66.4011 104.931C49.8694 108.077 29.4792 107.71 17.3857 105.693C17.3863 105.693 19.8617 107.766 32.5918 108.592Z" fill="#5382A1"/>
<path d="M29.5357 143.338C27.6994 144.944 25.76 145.845 24.0195 145.845C21.5353 145.845 20.1931 144.344 20.1931 141.935C20.1931 139.33 21.6314 137.425 27.4005 137.425H29.5354L29.5357 143.338ZM34.6027 149.101V131.263C34.6027 126.706 32.0243 123.699 25.8078 123.699C22.1786 123.699 18.9995 124.602 16.4156 125.754L17.1614 128.912C19.1958 128.159 21.8292 127.459 24.414 127.459C27.9951 127.459 29.5357 128.912 29.5357 131.917V134.172H27.7484C19.0475 134.172 15.1226 137.576 15.1226 142.686C15.1226 147.097 17.7091 149.603 22.5791 149.603C25.7096 149.603 28.0464 148.3 30.2309 146.394L30.6274 149.102L34.6027 149.101ZM51.5129 149.101H45.1934L37.5877 124.151H43.1069L47.826 139.48L48.8751 144.091C51.2626 137.425 52.9515 130.662 53.7961 124.151H59.1646C57.726 132.367 55.1377 141.385 51.5129 149.101ZM75.7563 143.338C73.9165 144.944 71.9739 145.845 70.2331 145.845C67.7533 145.845 66.4076 144.344 66.4076 141.935C66.4076 139.33 67.8488 137.425 73.6176 137.425H75.7563V143.338ZM80.8227 149.101V131.263C80.8227 126.706 78.2382 123.699 72.0284 123.699C68.3968 123.699 65.2166 124.602 62.6339 125.754L63.3788 128.912C65.4138 128.159 68.0522 127.459 70.6349 127.459C74.2134 127.459 75.7563 128.912 75.7563 131.917V134.172H73.9658C65.2626 134.172 61.3391 137.576 61.3391 142.686C61.3391 147.097 63.9236 149.603 68.7927 149.603C71.9252 149.603 74.2612 148.3 76.4491 146.394L76.8471 149.102L80.8227 149.101ZM9.56679 153.338C8.12233 155.464 5.78929 157.146 3.23512 158.097L0.733398 155.13C2.6775 154.124 4.34483 152.5 5.1195 150.988C5.78958 149.642 6.06694 147.909 6.06694 143.762V115.277H11.4503V143.372C11.45 148.915 11.0104 151.154 9.56679 153.338Z" fill="#E76F00"/>
</svg>
