<svg width="159" height="157" viewBox="0 0 159 157" fill="none" xmlns="http://www.w3.org/2000/svg">
<path d="M79.59 0.0878906C39.1428 0.0878906 41.6682 17.3542 41.6682 17.3542L41.7132 35.2427H80.3112V40.6133H26.3826C26.3826 40.6133 0.500488 37.7238 0.500488 77.8973C0.500488 118.072 23.0911 116.647 23.0911 116.647H36.573V98.0046C36.573 98.0046 35.8462 75.7669 58.803 75.7669H97.0853C97.0853 75.7669 118.593 76.109 118.593 55.3046V20.9058C118.593 20.9058 121.86 0.0878906 79.59 0.0878906ZM58.307 12.1175C59.2191 12.1167 60.1224 12.293 60.9653 12.6362C61.8081 12.9794 62.5739 13.4829 63.2188 14.1177C63.8638 14.7526 64.3752 15.5065 64.7239 16.3361C65.0726 17.1658 65.2516 18.055 65.2508 18.9528C65.2516 19.8507 65.0726 20.7399 64.7239 21.5695C64.3752 22.3992 63.8638 23.153 63.2188 23.7879C62.5739 24.4228 61.8081 24.9263 60.9653 25.2695C60.1224 25.6127 59.2191 25.7889 58.307 25.7881C57.3949 25.7889 56.4916 25.6127 55.6488 25.2695C54.806 24.9263 54.0402 24.4228 53.3952 23.7879C52.7503 23.153 52.2388 22.3992 51.8902 21.5695C51.5415 20.7399 51.3625 19.8507 51.3633 18.9528C51.3625 18.055 51.5415 17.1658 51.8902 16.3361C52.2388 15.5065 52.7503 14.7526 53.3952 14.1177C54.0402 13.4829 54.806 12.9794 55.6488 12.6362C56.4916 12.293 57.3949 12.1167 58.307 12.1175Z" fill="url(#paint0_linear_897_566)"/>
<path d="M80.2732 156.304C120.177 156.304 117.686 139.038 117.686 139.038L117.642 121.15H79.5611V115.779H132.766C132.766 115.779 158.3 118.669 158.3 78.4939C158.3 38.3197 136.013 39.7445 136.013 39.7445H122.712V58.3865C122.712 58.3865 123.429 80.6243 100.781 80.6243H63.012C63.012 80.6243 41.7926 80.2822 41.7926 101.087V135.487C41.7926 135.487 38.5711 156.304 80.2732 156.304ZM101.27 144.275C100.371 144.276 99.4794 144.1 98.6479 143.757C97.8164 143.414 97.0609 142.91 96.4246 142.275C95.7883 141.64 95.2837 140.887 94.9397 140.057C94.5958 139.227 94.4191 138.338 94.4199 137.44C94.419 136.542 94.5956 135.653 94.9396 134.823C95.2835 133.994 95.7881 133.24 96.4244 132.605C97.0607 131.97 97.8162 131.466 98.6478 131.123C99.4793 130.78 100.371 130.603 101.27 130.604C102.17 130.603 103.062 130.78 103.893 131.123C104.725 131.466 105.48 131.97 106.116 132.604C106.753 133.239 107.257 133.993 107.601 134.823C107.945 135.653 108.122 136.542 108.121 137.44C108.122 138.337 107.945 139.227 107.601 140.056C107.257 140.886 106.753 141.64 106.116 142.275C105.48 142.91 104.725 143.413 103.893 143.756C103.062 144.099 102.17 144.276 101.27 144.275Z" fill="url(#paint1_linear_897_566)"/>
<defs>
<linearGradient id="paint0_linear_897_566" x1="15.8118" y1="14.1212" x2="93.5388" y2="92.2938" gradientUnits="userSpaceOnUse">
<stop stop-color="#387EB8"/>
<stop offset="1" stop-color="#366994"/>
</linearGradient>
<linearGradient id="paint1_linear_897_566" x1="64.0315" y1="63.7263" x2="147.509" y2="142.816" gradientUnits="userSpaceOnUse">
<stop stop-color="#FFE052"/>
<stop offset="1" stop-color="#FFC331"/>
</linearGradient>
</defs>
</svg>
