<svg width="140" height="124" viewBox="0 0 140 124" fill="none" xmlns="http://www.w3.org/2000/svg">
<path d="M139.834 62.0381C139.834 52.8755 128.298 44.1922 110.611 38.8075C114.692 20.8771 112.878 6.61165 104.885 2.04447C103.042 0.973156 100.888 0.465692 98.5355 0.465692V6.75262C99.8393 6.75262 100.888 7.00635 101.767 7.48562C105.622 9.68464 107.294 18.0578 105.99 28.8273C105.678 31.4774 105.168 34.2685 104.545 37.1159C98.989 35.7627 92.9231 34.7196 86.5455 34.0429C82.7189 28.8273 78.7505 24.091 74.7539 19.9467C83.9944 11.4044 92.668 6.72443 98.5638 6.72443V0.4375C90.7689 0.4375 80.5646 5.96323 70.247 15.5487C59.9293 6.01961 49.7251 0.55027 41.9301 0.55027V6.83719C47.7976 6.83719 56.4996 11.489 65.7401 19.9749C61.7718 24.1192 57.8035 28.8273 54.0335 34.0429C47.6275 34.7196 41.5617 35.7627 36.006 37.1441C35.3541 34.3249 34.8722 31.5902 34.5321 28.9683C33.1998 18.1988 34.8439 9.8256 38.6705 7.59839C39.5208 7.09093 40.6263 6.86539 41.9301 6.86539V0.578462C39.5492 0.578462 37.3949 1.08593 35.5241 2.15724C27.5591 6.72442 25.7734 20.9616 29.8834 38.8357C12.2527 44.2486 0.772949 52.9037 0.772949 62.0381C0.772949 71.2006 12.3094 79.8839 29.9968 85.2687C25.9151 103.199 27.7292 117.465 35.7226 122.032C37.565 123.103 39.7192 123.61 42.1002 123.61C49.8951 123.61 60.0994 118.085 70.4171 108.499C80.7347 118.028 90.939 123.498 98.7339 123.498C101.115 123.498 103.269 122.99 105.14 121.919C113.105 117.352 114.891 103.115 110.781 85.2405C128.355 79.8557 139.834 71.1725 139.834 62.0381V62.0381ZM102.929 43.2337C101.88 46.8705 100.576 50.6201 99.1024 54.3697C97.9402 52.1143 96.7214 49.8589 95.3892 47.6035C94.0853 45.3481 92.6964 43.1491 91.3075 41.0065C95.3325 41.5985 99.2157 42.3315 102.929 43.2337ZM89.9469 73.2587C87.736 77.0647 85.4683 80.6733 83.1157 84.0282C78.8923 84.3947 74.6121 84.5921 70.3037 84.5921C66.0236 84.5921 61.7434 84.3947 57.5483 84.0564C55.1957 80.7015 52.8997 77.1211 50.6888 73.3433C48.5346 69.6501 46.5788 65.9005 44.793 62.1227C46.5504 58.3449 48.5346 54.5671 50.6605 50.8739C52.8714 47.0679 55.139 43.4592 57.4917 40.1043C61.7151 39.7378 65.9952 39.5405 70.3037 39.5405C74.5838 39.5405 78.8639 39.7378 83.059 40.0761C85.4117 43.431 87.7076 47.0115 89.9185 50.7893C92.0728 54.4825 94.0286 58.2321 95.8143 62.0099C94.0286 65.7877 92.0728 69.5655 89.9469 73.2587ZM99.1024 69.5937C100.633 73.3715 101.937 77.1493 103.014 80.8143C99.3008 81.7164 95.3892 82.4776 91.3358 83.0697C92.7247 80.8989 94.1136 78.6717 95.4175 76.3881C96.7214 74.1327 97.9402 71.8491 99.1024 69.5937ZM70.3604 99.6751C67.7243 96.9686 65.0882 93.952 62.4804 90.6535C65.0315 90.7662 67.6392 90.8508 70.2753 90.8508C72.9398 90.8508 75.5759 90.7944 78.1553 90.6535C75.6042 93.952 72.9681 96.9686 70.3604 99.6751ZM49.2715 83.0697C45.2465 82.4776 41.3632 81.7446 37.65 80.8425C38.6988 77.2056 40.0027 73.456 41.4766 69.7064C42.6388 71.9618 43.8576 74.2172 45.1898 76.4726C46.5221 78.728 47.8826 80.9271 49.2715 83.0697ZM70.2186 24.4011C72.8547 27.1076 75.4908 30.1242 78.0986 33.4227C75.5475 33.3099 72.9398 33.2254 70.3037 33.2254C67.6392 33.2254 65.0031 33.2817 62.4237 33.4227C64.9748 30.1242 67.6109 27.1076 70.2186 24.4011ZM49.2432 41.0065C47.8543 43.1773 46.4654 45.4045 45.1615 47.6881C43.8576 49.9435 42.6388 52.1989 41.4766 54.4543C39.946 50.6765 38.6421 46.8987 37.565 43.2337C41.2782 42.3597 45.1898 41.5985 49.2432 41.0065V41.0065ZM23.5908 76.3035C13.5566 72.0464 7.06558 66.4643 7.06558 62.0381C7.06558 57.6119 13.5566 52.0016 23.5908 47.7727C26.0285 46.7296 28.693 45.7992 31.4424 44.9252C33.0581 50.451 35.184 56.2022 37.8201 62.0945C35.2123 67.9585 33.1148 73.6816 31.5275 79.1791C28.7213 78.3051 26.0569 77.3466 23.5908 76.3035ZM38.8405 116.591C34.9856 114.392 33.3132 106.018 34.6171 95.2488C34.9289 92.5987 35.4391 89.8077 36.0627 86.9602C41.6184 88.3135 47.6842 89.3566 54.0619 90.0332C57.8885 95.2488 61.8568 99.9852 65.8535 104.129C56.613 112.672 47.9393 117.352 42.0435 117.352C40.768 117.324 39.6909 117.07 38.8405 116.591V116.591ZM106.075 95.1079C107.408 105.877 105.763 114.251 101.937 116.478C101.087 116.985 99.9811 117.211 98.6772 117.211C92.8097 117.211 84.1078 112.559 74.8673 104.073C78.8356 99.9288 82.8039 95.2206 86.5738 90.005C92.9798 89.3284 99.0457 88.2853 104.601 86.9039C105.253 89.7513 105.763 92.486 106.075 95.1079V95.1079ZM116.988 76.3035C114.55 77.3466 111.886 78.277 109.137 79.1509C107.521 73.6252 105.395 67.8739 102.759 61.9817C105.367 56.1177 107.464 50.3946 109.052 44.8971C111.858 45.771 114.522 46.7296 117.017 47.7727C127.051 52.0298 133.542 57.6119 133.542 62.0381C133.513 66.4643 127.022 72.0746 116.988 76.3035V76.3035Z" fill="#61DAFB"/>
</svg>
