<svg width="97" height="138" viewBox="0 0 97 138" fill="none" xmlns="http://www.w3.org/2000/svg">
<path d="M9.33203 126.154L0.561523 27.6309H96.9359L88.1557 126.139L48.6896 137.097L9.33203 126.154Z" fill="#E44D26"/>
<path d="M48.7485 128.724L80.6388 119.869L88.1424 35.6895H48.7485V128.724Z" fill="#F16529"/>
<path d="M48.7483 72.2269H32.7834L31.6806 59.8532H48.7483V47.7695H18.4946L18.7837 51.0114L21.749 84.3101H48.7483V72.2269ZM48.7483 103.609L48.6953 103.623L35.2585 99.9892L34.3995 90.3524H22.2883L23.9788 109.325L48.6931 116.197L48.7483 116.181V103.609Z" fill="#EBEBEB"/>
<path d="M9.52783 0.857422H15.659V6.92426H21.2675V0.857422H27.3989V19.2295H21.2675V13.0775H15.659V19.2295H9.52827L9.52783 0.857422ZM35.4622 6.95015H30.0648V0.857422H46.9944V6.95015H41.5944V19.2295H35.4624V6.95015H35.4622ZM49.6809 0.857422H56.0744L60.0072 7.31298L63.9362 0.857422H70.3319V19.2295H64.2249V10.1231L60.0065 16.6554H59.9012L55.68 10.1231V19.2295H49.6807V0.857422H49.6809ZM73.3828 0.857422H79.5157V13.1569H88.1386V19.2295H73.3828V0.857422Z" fill="white"/>
<path d="M48.7065 72.2269V84.3101H63.5635L62.1628 99.9817L48.7065 103.619V116.19L73.4406 109.325L73.6215 107.283L76.4571 75.4718L76.7515 72.2269H73.5006H48.7065ZM48.7065 47.7695V59.8532H77.8495L78.0911 57.137L78.6408 51.0114L78.9295 47.7695H48.7065Z" fill="white"/>
</svg>
