<svg width="144" height="158" viewBox="0 0 144 158" fill="none" xmlns="http://www.w3.org/2000/svg">
<path d="M65.6091 2.2874C69.4951 0.0602757 74.5566 0.0502161 78.4393 2.2874C97.9727 13.3386 117.512 24.3725 137.042 35.4304C140.716 37.5022 143.173 41.5954 143.135 45.8333V112.322C143.163 116.735 140.463 120.926 136.587 122.951C117.118 133.941 97.659 144.945 78.1931 155.935C74.2267 158.206 69.0636 158.031 65.2211 155.574C59.3843 152.186 53.5374 148.815 47.7 145.431C46.5072 144.719 45.1625 144.152 44.3202 142.994C45.0648 141.989 46.3961 141.864 47.4778 141.425C49.9143 140.649 52.152 139.404 54.3903 138.196C54.9563 137.808 55.6473 137.957 56.1898 138.304C61.1811 141.169 66.1282 144.118 71.1361 146.956C72.2045 147.573 73.2862 146.753 74.1994 146.244C93.3046 135.432 112.433 124.662 131.535 113.847C132.243 113.506 132.634 112.754 132.577 111.977C132.59 90.0443 132.58 68.1073 132.583 46.1742C132.664 45.2934 132.155 44.4836 131.36 44.1232C111.958 33.1832 92.5667 22.2264 73.1684 11.2836C72.8324 11.0523 72.4342 10.9281 72.0264 10.9275C71.6185 10.9269 71.22 11.0499 70.8833 11.2803C51.485 22.2264 32.0968 33.1932 12.6985 44.1327C11.9059 44.4937 11.3739 45.2901 11.4682 46.1742C11.4716 68.1073 11.4682 90.0443 11.4682 111.981C11.4346 112.359 11.5177 112.739 11.7063 113.07C11.8949 113.4 12.18 113.664 12.5232 113.827C17.6997 116.766 22.8829 119.684 28.0628 122.613C30.981 124.186 34.5639 125.12 37.779 123.916C40.6162 122.897 42.605 119.998 42.5508 116.982C42.5776 95.1765 42.5374 73.368 42.5709 51.5663C42.5 50.5983 43.4171 49.7985 44.3571 49.8896C46.8443 49.8729 49.3349 49.8561 51.8221 49.8963C52.8603 49.8729 53.5748 50.9152 53.4464 51.8904C53.4364 73.8336 53.4732 95.7773 53.4297 117.72C53.4364 123.568 51.0368 129.932 45.6342 132.793C38.9785 136.245 30.7521 135.513 24.1768 132.203C18.4845 129.358 13.0524 126.001 7.46111 122.954C3.57565 120.94 0.889145 116.732 0.916496 112.322V45.8333C0.875749 41.5076 3.43052 37.3401 7.2183 35.2985C26.6841 24.2993 46.1466 13.2917 65.6091 2.2874Z" fill="#8CC84B"/>
<path d="M82.5911 48.3437C91.0809 47.7965 100.17 48.0195 107.809 52.2072C113.724 55.4163 117.004 62.1513 117.108 68.7309C116.943 69.6184 116.016 70.108 115.17 70.0471C112.707 70.0437 110.243 70.0806 107.78 70.0303C106.735 70.0705 106.128 69.1059 105.997 68.181C105.289 65.0328 103.574 61.9149 100.615 60.3964C96.0716 58.119 90.8041 58.2335 85.8503 58.2811C82.2338 58.4733 78.345 58.7868 75.2812 60.9162C72.9291 62.5291 72.2146 65.7851 73.0541 68.4073C73.8456 70.2902 76.0163 70.8977 77.7924 71.4577C88.0238 74.1369 98.8658 73.8703 108.902 77.3963C113.057 78.8337 117.122 81.6281 118.544 85.984C120.404 91.822 119.589 98.8001 115.44 103.487C112.076 107.344 107.176 109.443 102.29 110.583C95.7886 112.034 89.0419 112.071 82.4398 111.427C76.2318 110.718 69.7715 109.085 64.979 104.85C60.8808 101.287 58.8792 95.7358 59.0779 90.3779C59.1254 89.473 60.0251 88.8421 60.8909 88.9164C63.3714 88.8963 65.8519 88.8896 68.3325 88.9198C69.3232 88.8488 70.0578 89.7061 70.1086 90.6411C70.5663 93.6406 71.6921 96.7887 74.3044 98.5671C79.3458 101.824 85.6716 101.601 91.4443 101.692C96.2268 101.479 101.595 101.415 105.498 98.2502C107.557 96.445 108.167 93.4249 107.611 90.8266C107.008 88.633 104.716 87.6109 102.748 86.9424C92.6477 83.7434 81.6846 84.9042 71.6821 81.2866C67.6214 79.8497 63.6946 77.1331 62.1345 72.956C59.9576 67.0442 60.9551 59.7319 65.5382 55.2033C70.007 50.6988 76.4578 48.964 82.5911 48.3431V48.3437Z" fill="#8CC84B"/>
</svg>
