<svg width="158" height="159" viewBox="0 0 158 159" fill="none" xmlns="http://www.w3.org/2000/svg">
<path d="M35.0303 0.361328H122.094C126.331 0.361328 130.445 1.04278 134.435 2.46764C140.207 4.57395 145.426 8.29096 149.355 13.1231C153.346 17.9552 155.987 23.9024 156.908 30.0975C157.276 32.3896 157.337 34.6818 157.337 36.9739V122.651C157.337 125.377 157.215 128.165 156.662 130.829C155.434 136.962 152.548 142.723 148.373 147.369C144.259 152.016 138.856 155.485 133.023 157.343C129.462 158.458 125.778 158.954 122.033 158.954C120.375 158.954 34.7847 158.954 33.4953 158.892C27.2326 158.582 21.0313 156.538 15.8124 153.007C10.7162 149.538 6.5411 144.705 3.83953 139.13C1.50637 134.36 0.339784 129.032 0.339784 123.704V35.611C0.216986 30.3453 1.32217 25.1414 3.59394 20.4332C6.2341 14.8577 10.3478 9.96362 15.444 6.4944C20.6629 2.90129 26.8028 0.79498 33.0655 0.485229C33.6795 0.361328 34.3549 0.361328 35.0303 0.361328Z" fill="url(#paint0_linear_897_570)"/>
<path d="M133.734 130.336C133.179 129.467 132.561 128.598 131.882 127.791C130.338 125.929 128.547 124.315 126.57 122.95C124.1 121.274 121.197 120.219 118.232 120.095C116.133 119.97 114.033 120.343 112.056 121.088C110.08 121.77 108.165 122.764 106.313 123.757C104.151 124.874 101.989 125.991 99.7041 126.922C96.9866 128.039 94.1456 128.908 91.2428 129.529C87.5989 130.212 83.8933 130.46 80.2494 130.398C73.6409 130.274 67.0325 129.281 60.7329 127.419C55.1744 125.743 49.8629 123.446 44.8603 120.529C40.4753 117.984 36.399 115.067 32.5698 111.777C29.42 109.046 26.5173 106.129 23.7998 103.025C21.9469 100.853 20.1559 98.5562 18.4883 96.1975C17.8089 95.2665 17.1913 94.2734 16.6355 93.2802L0.330566 75.5903V35.5551C0.330566 16.1271 15.9561 0.361328 35.2873 0.361328H66.4767L89.5753 23.948C141.702 59.5762 124.841 98.8665 124.841 98.8665C124.841 98.8665 139.663 115.625 133.734 130.336Z" fill="url(#paint1_linear_897_570)"/>
<path d="M89.7781 23.3555C141.713 59.1845 124.914 98.6962 124.914 98.6962C124.914 98.6962 139.683 115.612 133.714 130.406C133.714 130.406 127.622 120.044 117.407 120.044C107.562 120.044 101.777 130.406 81.9632 130.406C37.8431 130.406 16.9829 93.016 16.9829 93.016C56.7341 119.544 83.8708 100.756 83.8708 100.756C65.9643 90.2071 27.8745 39.7719 27.8745 39.7719C61.0415 68.4226 75.3791 75.9754 75.3791 75.9754C66.8258 68.7971 42.8274 33.7172 42.8274 33.7172C62.0261 53.4418 100.177 80.969 100.177 80.969C111.007 50.5081 89.7781 23.3555 89.7781 23.3555Z" fill="white"/>
<defs>
<linearGradient id="paint0_linear_897_570" x1="93.5995" y1="-5.29783" x2="63.3835" y2="164.54" gradientUnits="userSpaceOnUse">
<stop stop-color="#FAAE42"/>
<stop offset="1" stop-color="#EF3E31"/>
</linearGradient>
<linearGradient id="paint1_linear_897_570" x1="80.9979" y1="2.92855" x2="58.9225" y2="127.501" gradientUnits="userSpaceOnUse">
<stop stop-color="#E39F3A"/>
<stop offset="1" stop-color="#D33929"/>
</linearGradient>
</defs>
</svg>
