<svg width="137" height="138" viewBox="0 0 137 138" fill="none" xmlns="http://www.w3.org/2000/svg">
<g clip-path="url(#clip0_897_660)">
<path d="M68.0721 0.525391L71.7283 7.39252C72.5503 8.65977 73.4408 9.78145 74.4897 10.8261C77.5508 13.8872 80.4578 17.0938 83.0693 20.5274C89.2643 28.6618 93.4428 37.6952 96.4268 47.465C98.2164 53.4331 99.1882 59.5553 99.261 65.746C99.5607 84.2538 93.2159 100.146 80.4235 113.353C78.3343 115.443 76.0995 117.378 73.702 119.099C72.4347 119.099 71.8353 118.127 71.313 117.232C70.3412 115.593 69.7461 113.722 69.4464 111.859C68.9969 109.62 68.7015 107.381 68.847 105.069V104.025C68.7443 103.802 67.6269 1.05198 68.0721 0.525391Z" fill="#599636"/>
<path d="M68.072 0.297679C67.9222 -0.00200899 67.7723 0.224897 67.6225 0.37046C67.6953 1.8689 67.173 3.20465 66.3552 4.48046C65.4562 5.74771 64.266 6.71955 63.0715 7.76418C56.4356 13.5096 51.2125 20.4495 47.0297 28.2114C41.464 38.6577 38.5956 49.8531 37.7822 61.6394C37.4097 65.8907 39.1265 80.8922 40.4665 85.2206C44.1227 96.7114 50.6901 106.34 59.197 114.697C61.2862 116.709 63.521 118.576 65.8329 120.37C66.5051 120.37 66.5779 119.77 66.732 119.325C67.0267 118.372 67.2513 117.399 67.4041 116.414L68.9026 105.223L68.072 0.297679Z" fill="#6CAC48"/>
<path d="M71.7283 123.645C71.8781 121.932 72.7001 120.511 73.5949 119.094C72.6959 118.721 72.028 117.981 71.5057 117.154C71.0561 116.409 70.6837 115.515 70.3925 114.693C69.3479 111.559 69.1253 108.271 68.8256 105.068V103.129C68.4531 103.429 68.3761 105.963 68.3761 106.34C68.1582 109.724 67.7091 113.09 67.0318 116.414C66.8091 117.758 66.6593 119.098 65.833 120.292C65.833 120.442 65.833 120.592 65.9058 120.815C67.2501 124.771 67.6183 128.799 67.8452 132.905V134.403C67.8452 136.193 67.7724 135.816 69.258 136.416C69.8574 136.638 70.5253 136.715 71.1246 137.161C71.5742 137.161 71.6469 136.788 71.6469 136.488L71.4243 134.027V127.16C71.3515 125.961 71.5742 124.771 71.724 123.649L71.7283 123.645Z" fill="#C2BFBF"/>
</g>
<defs>
<clipPath id="clip0_897_660">
<rect width="137" height="137" fill="white" transform="translate(0 0.152344)"/>
</clipPath>
</defs>
</svg>
