<svg width="159" height="82" viewBox="0 0 159 82" fill="none" xmlns="http://www.w3.org/2000/svg">
<path d="M79.6445 81.8823C123.22 81.8823 158.544 63.5986 158.544 41.0447C158.544 18.4907 123.22 0.207031 79.6445 0.207031C36.0693 0.207031 0.744629 18.4907 0.744629 41.0447C0.744629 63.5986 36.0693 81.8823 79.6445 81.8823Z" fill="#8993BE"/>
<path fill-rule="evenodd" clip-rule="evenodd" d="M22.9473 65.2301L31.6063 21.7799H51.6287C60.2871 22.3165 64.6166 26.6074 64.6166 34.1179C64.6166 46.9919 54.3348 54.5019 45.1344 53.9653H35.3945L33.2297 65.2301H22.9473ZM37.5586 45.9194L40.2647 29.8264H47.2998C51.0879 29.8264 53.7934 31.4355 53.7934 34.6539C53.2527 43.7736 48.9232 45.3828 44.0529 45.9194H37.5593H37.5586ZM62.6049 53.9653L71.2634 10.5156H81.5458L79.3811 21.7799H89.1216C97.7806 22.3165 101.027 26.6074 99.9454 31.9721L96.1572 53.9653H85.334L89.1222 34.1179C89.6629 31.4355 89.6629 29.8264 85.8754 29.8264H77.7577L72.8874 53.9653H62.6049ZM95.464 65.2301L104.122 21.7799H124.145C132.804 22.3165 137.134 26.6074 137.134 34.1179C137.134 46.9919 126.852 54.5019 117.652 53.9653H107.911L105.746 65.2301H95.464ZM110.075 45.9194L112.781 29.8264H119.817C123.605 29.8264 126.31 31.4355 126.31 34.6539C125.769 43.7736 121.44 45.3828 116.57 45.9194H110.075H110.075Z" fill="#232531"/>
</svg>
