<svg width="25" height="25" viewBox="0 0 25 25" fill="none" xmlns="http://www.w3.org/2000/svg">
<path d="M23.6667 11.6261L12.9504 21.7329C11.6376 22.9711 9.85699 23.6667 8.00037 23.6667C6.14376 23.6667 4.36319 22.9711 3.05036 21.7329C1.73754 20.4948 1 18.8155 1 17.0644C1 15.3134 1.73754 13.6341 3.05036 12.396L13.7666 2.28917C14.6419 1.46373 15.8289 1 17.0666 1C18.3044 1 19.4914 1.46373 20.3667 2.28917C21.2419 3.1146 21.7336 4.23414 21.7336 5.40148C21.7336 6.56883 21.2419 7.68837 20.3667 8.51381L9.63872 18.6206C9.20111 19.0333 8.60758 19.2652 7.98871 19.2652C7.36984 19.2652 6.77632 19.0333 6.33871 18.6206C5.9011 18.2079 5.65526 17.6481 5.65526 17.0644C5.65526 16.4808 5.9011 15.921 6.33871 15.5083L16.2387 6.18231" stroke="#181818" stroke-width="1.5" stroke-linecap="round" stroke-linejoin="round"/>
</svg>
