<svg width="163" height="158" viewBox="0 0 163 158" fill="none" xmlns="http://www.w3.org/2000/svg">
<g clip-path="url(#clip0_420_352)">
<path d="M7.30469 6.83984H155.87V150.648H7.30469V6.83984Z" fill="url(#paint0_radial_420_352)"/>
<path d="M7.30461 6.83905H155.87V150.647H7.30461V6.83905ZM0.551758 157.368H162.622V0.119141H0.551758V157.368ZM106.708 56.164C106.708 55.6265 106.91 55.3575 107.518 55.3575H118.12C118.66 55.3575 118.931 55.559 118.931 56.164V109.185C118.931 109.722 118.796 109.991 118.12 109.991H107.653C106.978 109.991 106.775 109.655 106.775 109.118V56.164H106.708ZM105.965 40.9095C105.965 36.6087 109.004 34.0552 112.853 34.0552C116.973 34.0552 119.741 36.8103 119.741 40.9095C119.741 45.3447 116.838 47.7638 112.718 47.7638C108.801 47.7641 105.965 45.3447 105.965 40.9095ZM75.577 78.2729C73.6864 70.8136 69.2295 54.5512 67.5409 46.6887H67.4059C65.9877 54.5512 62.4088 67.8566 59.5727 78.2729H75.577ZM56.8038 89.1594L51.4689 109.319C51.3339 109.857 51.1313 109.991 50.4561 109.991H40.5293C39.854 109.991 39.7187 109.789 39.854 108.983L59.0323 42.1861C59.3699 40.9767 59.5724 39.9014 59.7075 36.6087C59.7075 36.1384 59.91 35.9368 60.2477 35.9368H74.4288C74.9015 35.9368 75.104 36.0712 75.2393 36.6087L96.7135 109.118C96.8486 109.655 96.7135 109.991 96.1734 109.991H84.9634C84.4232 109.991 84.0853 109.857 83.9506 109.387L78.4131 89.1594H56.8038Z" fill="#FF7F18"/>
</g>
<defs>
<radialGradient id="paint0_radial_420_352" cx="0" cy="0" r="1" gradientUnits="userSpaceOnUse" gradientTransform="translate(56.2347 39.0674) scale(112.909 108.783)">
<stop stop-color="#423325" stop-opacity="0.98"/>
<stop offset="1" stop-color="#1C0A00"/>
</radialGradient>
<clipPath id="clip0_420_352">
<rect width="162.07" height="157.28" fill="white" transform="translate(0.551758 0.103516)"/>
</clipPath>
</defs>
</svg>
