<svg width="161" height="157" viewBox="0 0 161 157" fill="none" xmlns="http://www.w3.org/2000/svg">
<g clip-path="url(#clip0_420_342)">
<path d="M7.06396 6.99121H154.165V150.069H7.06396V6.99121Z" fill="#2E001E"/>
<path d="M0.377441 0.305664V156.755H160.851V0.305664H0.377441ZM7.06384 6.99155H154.165V150.069H7.06384V6.99155Z" fill="#FF2BC2"/>
<path d="M116.921 66.0287C115.918 65.5606 114.648 65.3601 113.043 65.3601C104.618 65.3601 99.0016 71.8454 99.0016 82.6096C99.0016 94.9116 104.752 99.8592 112.241 99.8592C113.845 99.8592 115.584 99.6586 116.854 99.1238V66.0287H116.921ZM86.9661 83.1445C86.9661 67.5664 96.9957 55.3981 113.444 55.3981C114.848 55.3981 115.584 55.3981 116.921 55.5318V38.1485C116.921 37.7474 117.255 37.4799 117.59 37.4799H128.355C128.89 37.4799 129.024 37.6805 129.024 38.0148V99.1238C129.024 100.929 129.024 103.202 129.358 105.676C129.358 106.144 129.358 106.211 128.957 106.411C123.34 109.086 117.456 110.289 111.839 110.289C97.33 110.289 86.9661 101.33 86.9661 83.1445ZM64.1655 72.3134L82.8874 108.618C83.2217 109.153 83.0211 109.687 82.4862 109.687H70.8519C70.1164 109.687 69.782 109.487 69.4477 108.818C65.1684 99.9929 60.8223 90.8333 56.3424 81.3393H56.2087C52.1968 90.2984 47.7838 100.06 43.5045 108.885C43.1702 109.42 42.8359 109.621 42.3009 109.621H31.2015C30.5329 109.621 30.466 109.086 30.8003 108.685L49.1211 73.45L31.4021 38.416C31.0009 37.8811 31.4021 37.4131 31.8702 37.4131H43.3708C44.0394 37.4131 44.3737 37.5468 44.5743 38.1485C48.7867 47.0408 53.066 55.7993 57.0779 64.7583H57.2116C61.0897 55.933 65.369 47.0408 69.4477 38.2822C69.782 37.7474 69.9826 37.4131 70.6513 37.4131H81.4164C81.9513 37.4131 82.1519 37.8142 81.8176 38.416L64.1655 72.3134Z" fill="#FF2BC2"/>
</g>
<defs>
<clipPath id="clip0_420_342">
<rect width="160.474" height="156.482" fill="white" transform="translate(0.377441 0.290039)"/>
</clipPath>
</defs>
</svg>
