<svg width="161" height="157" viewBox="0 0 161 157" fill="none" xmlns="http://www.w3.org/2000/svg">
<g clip-path="url(#clip0_420_359)">
<path d="M7.05029 6.85156H154.152V149.93H7.05029V6.85156Z" fill="url(#paint0_radial_420_359)"/>
<path d="M7.05009 6.85084H154.151V149.929H7.05009V6.85084ZM0.36377 156.615H160.838V0.165039H0.36377V156.615ZM113.899 75.582C117.309 75.582 118.512 75.582 118.847 75.4483C118.847 74.9804 118.98 74.6459 118.98 74.3116C118.98 70.7012 117.242 64.0154 110.288 64.0154C103.869 64.0154 101.128 69.6313 100.459 75.582H113.899ZM100.326 84.7415C100.459 93.7676 104.739 99.8518 114.902 99.8518C118.847 99.8518 122.257 99.3173 125.801 97.7794C126.269 97.5789 126.604 97.6457 126.604 98.2474V106.605C126.604 107.273 126.403 107.608 125.935 107.942C122.391 109.68 117.978 110.483 112.495 110.483C94.8433 110.483 88.2235 97.4452 88.2235 82.9369C88.2235 67.1581 96.3812 54.2545 110.757 54.2545C125.333 54.2545 130.415 66.4896 130.415 76.4516C130.415 79.6609 130.215 82.2684 129.88 83.5388C129.747 84.0736 129.546 84.2744 129.011 84.4081C127.673 84.6086 123.728 84.8758 117.844 84.8758H100.326V84.7415ZM64.4867 77.922C62.6145 70.5006 58.0676 54.3208 56.3959 46.4982H56.2622C54.8583 54.3208 51.1804 67.5587 48.4391 77.922H64.4867ZM45.6975 88.7533L40.4154 108.744C40.2817 109.279 40.0811 109.48 39.4123 109.48H29.5832C28.9147 109.48 28.7807 109.279 28.9147 108.477L47.904 42.0856C48.2383 40.8823 48.4388 39.9461 48.5725 36.6034C48.5725 36.1354 48.7731 35.9349 49.1074 35.9349H63.1488C63.6168 35.9349 63.8174 36.0686 63.9514 36.6034L85.214 108.61C85.3477 109.145 85.214 109.48 84.6792 109.48H73.6467C73.1119 109.48 72.7773 109.279 72.6436 108.811L67.1607 88.7536H45.6975V88.7533Z" fill="#D8A1FF"/>
</g>
<defs>
<radialGradient id="paint0_radial_420_359" cx="0" cy="0" r="1" gradientUnits="userSpaceOnUse" gradientTransform="translate(55.4983 38.9155) scale(111.797 108.231)">
<stop stop-color="#442F55" stop-opacity="0.98"/>
<stop offset="1" stop-color="#12002C"/>
</radialGradient>
<clipPath id="clip0_420_359">
<rect width="160.474" height="156.482" fill="white" transform="translate(0.36377 0.149414)"/>
</clipPath>
</defs>
</svg>
