<svg width="107" height="160" viewBox="0 0 107 160" fill="none" xmlns="http://www.w3.org/2000/svg">
<g clip-path="url(#clip0_420_346)">
<path d="M26.8586 159.78C41.509 159.78 53.3993 147.857 53.3993 133.167V106.555H26.8586C12.2081 106.555 0.317871 118.477 0.317871 133.167C0.317871 147.857 12.2081 159.78 26.8586 159.78Z" fill="#0ACF83"/>
<path d="M0.317871 79.9426C0.317871 65.2525 12.2081 53.3301 26.8586 53.3301H53.3993V106.555H26.8586C12.2081 106.555 0.317871 94.6327 0.317871 79.9426Z" fill="#A259FF"/>
<path d="M0.317871 26.717C0.317871 12.0269 12.2081 0.104492 26.8586 0.104492H53.3993V53.3296H26.8586C12.2081 53.3296 0.317871 41.4071 0.317871 26.717Z" fill="#F24E1E"/>
<path d="M53.3989 0.104492H79.9396C94.5901 0.104492 106.48 12.0269 106.48 26.717C106.48 41.4071 94.5901 53.3296 79.9396 53.3296H53.3989V0.104492Z" fill="#FF7262"/>
<path d="M106.48 79.9426C106.48 94.6327 94.5901 106.555 79.9396 106.555C65.2892 106.555 53.3989 94.6327 53.3989 79.9426C53.3989 65.2525 65.2892 53.3301 79.9396 53.3301C94.5901 53.3301 106.48 65.2525 106.48 79.9426Z" fill="#1ABCFE"/>
</g>
<defs>
<clipPath id="clip0_420_346">
<rect width="106.184" height="159.675" fill="white" transform="translate(0.307129 0.104492)"/>
</clipPath>
</defs>
</svg>
