<svg width="161" height="157" viewBox="0 0 161 157" fill="none" xmlns="http://www.w3.org/2000/svg">
<g clip-path="url(#clip0_420_356)">
<path d="M7.06396 6.85059H154.165V149.929H7.06396V6.85059Z" fill="url(#paint0_radial_420_356)"/>
<path d="M7.06376 6.84986H154.165V149.928H7.06376V6.84986ZM0.377441 156.614H160.851V0.164062H0.377441V156.614ZM101.877 65.1508C100.874 64.6829 99.5368 64.4823 97.932 64.4823C89.3066 64.4823 83.2889 71.1016 83.2889 82.1331C83.2889 94.7026 89.4403 99.7837 97.13 99.7837C98.8014 99.7837 100.54 99.5831 101.877 98.9815V65.1508ZM98.3332 54.2529C99.7374 54.2529 100.54 54.2529 101.877 54.3867V36.6021C101.877 36.1342 102.211 35.9336 102.545 35.9336H113.377C113.912 35.9336 114.046 36.1342 114.046 36.4684V98.9818C114.046 100.854 114.046 103.194 114.38 105.734C114.38 106.202 114.247 106.269 113.779 106.537C108.028 109.278 101.944 110.482 96.2604 110.482C81.4835 110.482 70.9188 101.322 70.9188 82.6682C70.8522 66.6887 81.4167 54.2529 98.3332 54.2529ZM59.0843 108.61C59.0843 109.278 58.9506 109.479 58.215 109.479H47.9179C47.2494 109.479 47.0485 109.144 47.0485 108.61V36.8027C47.0485 36.1342 47.3828 35.9334 47.9179 35.9334H58.2818C58.8167 35.9334 59.0843 36.1339 59.0843 36.7358V108.61Z" fill="#FF408C"/>
</g>
<defs>
<radialGradient id="paint0_radial_420_356" cx="0" cy="0" r="1" gradientUnits="userSpaceOnUse" gradientTransform="translate(55.5119 38.9146) scale(111.797 108.231)">
<stop stop-color="#4B2B36" stop-opacity="0.98"/>
<stop offset="1" stop-color="#250012"/>
</radialGradient>
<clipPath id="clip0_420_356">
<rect width="160.474" height="156.482" fill="white" transform="translate(0.377441 0.148438)"/>
</clipPath>
</defs>
</svg>
