<svg width="162" height="158" viewBox="0 0 162 158" fill="none" xmlns="http://www.w3.org/2000/svg">
<g clip-path="url(#clip0_420_363)">
<path d="M7.07031 7.08691H154.903V150.895H7.07031V7.08691Z" fill="url(#paint0_radial_420_363)"/>
<path d="M7.07017 7.0871H154.903V150.895H7.07017V7.0871ZM0.350586 157.616H161.623V0.367188H0.350586V157.616ZM109.075 64.8792C103.766 64.8792 101.952 67.5671 101.952 69.7847C101.952 72.2039 103.162 73.8839 110.285 77.5799C120.834 82.6873 124.127 87.5928 124.127 94.7833C124.127 105.535 115.929 111.314 104.842 111.314C98.9955 111.314 93.9556 110.105 91.0662 108.425C90.5959 108.223 90.5287 107.887 90.5287 107.35V97.4712C90.5287 96.7993 90.8647 96.5975 91.3353 96.9337C95.5686 99.689 100.407 100.898 104.842 100.898C110.15 100.898 112.368 98.6809 112.368 95.6568C112.368 93.2376 110.822 91.0872 104.035 87.5928C94.4931 83.0232 90.5287 78.3865 90.5287 70.6585C90.5287 61.9895 97.3158 54.7992 109.075 54.7992C114.854 54.7992 118.886 55.673 121.103 56.6808C121.641 57.0168 121.775 57.5543 121.775 58.0247V67.2309C121.775 67.7684 121.439 68.1047 120.767 67.9028C117.81 66.0217 113.443 64.8792 109.075 64.8792ZM51.2857 72.876C52.8313 73.0104 54.0409 73.0104 56.7287 73.0104C64.591 73.0104 71.9825 70.2553 71.9825 59.5706C71.9825 51.0363 66.6738 46.7352 57.7368 46.7352C55.049 46.7352 52.4953 46.8696 51.2857 46.9368V72.876ZM39.3249 37.1927C39.3249 36.7224 40.2658 36.3862 40.803 36.3862C45.1039 36.1846 51.4875 36.0502 58.1399 36.0502C76.7533 36.0502 84.0104 46.2646 84.0104 59.3016C84.0104 76.3702 71.6463 83.6951 56.4599 83.6951C53.9065 83.6951 53.0331 83.5608 51.2185 83.5608V109.366C51.2185 109.903 51.0169 110.172 50.4122 110.172H40.1311C39.5936 110.172 39.3246 109.97 39.3246 109.366V37.1927H39.3249Z" fill="#31C5F0"/>
</g>
<defs>
<radialGradient id="paint0_radial_420_363" cx="0" cy="0" r="1" gradientUnits="userSpaceOnUse" gradientTransform="translate(55.7593 39.3145) scale(112.353 108.783)">
<stop stop-color="#34364E" stop-opacity="0.98"/>
<stop offset="1" stop-color="#0C0824"/>
</radialGradient>
<clipPath id="clip0_420_363">
<rect width="161.272" height="157.28" fill="white" transform="translate(0.350586 0.350586)"/>
</clipPath>
</defs>
</svg>
