<svg width="90" height="89" viewBox="0 0 90 89" fill="none" xmlns="http://www.w3.org/2000/svg">
<path d="M88.1472 44.2691L88.6154 44.1249L88.4808 43.6539L81.5612 19.4403L81.4175 18.9376L80.9217 19.1035L57.2736 27.0203L57.6586 1.0074L57.6661 0.5H57.1586H32.8414H32.3339L32.3414 1.0074L32.7264 27.0203L9.07827 19.1035L8.58245 18.9376L8.43879 19.4403L1.51925 43.6539L1.38495 44.1238L1.85172 44.2688L24.7106 51.3673L9.89947 71.6763L9.61488 72.0665L9.99503 72.3644L29.172 87.3935L29.5883 87.7198L29.8907 87.2859L44.9011 65.7483L59.9116 87.2859L60.214 87.7198L60.6303 87.3935L79.8073 72.3644L80.1874 72.0665L79.9028 71.6763L65.0928 51.3687L88.1472 44.2691Z" fill="#FF5975" stroke="#FF5975"/>
</svg>
